<svg width="195" height="100" viewBox="0 0 195 100" fill="none" xmlns="http://www.w3.org/2000/svg">
<mask id="mask0" mask-type="alpha" maskUnits="userSpaceOnUse" x="2" y="20" width="167" height="60">
<path d="M23.7679 20.2886C27.749 20.2886 29 23.1403 30.0456 25.9917C30.4898 27.1999 40.8301 55.5159 41.1381 56.3654C41.2249 56.6003 41.1681 56.992 40.8023 57.1313C40.4362 57.2687 35.0631 59.3596 34.7665 59.4715C34.4696 59.5825 34.1351 59.4173 34.0258 59.122C33.9157 58.8286 31.6883 52.6553 31.4371 51.9653C30.6964 51.9653 16.8566 51.9653 16.1172 51.9653C15.8647 52.6553 13.6144 58.8409 13.5108 59.122C13.4086 59.4062 13.0852 59.5953 12.7714 59.4715C12.4564 59.3468 7.05908 57.2555 6.74006 57.1313C6.43162 57.0132 6.28929 56.6616 6.39989 56.3654C6.77884 55.3035 16.9619 27.444 17.4831 25.9917C18.4913 23.1857 19.7881 20.2886 23.7679 20.2886ZM5.58031 70.9508C5.25909 70.9508 5 71.2183 5 71.5466V78.1623C5 78.4927 5.25953 78.7562 5.58031 78.7562H41.9559C42.2745 78.7562 42.5314 78.4927 42.5314 78.1623V71.5466C42.5314 71.2188 42.2745 70.9508 41.9559 70.9508H5.58031ZM23.7375 29.5344L18.5561 45.0887H29L23.8009 29.5344H23.7375ZM98.4617 55.036C97.6998 55.2969 97.1966 55.3603 96.5956 55.3603C95.3574 55.3603 94.6683 54.8699 94.6683 53.5987C94.6683 52.2759 95.5442 51.83 97.2592 51.83C97.6725 51.83 98.0893 51.8912 98.2815 51.9582V52.9047C98.2815 53.9287 98.3352 54.5998 98.4617 55.036ZM102.863 56.5562C101.95 55.1656 101.712 54.3469 101.712 52.594V49.043C101.712 47.1254 101.49 46.4366 100.981 45.7365C100.279 44.7481 99.1068 44.3198 96.9459 44.3198C95.4209 44.3198 93.9368 44.486 92.5025 44.8499L93.0154 47.3792C93.9888 47.2439 95.0058 47.1254 95.7236 47.1254C98.0175 47.1254 98.2823 47.4589 98.2823 49.1778V49.8207C97.7725 49.6846 97.1975 49.5863 96.5321 49.5863C93.0811 49.5863 91.2591 51.2739 91.2591 54.0671C91.2591 56.6884 93.2036 58.117 95.5777 58.117C96.4669 58.117 97.3909 57.9535 98.1233 57.6574C98.5648 57.4622 98.7569 57.3502 99.3324 56.9766C99.6734 57.4811 100.368 57.9932 100.649 58.0852L102.863 56.5562ZM135.001 55.036C134.237 55.2969 133.737 55.3603 133.134 55.3603C131.894 55.3603 131.193 54.8699 131.193 53.5987C131.193 52.2759 132.08 51.83 133.799 51.83C134.213 51.83 134.627 51.8912 134.816 51.9582V52.9047C134.816 53.9287 134.872 54.5998 135.001 55.036ZM139.403 56.5562C138.485 55.1656 138.25 54.3469 138.25 52.594V49.043C138.25 47.1254 138.027 46.4366 137.517 45.7365C136.816 44.7481 135.644 44.3198 133.482 44.3198C131.955 44.3198 130.458 44.486 129.027 44.8499L129.538 47.3792C130.51 47.2439 131.531 47.1254 132.264 47.1254C134.551 47.1254 134.816 47.4589 134.816 49.1778V49.8207C134.309 49.6846 133.738 49.5863 133.068 49.5863C129.606 49.5863 127.781 51.2739 127.781 54.0671C127.781 56.6884 129.728 58.117 132.116 58.117C133.003 58.117 133.928 57.9535 134.658 57.6574C135.104 57.4622 135.293 57.3502 135.866 56.9766C136.211 57.4811 136.907 57.9932 137.187 58.0852L139.403 56.5562ZM166.276 57.8213C166.276 57.8213 164.387 53.7877 163.926 52.8734C163.403 51.8379 162.922 51.1228 161.855 50.8716V50.8095C162.569 50.6742 163.138 50.2406 163.75 48.9223C164.347 47.6352 164.52 47.358 164.864 47.0544C165.206 46.746 165.671 46.861 165.671 46.861L165.848 44.4789C165.351 44.4137 164.801 44.4119 164.234 44.4445C163.297 44.5005 162.81 44.7671 162.349 45.2346C161.991 45.5911 161.744 46.1229 161.441 46.7319C161.117 47.3981 160.861 47.9357 160.531 48.6151C160.201 49.3082 160.036 49.6198 159.14 49.6198H158.558V39.0904H155.096V57.8209H158.558V52.4363L159.028 52.4262C160.021 52.4262 160.193 52.6716 160.715 53.7164C161.331 54.9642 162.502 57.8213 162.502 57.8213H166.276ZM70.9349 57.8213H74.9239L68.8939 39.4063C68.2611 39.1926 67.4715 39.0591 66.633 39.0591C65.7173 39.0591 65.3921 39.1812 64.6744 39.4063L58.2962 57.8213H62.1204C62.1204 57.8213 62.6351 56.2068 63.2467 54.2015H69.858C70.4506 56.205 70.9349 57.8213 70.9349 57.8213ZM64.2183 51.1135C64.2183 51.1135 65.3186 47.4197 65.4886 46.8416C65.9346 45.3544 66.5995 42.9882 66.5995 42.9882H66.7105C66.7105 42.9882 67.3239 45.4408 67.7279 46.8195C67.8813 47.3642 68.9366 51.1135 68.9366 51.1135H64.2183ZM107.751 49.0108C106.53 49.0108 105.54 50.0044 105.54 51.2254C105.54 52.4517 106.53 53.4379 107.751 53.4379C108.971 53.4379 109.96 52.4517 109.96 51.2254C109.96 50.0044 108.971 49.0108 107.751 49.0108ZM79.6599 39.0904H76.1965V57.8209H79.6599V39.0904ZM146.492 47.2959C148.403 47.3395 148.638 47.7321 148.638 49.3404V57.8213H152.07V49.0425C152.07 47.1249 151.848 46.4362 151.339 45.736C150.637 44.7477 149.248 44.3194 146.908 44.3194C144.592 44.3194 143.119 44.5657 141.218 45.131V57.8209H144.685V47.4589C145.6 47.3267 145.756 47.2959 146.492 47.2959ZM88.2253 38.7582C86.0645 38.7582 84.8897 39.1838 84.1887 40.1726C83.6802 40.8723 83.4572 41.5795 83.4572 43.4985V45.131H81.7361V47.9308H83.4572V57.8209H86.888L86.8801 47.9308H90.3073V45.131H86.8801L86.888 43.6298C86.888 41.9131 87.1541 41.58 89.4472 41.58C89.6935 41.58 89.972 41.5932 90.2707 41.6161L90.8123 38.9269C89.9632 38.8124 89.0973 38.7582 88.2253 38.7582ZM113.793 38.9309C114.971 38.8626 117.602 38.7643 119.26 38.7643C119.554 38.7643 119.863 38.767 120.18 38.7811C123.435 38.7811 125.295 41.1499 125.295 43.9268C125.295 45.8153 124.431 47.0689 122.404 47.8176C124.793 48.3455 126.043 50.2098 126.043 52.4861C126.043 54.1583 125.566 55.4846 124.697 56.3914C123.578 57.4992 121.88 58.1169 119.621 58.1161C117.602 58.1161 115.079 58.0557 113.792 57.979L113.793 38.9309ZM119.26 42.0021C118.68 42.0021 117.977 42.0114 117.271 42.0369C117.271 42.3427 117.271 46.2295 117.271 46.5345C117.556 46.5345 119.263 46.5345 119.263 46.5345C120.043 46.5345 120.68 46.315 121.114 45.8916C121.522 45.4954 121.734 44.931 121.734 44.2612C121.734 42.8257 120.957 42.0087 119.512 42.0021C119.392 42.0021 119.34 42.0021 119.26 42.0021ZM119.326 54.8897C119.379 54.8897 119.433 54.8897 119.486 54.8897C121.276 54.8897 122.388 53.9301 122.399 51.9988C122.378 51.3017 122.115 50.6641 121.643 50.2019C121.117 49.6784 120.38 49.4047 119.516 49.4047C119.516 49.4047 117.562 49.4047 117.271 49.4047C117.271 49.7145 117.271 54.5571 117.271 54.8677C117.904 54.8814 118.6 54.8867 119.326 54.8897Z" fill="#EE3424"/>
</mask>
<g mask="url(#mask0)">
<rect x="-25" width="220" height="100" fill="white"/>
</g>
</svg>
