<svg width="220" height="100" viewBox="0 0 220 100" fill="none" xmlns="http://www.w3.org/2000/svg">
<mask id="mask0" mask-type="alpha" maskUnits="userSpaceOnUse" x="10" y="24" width="200" height="52">
<path fill-rule="evenodd" clip-rule="evenodd" d="M10.5808 24.0434C10.3433 24.0998 10.1981 24.2131 10.0937 24.4233C10.003 24.6059 10 24.8325 10 31.4924V38.3728L10.143 38.6687C10.2693 38.93 10.8768 39.5569 15.3288 44.0201C20.3234 49.0275 20.5302 49.2471 20.5302 49.5442C20.5302 49.8412 20.3234 50.0608 15.3288 55.0682C10.8768 59.5314 10.2693 60.1583 10.143 60.4196L10 60.7155V67.5466V74.3777L10.1035 74.5749C10.1603 74.6835 10.2824 74.8166 10.3747 74.8709C10.6467 75.0307 36.2822 75.0526 37.8668 74.8944C49.4382 73.7384 58.7182 65.059 60.6205 53.6132C60.8247 52.3847 60.974 50.6538 60.974 49.5153C60.974 36.9859 51.5322 26.0761 39.1492 24.2971C38.4966 24.2033 38.0896 24.1645 36.5104 24.0454C35.7255 23.9862 10.8295 23.9842 10.5808 24.0434ZM96.1158 29.0601C92.3047 29.3927 90.0777 31.5178 89.6554 35.2251C89.5214 36.4013 89.5663 44.0196 89.7088 44.2914C89.9061 44.6677 89.9826 44.686 91.3562 44.686C93.1372 44.686 93.0942 44.7296 93.1318 42.8857C93.1719 40.9203 92.8506 41.0855 96.6337 41.0855C100.417 41.0855 100.095 40.9203 100.136 42.8857C100.173 44.7296 100.13 44.686 101.911 44.686C103.859 44.686 103.658 45.2393 103.677 39.8278C103.694 34.8983 103.674 34.583 103.265 33.3852C102.281 30.5035 99.4189 28.7718 96.1158 29.0601ZM74.3045 29.3696C74.0666 29.4269 73.9217 29.5401 73.8174 29.7501C73.7267 29.9328 73.7237 30.1627 73.7237 37.0164V44.0941L73.8272 44.2914C74.0462 44.7091 73.7986 44.6839 77.8667 44.7016C82.6942 44.7225 83.5769 44.6125 84.9791 43.8152C88.0911 42.0458 87.9045 37.1984 84.6731 35.8686C83.5624 35.4114 83.3035 35.3799 80.3821 35.3449C77.0662 35.3053 77.2749 35.4116 77.2749 33.7612C77.2749 32.0614 76.8452 32.2141 81.7138 32.1829C86.5019 32.1522 86.1035 32.282 86.1035 30.7526C86.1035 29.829 86.0472 29.6327 85.7287 29.4455C85.5521 29.3417 74.7193 29.2697 74.3045 29.3696ZM107.942 29.3681C107.703 29.428 107.559 29.5408 107.455 29.7501C107.364 29.9328 107.361 30.1627 107.361 37.0164V44.0941L107.465 44.2914C107.662 44.6677 107.738 44.686 109.112 44.686C111.003 44.686 110.855 44.9475 110.888 41.554C110.922 38.0249 110.478 38.4221 114.39 38.4221C118.301 38.4221 117.857 38.0249 117.891 41.554C117.924 44.9475 117.776 44.686 119.667 44.686C121.041 44.686 121.117 44.6677 121.314 44.2914L121.418 44.0941V37.0164V29.9388L121.314 29.7415C121.117 29.3652 121.041 29.3469 119.667 29.3469C117.784 29.3469 117.925 29.11 117.891 32.3309C117.857 35.686 118.292 35.3148 114.39 35.3148C110.487 35.3148 110.922 35.686 110.888 32.3309C110.855 29.1296 110.979 29.3524 109.211 29.3376C108.6 29.3325 108.029 29.3463 107.942 29.3681ZM125.599 29.3681C125.36 29.428 125.216 29.5408 125.112 29.7501C125.021 29.9328 125.018 30.1627 125.018 37.0164V44.0941L125.122 44.2914C125.319 44.6677 125.396 44.686 126.769 44.686C128.658 44.686 128.512 44.9393 128.545 41.6033C128.577 38.3699 128.51 38.5207 129.901 38.5207C130.737 38.5207 130.871 38.5616 131.216 38.9235C131.409 39.1255 131.47 39.2185 133.969 43.083C135.048 44.7526 134.927 44.6804 136.68 44.702C138.95 44.7299 139.021 44.6217 137.884 42.8788C136.478 40.7248 135.869 39.7921 135.104 38.624C133.886 36.7625 133.88 36.7157 134.697 35.5424C134.878 35.2816 135.484 34.3913 136.044 33.5639C136.603 32.7365 137.341 31.6459 137.684 31.1404C138.816 29.4727 138.755 29.3469 136.808 29.3469C135.144 29.3469 135.114 29.361 134.382 30.4929C130.881 35.9035 131.188 35.5654 129.811 35.5292C128.522 35.4953 128.577 35.6293 128.545 32.4295C128.512 29.1133 128.642 29.3524 126.868 29.3376C126.258 29.3325 125.687 29.3463 125.599 29.3681ZM26.5371 30.0588C26.7256 30.157 34.3901 37.8048 34.579 38.0831C34.9568 38.6399 34.9567 41.8055 34.5789 42.3616C34.3927 42.6355 32.4474 44.5664 32.2584 44.6647C31.7579 44.9251 31.764 44.9299 28.7624 41.9153C26.0762 39.2173 26.0079 39.1396 25.9058 38.6633C25.8073 38.2039 25.8638 30.3659 25.9669 30.1775C26.0975 29.9388 26.247 29.9076 26.5371 30.0588ZM44.8189 29.994C45.0707 30.0907 45.0667 30.0247 45.0815 34.3777C45.0955 38.4819 45.0878 38.6932 44.911 39.0825C44.8076 39.3102 39.6149 44.5331 39.3607 44.6649C38.9056 44.9012 38.7348 44.7987 37.4917 43.5426C36.0288 42.0646 36.1159 42.2748 36.1159 40.2223C36.1159 38.662 36.1503 38.4046 36.4086 38.0358C36.6095 37.7491 44.2449 30.1388 44.4266 30.0443C44.5878 29.9605 44.6955 29.9467 44.8189 29.994ZM97.5215 32.2139C99.3223 32.5803 100.111 33.8477 100.111 36.3752C100.111 38.2222 100.408 38.0768 96.6337 38.0768C92.8593 38.0768 93.1565 38.2222 93.1565 36.3752C93.1565 35.1695 93.1979 34.8381 93.4283 34.1998C94.0077 32.5943 95.5984 31.8225 97.5215 32.2139ZM81.3117 37.9782C82.0166 38.0706 82.4291 38.197 82.7629 38.4228C83.9525 39.2276 83.7541 41.0845 82.4102 41.7235C81.8179 42.0051 81.6577 42.0226 79.667 42.0226C77.134 42.0226 77.2838 42.1407 77.2585 40.1237C77.2365 38.3712 77.3075 38.1021 77.8283 37.9639C78.1357 37.8823 80.6591 37.8927 81.3117 37.9782ZM24.6443 39.952C24.8025 39.9932 25.0014 40.0741 25.0862 40.1316C25.3629 40.3195 30.4971 45.47 30.5951 45.6581C30.8313 46.1114 30.7275 46.2858 29.4978 47.5025C28.0449 48.9402 28.2592 48.8536 26.1529 48.8536C24.5393 48.8536 24.2881 48.8207 23.917 48.5609C23.7187 48.422 17.1407 41.8505 16.4714 41.1228C15.8476 40.4443 15.7903 40.1203 16.2645 39.9514C16.5683 39.8433 24.2288 39.8438 24.6443 39.952ZM54.7958 39.9889C54.9856 40.0927 55.0406 40.2631 54.9551 40.4822C54.8861 40.6591 47.283 48.3166 46.9338 48.561C46.3435 48.974 43.2005 49.0016 42.6079 48.599C42.3341 48.4129 40.4524 46.5168 40.3541 46.3279C40.0942 45.8283 40.0912 45.8321 43.0793 42.8557C45.8902 40.0558 45.8825 40.0627 46.2834 39.9541C46.7228 39.8349 54.5727 39.8671 54.7958 39.9889ZM27.8975 50.2104C28.309 50.3176 28.4789 50.4551 29.6131 51.5991C30.7485 52.7444 30.8141 52.8449 30.6942 53.2556C30.63 53.4758 25.7156 58.4819 25.2312 58.8206C24.8056 59.1183 24.8427 59.1161 20.3767 59.1014C15.9057 59.0866 16.0398 59.096 15.963 58.7901C15.8957 58.5219 16.0404 58.3642 19.9333 54.4603C23.979 50.4031 24.0602 50.3274 24.4851 50.2131C24.8737 50.1085 27.4984 50.1065 27.8975 50.2104ZM46.4425 50.2104C46.8924 50.3276 46.9292 50.3618 51.0161 54.4603C54.909 58.3642 55.0536 58.5219 54.9863 58.7901C54.9096 59.0959 55.0416 59.0865 50.5918 59.1015C46.4894 59.1153 46.2755 59.1076 45.887 58.9311C45.6593 58.8277 40.4365 53.635 40.3046 53.3809C40.0683 52.9257 40.1709 52.7549 41.4269 51.5118C42.5678 50.3825 42.6512 50.315 43.0281 50.2135C43.4186 50.1085 46.042 50.1061 46.4425 50.2104ZM80.2589 54.1115C79.0621 54.2546 78.7126 54.3214 78.0394 54.5353C76.1624 55.1318 74.7393 56.5314 74.116 58.394C73.7518 59.4823 73.7318 59.7111 73.7015 63.1323C73.6684 66.8608 73.7164 66.6714 72.7714 66.8054C71.8188 66.9405 71.8179 66.9435 71.8358 69.9738C71.8542 73.1077 71.7348 72.898 73.5018 72.898C75.1295 72.898 75.1391 72.8891 75.1787 71.3444C75.223 69.6158 74.5957 69.7907 80.7521 69.7907C86.9085 69.7907 86.2811 69.6158 86.3254 71.3444C86.365 72.8891 86.3746 72.898 88.0024 72.898C89.7694 72.898 89.6499 73.1077 89.6684 69.9738C89.6862 66.9435 89.6853 66.9405 88.7328 66.8054C87.7877 66.6714 87.8357 66.8608 87.8026 63.1323C87.7628 58.6378 87.5162 57.6774 85.998 56.1024C84.7015 54.7575 82.178 53.8821 80.2589 54.1115ZM98.4832 54.1155C94.7005 54.4456 92.4726 56.6707 92.0973 60.4936C92.0595 60.8786 92.0464 62.3598 92.0565 65.1052C92.0755 70.2569 91.8792 69.7414 93.8223 69.7414C95.6099 69.7414 95.5606 69.7928 95.5979 67.8918C95.6376 65.8686 95.3088 66.0423 99.0998 66.0423C102.891 66.0423 102.562 65.8686 102.602 67.8918C102.639 69.7928 102.59 69.7414 104.377 69.7414C106.325 69.7414 106.124 70.2948 106.143 64.8832C106.16 59.953 106.14 59.636 105.731 58.4406C104.732 55.5228 101.878 53.8194 98.4832 54.1155ZM147.509 54.1588C144.123 54.6181 142.132 56.7096 141.714 60.247C141.676 60.5689 141.664 62.035 141.674 64.9325C141.693 70.2536 141.517 69.7304 143.296 69.7578C145.168 69.7866 145.178 69.7769 145.215 67.8918C145.255 65.8686 144.927 66.0423 148.717 66.0423C152.508 66.0423 152.18 65.8686 152.219 67.8918C152.257 69.7928 152.207 69.7414 153.995 69.7414C155.941 69.7414 155.742 70.2779 155.76 64.9819C155.778 60.1034 155.748 59.659 155.318 58.3974C154.27 55.3234 151.202 53.6579 147.509 54.1588ZM131.726 54.2142C128.682 54.4798 126.85 55.7447 126.061 58.1261C125.705 59.1996 125.709 59.1234 125.709 64.4147C125.709 70.3745 125.501 69.7414 127.46 69.7414C129.286 69.7414 129.2 69.8481 129.235 67.5466C129.27 65.3108 129.304 65.2656 130.665 65.6698C132.85 66.3191 135.414 66.0173 137.053 64.9179C139.533 63.2544 140.037 58.9363 138.046 56.419C136.839 54.8935 134.258 53.9932 131.726 54.2142ZM32.3077 54.3743C32.4967 54.4726 34.3928 56.3543 34.5789 56.6281C34.7964 56.9483 34.8335 57.2601 34.8335 58.7673C34.8335 60.3274 34.799 60.5849 34.5408 60.9539C34.2965 61.3031 26.6389 68.9062 26.4621 68.9752C26.2429 69.0608 26.0725 69.0057 25.9688 68.8159C25.8436 68.5867 25.8074 60.8128 25.9293 60.3368C26.0445 59.8871 26.1167 59.8068 28.899 57.0337C31.8837 54.0588 31.8108 54.1157 32.3077 54.3743ZM39.3114 54.374C39.5656 54.506 44.8076 59.7781 44.911 60.0058C45.0877 60.3949 45.0955 60.6074 45.0815 64.6613C45.0663 69.0649 45.0762 68.9296 44.7657 69.0075C44.5479 69.0622 44.3243 68.9055 43.471 68.0998C42.185 66.8857 36.5685 61.2812 36.4085 61.0525C36.1488 60.6812 36.1159 60.43 36.1159 58.8166C36.1159 56.7074 36.0452 56.8778 37.5302 55.4062C38.7322 54.215 38.8611 54.1402 39.3114 54.374ZM110.408 54.425C110.17 54.4823 110.025 54.5955 109.921 54.8055C109.83 54.9882 109.827 55.2181 109.827 62.0719V69.1495L109.931 69.3468C110.15 69.7646 109.902 69.7396 113.97 69.7556C118.933 69.7751 119.773 69.6588 121.229 68.7513C124.095 66.9652 123.97 62.5323 121.013 61.043C119.942 60.5035 119.455 60.4344 116.486 60.3997C113.17 60.3609 113.378 60.4672 113.378 58.8166C113.378 57.1174 112.953 57.2696 117.793 57.2383C121.996 57.2112 121.782 57.2277 122.03 56.9123C122.417 56.4198 122.282 54.7651 121.832 54.501C121.656 54.3971 110.823 54.3252 110.408 54.425ZM159.927 54.425C159.689 54.4823 159.544 54.5955 159.44 54.8055C159.327 55.0325 159.265 68.7315 159.375 69.1394C159.443 69.3939 159.688 69.6413 159.94 69.7114C160.26 69.8 166.388 69.7833 167.43 69.691C170.689 69.402 172.439 68.0786 172.816 65.6164C173.194 63.1535 171.888 61.2033 169.457 60.6013C168.527 60.3708 168.125 60.3389 165.709 60.3038C162.769 60.2612 162.91 60.3343 162.881 58.8366C162.864 57.9439 162.9 57.6876 163.075 57.4658C163.323 57.1503 163.106 57.1668 167.336 57.1397C172.111 57.1091 171.726 57.2302 171.726 55.7587C171.726 54.8893 171.665 54.6855 171.351 54.501C171.175 54.3971 160.342 54.3252 159.927 54.425ZM175.907 54.4235C175.284 54.5796 175.327 54.1583 175.327 60.1977V65.4011L175.468 65.9436C176.291 69.1043 179.37 70.5634 183.785 69.8846C187.088 69.3769 188.789 67.5093 188.791 64.39C188.792 61.7594 187.629 60.0824 185.27 59.3143C183.952 58.8855 181.795 58.9177 180.186 59.3903C179.521 59.5853 179.22 59.6019 179.032 59.454C178.779 59.2549 178.781 59.2705 178.754 57.0657C178.721 54.2468 178.819 54.4079 177.127 54.393C176.544 54.3879 175.995 54.4016 175.907 54.4235ZM191.394 54.4236C191.155 54.4834 191.011 54.5963 190.907 54.8055C190.817 54.9882 190.814 55.2181 190.814 62.0719V69.1495L190.917 69.3468C191.108 69.7114 191.21 69.7391 192.421 69.7578C193.622 69.7763 193.83 69.7439 194.074 69.4997C194.351 69.2228 194.342 69.4781 194.328 61.9661L194.315 54.9942L194.212 54.7969C194.018 54.4279 193.925 54.4036 192.663 54.3931C192.053 54.388 191.482 54.4017 191.394 54.4236ZM197.313 54.4251C196.823 54.5429 196.732 54.7602 196.732 55.808C196.732 57.2513 196.655 57.2055 199.149 57.2383C201.278 57.2664 201.309 57.272 201.513 57.6608C201.614 57.8528 201.615 57.9157 201.64 63.5022C201.67 70.5214 201.455 69.7414 203.366 69.7414C205.277 69.7414 205.062 70.5214 205.092 63.5022C205.117 57.9157 205.118 57.8528 205.219 57.6608C205.423 57.272 205.454 57.2664 207.583 57.2383C210.077 57.2055 210 57.2513 210 55.808C210 54.8845 209.943 54.6882 209.625 54.501C209.448 54.3972 197.729 54.325 197.313 54.4251ZM81.1713 57.1899C83.0047 57.394 84.0055 58.4632 84.2062 60.4321C84.3115 61.4649 84.2494 66.1518 84.1274 66.3843C83.9117 66.7955 84.0257 66.7821 80.7521 66.7821C77.4784 66.7821 77.5924 66.7955 77.3767 66.3843C77.2281 66.1011 77.2178 60.4871 77.3646 59.8056C77.6912 58.2907 78.7093 57.3723 80.2589 57.1948C80.4623 57.1716 80.651 57.1498 80.6781 57.1465C80.7052 57.1432 80.9272 57.1627 81.1713 57.1899ZM100.037 57.2659C101.807 57.6813 102.577 58.9432 102.577 61.4307C102.577 63.2777 102.874 63.1323 99.0998 63.1323C95.3206 63.1323 95.6218 63.2818 95.6238 61.406C95.6252 59.9991 95.729 59.4486 96.1297 58.7197C96.7979 57.5048 98.4444 56.8922 100.037 57.2659ZM149.802 57.289C151.494 57.7659 152.181 58.9638 152.19 61.4554C152.197 63.273 152.489 63.1323 148.717 63.1323C144.974 63.1323 145.252 63.2575 145.224 61.5599C145.189 59.4334 145.576 58.4006 146.677 57.6816C147.473 57.1614 148.77 56.9984 149.802 57.289ZM133.569 57.3556C135.881 58.0032 136.442 61.4797 134.443 62.7714C132.884 63.7792 129.553 63.216 129.283 61.8993C129.105 61.0273 129.289 59.469 129.652 58.7791C130.305 57.537 132.008 56.9181 133.569 57.3556ZM183.317 61.9293C184.593 62.37 185.222 63.2212 185.219 64.507C185.216 66.2417 184.114 67.1791 182.084 67.1749C179.965 67.1705 179.018 66.3167 178.802 64.2159C178.637 62.6204 179.111 62.1569 181.319 61.7565C181.789 61.6713 182.83 61.7613 183.317 61.9293ZM117.35 63.0115C117.893 63.0787 118.296 63.1842 118.623 63.344C119.982 64.0096 119.954 66.0395 118.576 66.7289C117.94 67.0474 117.689 67.078 115.721 67.078C113.246 67.078 113.387 67.1919 113.362 65.1791C113.34 63.4266 113.411 63.1575 113.932 63.0193C114.183 62.9527 116.827 62.9466 117.35 63.0115ZM167.616 63.096C168.931 63.4581 169.542 64.5226 169.104 65.6865C168.691 66.7835 167.781 67.1029 165.069 67.1024C162.844 67.102 162.874 67.1296 162.873 65.0407C162.873 62.8665 162.757 62.9593 165.438 62.9788C167.093 62.9908 167.268 63.0002 167.616 63.096Z" fill="black"/>
</mask>
<g mask="url(#mask0)">
<rect width="220" height="100" fill="white"/>
</g>
</svg>
