<svg width="220" height="100" viewBox="0 0 220 100" fill="none" xmlns="http://www.w3.org/2000/svg">
<mask id="mask0" mask-type="alpha" maskUnits="userSpaceOnUse" x="30" y="28" width="157" height="56">
<g clip-path="url(#clip0)">
<path d="M59.802 52.8699V62.9429C59.802 65.5132 61.0524 66.7637 63.6228 66.7637H64.7343C67.3047 66.7637 68.5551 65.5132 68.5551 62.9429V58.0106H74.46V62.7345C74.46 69.1951 71.1949 72.5296 64.6648 72.5296H63.4144C56.9538 72.5296 53.6193 69.2646 53.6193 63.4986V38.7677C53.6193 31.5429 56.8843 28.2084 63.4144 28.2084H64.6648C71.1255 28.2084 74.46 31.4734 74.46 38.0035V52.8004H59.802V52.8699ZM59.802 46.965H68.4856V37.7951C68.4856 35.2247 67.2352 33.9743 64.6648 33.9743H63.6923C61.1219 33.9743 59.8715 35.2247 59.8715 37.7951V46.965H59.802Z" fill="#464547"/>
<path d="M78.4897 28.7641H84.603V31.5429C86.0619 30.0146 88.5628 28.2778 92.0362 28.2778C97.2464 28.2778 99.8167 31.7513 99.8167 36.8225V63.9154C99.8167 69.0562 97.2464 72.4601 92.0362 72.4601C88.4933 72.4601 86.0619 70.7929 84.603 69.334V83.2973H78.4897V28.7641ZM84.603 64.4712C86.2703 65.93 88.2154 66.6942 90.23 66.6942C92.453 66.6942 93.7729 65.6522 93.7729 63.1513V37.5867C93.7729 35.0858 92.5225 34.0438 90.23 34.0438C88.2154 34.0438 86.2703 34.8774 84.603 36.2668V64.4712Z" fill="#464547"/>
<path d="M103.499 56.9686C103.499 51.6194 105.235 49.4659 109.89 47.8681L118.087 45.0893V37.7951C118.087 35.2247 116.837 33.8354 114.266 33.8354H113.294C110.723 33.8354 109.473 35.2247 109.473 37.7951V43.9084H103.568V38.0035C103.568 31.5429 106.833 28.2084 113.363 28.2084H114.544C121.005 28.2084 124.339 31.4734 124.339 38.0035V71.9739H118.226V69.2646C116.559 70.8624 114.266 72.4601 110.793 72.4601C105.93 72.4601 103.638 69.6814 103.638 64.8186V56.9686H103.499ZM118.087 64.6796V50.4385L112.53 52.5225C110.307 53.4256 109.542 54.5371 109.542 57.038V63.6376C109.542 65.7216 110.584 66.7637 112.53 66.7637C114.405 66.6942 116.072 66.069 118.087 64.6796Z" fill="#464547"/>
<path d="M148.792 71.9739H142.679V37.1699C142.679 35.0163 141.637 34.0438 139.761 34.0438C138.094 34.0438 136.288 34.669 134.134 36.1973V71.9739H128.021V28.7641H134.134V31.5429C135.871 29.8756 138.233 28.2778 141.567 28.2778C144.694 28.2778 146.778 29.5283 147.889 31.8208C150.043 29.9451 152.613 28.2778 156.156 28.2778C160.88 28.2778 163.311 31.1955 163.311 35.9194V72.0433H157.198V37.1699C157.198 35.0163 156.156 34.0438 154.28 34.0438C152.613 34.0438 150.807 34.669 148.653 36.1973V71.9739H148.792Z" fill="#464547"/>
<path d="M45.9085 32.7239V40.7128L35.6965 50.4385L45.9085 60.0252V68.1531L30.278 53.4256V47.5902L45.9085 32.7239Z" fill="#00B5D1"/>
<path d="M186.722 47.5902V53.4256L171.092 68.1531V60.0252L181.304 50.4385L171.092 40.6433V32.7239L186.722 47.5902Z" fill="#00B5D1"/>
</g>
</mask>
<g mask="url(#mask0)">
<rect width="220" height="100" fill="white"/>
</g>
<defs>
<clipPath id="clip0">
<rect width="157" height="55.5752" fill="white" transform="translate(30 28)"/>
</clipPath>
</defs>
</svg>
