<svg width="156" height="28" viewBox="0 0 156 28" fill="none" xmlns="http://www.w3.org/2000/svg">
<path d="M20.7037 11.6169C20.7037 14.4689 19.8576 16.741 18.1654 18.4332C16.2641 20.4486 13.7639 21.4563 10.6647 21.4563C7.6986 21.4563 5.18884 20.4296 3.1354 18.3762C1.08196 16.3227 0.05524 13.7939 0.05524 10.7898C0.05524 7.78573 1.08196 5.25696 3.1354 3.20352C5.18884 1.15008 7.6986 0.12336 10.6647 0.12336C12.1667 0.12336 13.5832 0.389546 14.9142 0.921919C16.2451 1.45429 17.3384 2.20532 18.194 3.175L16.3116 5.05732C15.6842 4.29679 14.8666 3.70737 13.8589 3.28908C12.8702 2.85177 11.8055 2.63312 10.6647 2.63312C8.44012 2.63312 6.5578 3.40316 5.01772 4.94324C3.49665 6.50233 2.73612 8.4512 2.73612 10.7898C2.73612 13.1285 3.49665 15.0773 5.01772 16.6364C6.5578 18.1765 8.44012 18.9466 10.6647 18.9466C12.6991 18.9466 14.3913 18.3762 15.7412 17.2354C17.0912 16.0946 17.8707 14.526 18.0799 12.5296H10.6647V10.0768H20.5611C20.6562 10.6092 20.7037 11.1226 20.7037 11.6169ZM59.0609 19.0606C60.3538 19.0606 61.409 18.5948 62.2266 17.6632C63.0822 16.7315 63.51 15.5147 63.51 14.0126C63.51 12.5486 63.0822 11.3412 62.2266 10.3906C61.39 9.43989 60.3348 8.96456 59.0609 8.96456C57.806 8.96456 56.7508 9.43989 55.8952 10.3906C55.0396 11.3412 54.6118 12.5486 54.6118 14.0126C54.6118 15.4956 55.0396 16.703 55.8952 17.6346C56.7508 18.5853 57.806 19.0606 59.0609 19.0606ZM58.9753 27.6166C58.1958 27.6166 57.4638 27.5121 56.7793 27.3029C56.0948 27.1128 55.4674 26.8371 54.897 26.4758C54.3456 26.1146 53.8702 25.6868 53.471 25.1924C53.0717 24.6981 52.7675 24.1467 52.5583 23.5383L55.0396 22.5116C55.3248 23.3291 55.8191 23.9851 56.5226 24.4794C57.2261 24.9738 58.0437 25.221 58.9753 25.221C60.4013 25.221 61.5136 24.7932 62.3122 23.9376C63.1107 23.082 63.51 21.9031 63.51 20.4011V19.0606H63.3959C62.9016 19.8022 62.2266 20.3916 61.371 20.8289C60.5344 21.2472 59.6218 21.4563 58.6331 21.4563C56.8078 21.4563 55.2392 20.7433 53.9273 19.3173C52.6344 17.8533 51.9879 16.0851 51.9879 14.0126C51.9879 11.9401 52.6344 10.1814 53.9273 8.7364C55.2392 7.29139 56.8078 6.56888 58.6331 6.56888C59.6218 6.56888 60.5344 6.78753 61.371 7.22484C62.2266 7.64313 62.9016 8.22304 63.3959 8.96456H63.51V7.0252H66.0198V20.4011C66.0198 22.6447 65.3828 24.4034 64.1089 25.6773C62.816 26.9702 61.1048 27.6166 58.9753 27.6166Z" fill="#4285F4"/>
<path d="M21.7812 14.0126C21.7812 11.8641 22.4562 10.0863 23.8062 8.67936C25.1751 7.27237 26.8958 6.56888 28.9683 6.56888C31.0407 6.56888 32.7519 7.27237 34.1019 8.67936C35.4708 10.0863 36.1553 11.8641 36.1553 14.0126C36.1553 16.1801 35.4708 17.9579 34.1019 19.3458C32.7519 20.7528 31.0407 21.4563 28.9683 21.4563C26.8958 21.4563 25.1751 20.7528 23.8062 19.3458C22.4562 17.9389 21.7812 16.1611 21.7812 14.0126ZM24.4051 14.0126C24.4051 15.5147 24.8424 16.7315 25.717 17.6632C26.5916 18.5948 27.6754 19.0606 28.9683 19.0606C30.2612 19.0606 31.3449 18.5948 32.2196 17.6632C33.0942 16.7315 33.5315 15.5147 33.5315 14.0126C33.5315 12.5296 33.0942 11.3222 32.2196 10.3906C31.3259 9.43989 30.2422 8.96456 28.9683 8.96456C27.6944 8.96456 26.6106 9.43989 25.717 10.3906C24.8424 11.3222 24.4051 12.5296 24.4051 14.0126ZM79.6031 21.4563C77.5496 21.4563 75.8575 20.7528 74.5265 19.3458C73.1956 17.9389 72.5301 16.1611 72.5301 14.0126C72.5301 11.8831 73.1766 10.1149 74.4695 8.70788C75.7624 7.28188 77.4166 6.56888 79.432 6.56888C81.5044 6.56888 83.1491 7.24385 84.3659 8.5938C85.6018 9.92473 86.2197 11.7975 86.2197 14.2122L86.1912 14.4974H75.211C75.249 15.8664 75.7054 16.9692 76.58 17.8058C77.4546 18.6423 78.5003 19.0606 79.7172 19.0606C81.3903 19.0606 82.7023 18.2241 83.6529 16.5509L85.9916 17.6917C85.3641 18.8705 84.4895 19.7927 83.3677 20.4581C82.265 21.1236 81.0101 21.4563 79.6031 21.4563ZM75.4106 12.3299H83.4248C83.3487 11.3602 82.9494 10.5617 82.2269 9.93424C81.5234 9.28779 80.5728 8.96456 79.3749 8.96456C78.3862 8.96456 77.5306 9.26877 76.8081 9.8772C76.1046 10.4856 75.6388 11.3032 75.4106 12.3299Z" fill="#EA4335"/>
<path d="M36.8846 14.0126C36.8846 11.8641 37.5596 10.0863 38.9095 8.67936C40.2785 7.27237 41.9992 6.56888 44.0716 6.56888C46.1441 6.56888 47.8553 7.27237 49.2052 8.67936C50.5742 10.0863 51.2587 11.8641 51.2587 14.0126C51.2587 16.1801 50.5742 17.9579 49.2052 19.3458C47.8553 20.7528 46.1441 21.4563 44.0716 21.4563C41.9992 21.4563 40.2785 20.7528 38.9095 19.3458C37.5596 17.9389 36.8846 16.1611 36.8846 14.0126ZM39.5084 14.0126C39.5084 15.5147 39.9457 16.7315 40.8203 17.6632C41.695 18.5948 42.7787 19.0606 44.0716 19.0606C45.3645 19.0606 46.4483 18.5948 47.3229 17.6632C48.1975 16.7315 48.6348 15.5147 48.6348 14.0126C48.6348 12.5296 48.1975 11.3222 47.3229 10.3906C46.4293 9.43989 45.3455 8.96456 44.0716 8.96456C42.7977 8.96456 41.714 9.43989 40.8203 10.3906C39.9457 11.3222 39.5084 12.5296 39.5084 14.0126Z" fill="#FBBC05"/>
<path d="M70.9871 0.57968V21H68.3633V0.57968H70.9871Z" fill="#34A853"/>
<path d="M96.2548 21H93.6309V0.57968H96.2548L103.356 13.0144H103.47L110.572 0.57968H113.196V21H110.572V8.879L110.686 5.4566H110.572L104.183 16.665H102.643L96.2548 5.4566H96.1407L96.2548 8.879V21ZM117.486 16.722C117.486 17.4065 117.771 17.9769 118.341 18.4332C118.931 18.8895 119.615 19.1177 120.395 19.1177C121.498 19.1177 122.477 18.7089 123.332 17.8913C124.207 17.0737 124.644 16.1136 124.644 15.0108C123.827 14.3643 122.686 14.0411 121.222 14.0411C120.157 14.0411 119.264 14.2978 118.541 14.8112C117.838 15.3245 117.486 15.9615 117.486 16.722ZM120.88 6.56888C122.819 6.56888 124.35 7.09175 125.471 8.13748C126.593 9.1642 127.154 10.5807 127.154 12.387V21H124.644V19.0606H124.53C123.447 20.6578 122.002 21.4563 120.195 21.4563C118.655 21.4563 117.362 21 116.317 20.0874C115.29 19.1747 114.776 18.0339 114.776 16.665C114.776 15.2199 115.318 14.0696 116.402 13.214C117.505 12.3584 118.969 11.9306 120.794 11.9306C122.353 11.9306 123.637 12.2158 124.644 12.7862V12.1873C124.644 11.2747 124.283 10.5046 123.561 9.8772C122.838 9.23075 121.992 8.90752 121.022 8.90752C119.558 8.90752 118.399 9.52545 117.543 10.7613L115.233 9.3068C116.507 7.48152 118.389 6.56888 120.88 6.56888ZM136.103 19.0606C137.358 19.0606 138.413 18.5853 139.268 17.6346C140.124 16.703 140.552 15.4956 140.552 14.0126C140.552 12.5486 140.124 11.3412 139.268 10.3906C138.413 9.43989 137.358 8.96456 136.103 8.96456C134.829 8.96456 133.764 9.43989 132.909 10.3906C132.072 11.3412 131.654 12.5486 131.654 14.0126C131.654 15.4956 132.072 16.7125 132.909 17.6632C133.764 18.5948 134.829 19.0606 136.103 19.0606ZM136.531 21.4563C135.504 21.4563 134.563 21.2377 133.707 20.8004C132.87 20.3631 132.224 19.7831 131.768 19.0606H131.654L131.768 21V27.1603H129.144V7.0252H131.654V8.96456H131.768C132.224 8.24205 132.87 7.66215 133.707 7.22484C134.563 6.78753 135.504 6.56888 136.531 6.56888C138.375 6.56888 139.934 7.29139 141.208 8.7364C142.52 10.2004 143.176 11.9592 143.176 14.0126C143.176 16.0851 142.52 17.8438 141.208 19.2888C139.934 20.7338 138.375 21.4563 136.531 21.4563ZM155.279 17.1213C155.279 18.3381 154.747 19.3649 153.682 20.2014C152.617 21.038 151.277 21.4563 149.661 21.4563C148.254 21.4563 147.018 21.0951 145.953 20.3726C144.888 19.631 144.128 18.6614 143.671 17.4635L146.01 16.4653C146.352 17.3019 146.847 17.9579 147.493 18.4332C148.159 18.8895 148.881 19.1177 149.661 19.1177C150.497 19.1177 151.191 18.9371 151.743 18.5758C152.313 18.2145 152.598 17.7867 152.598 17.2924C152.598 16.3988 151.914 15.7428 150.545 15.3245L148.149 14.7256C145.43 14.0411 144.071 12.7292 144.071 10.7898C144.071 9.51595 144.584 8.49873 145.611 7.7382C146.657 6.95865 147.988 6.56888 149.604 6.56888C150.84 6.56888 151.952 6.86359 152.94 7.453C153.948 8.04241 154.652 8.83147 155.051 9.82016L152.712 10.7898C152.446 10.2004 152.009 9.74411 151.4 9.42088C150.811 9.07864 150.146 8.90752 149.404 8.90752C148.72 8.90752 148.102 9.07864 147.55 9.42088C147.018 9.76312 146.752 10.1814 146.752 10.6758C146.752 11.4743 147.503 12.0447 149.005 12.387L151.115 12.9288C153.891 13.6133 155.279 15.0108 155.279 17.1213Z" fill="#9CA09B"/>
</svg>
