<svg width="220" height="100" viewBox="0 0 220 100" fill="none" xmlns="http://www.w3.org/2000/svg">
<mask id="mask0" mask-type="alpha" maskUnits="userSpaceOnUse" x="51" y="18" width="118" height="65">
<path fill-rule="evenodd" clip-rule="evenodd" d="M145.055 52.3908H139.52L138.469 56.6123C137.906 58.9012 138.844 59.8769 140.946 59.8769V68.6575H122.127V59.8394H123.703C125.636 59.8394 126.686 59.0138 127.306 56.2183L133.497 30.8895C134.266 28.0002 133.46 26.8182 131.133 26.8182H128.788V18.0188H145.055H161.321V26.8182H158.976C156.649 26.8182 155.861 28.0002 156.612 30.8895L162.822 56.1995C163.441 59.0138 164.492 59.8206 166.424 59.8206H168V68.6387H149.163V59.8581C151.265 59.8581 152.203 58.8825 151.64 56.5935L150.589 52.3721H145.055V52.3908ZM145.055 29.6325L141.996 42.3156H145.055H148.113L145.055 29.6325Z" fill="#005CA8"/>
<path fill-rule="evenodd" clip-rule="evenodd" d="M51 18.0195H75.5783V26.7626H71.6195C70.2498 26.7626 69.1429 27.8884 69.1429 29.2392V57.326C69.1429 58.6956 70.2686 59.8026 71.6195 59.8026H75.5783V68.5457H51V59.8026H54.9588C56.3284 59.8026 57.4354 58.6768 57.4354 57.326V29.258C57.4354 27.8884 56.3097 26.7814 54.9588 26.7814H51V18.0195Z" fill="#005CA8"/>
<path fill-rule="evenodd" clip-rule="evenodd" d="M115.242 42.991C117.943 40.3456 119.613 36.6682 119.613 32.5781C119.613 24.6605 113.272 18.2064 105.391 18.0188V18H92.971H79.9127V26.7431H83.4962C84.8658 26.7431 85.9728 27.8688 85.9728 29.2197V57.3064C85.9728 58.6761 84.8471 59.783 83.4962 59.783H79.9127V59.8018C79.9127 62.7287 79.9127 65.6555 79.9127 68.6012H92.971H105.391C105.523 68.6012 105.654 68.6012 105.785 68.6012C113.816 68.6012 120.345 62.0908 120.345 54.0419C120.345 49.6328 118.356 45.674 115.242 42.991ZM97.6803 28.5818H104.153C106.63 28.5818 108.637 30.5893 108.637 33.0659C108.637 35.5425 106.63 37.55 104.153 37.55H97.6803V28.5818ZM104.979 57.8881H97.6803V48.9386H104.979C107.455 48.9386 109.463 50.9461 109.463 53.4227C109.463 55.8993 107.455 57.8881 104.979 57.8881Z" fill="#005CA8"/>
<path fill-rule="evenodd" clip-rule="evenodd" d="M61.4504 76.6127V82.5602H59.3116L59.124 81.4908C58.2421 82.3726 57.229 82.8229 56.0845 82.8229C54.5835 82.8229 53.364 82.3163 52.4259 81.3032C51.4878 80.29 51 78.9954 51 77.4007C51 76.5376 51.1313 75.7684 51.394 75.0366C51.6567 74.3237 52.0131 73.7045 52.501 73.1792C52.97 72.6539 53.5329 72.2599 54.1708 71.9784C54.8087 71.697 55.5216 71.5657 56.2909 71.5657C57.2102 71.5657 57.9982 71.7158 58.6924 72.016C59.3679 72.3162 59.9307 72.7664 60.3435 73.3481C60.7563 73.9297 61.0377 74.6426 61.169 75.4494H58.0733C57.7919 74.6051 57.2102 74.1924 56.3097 74.1924C55.6905 74.1924 55.2027 74.455 54.8275 74.9616C54.4522 75.4682 54.2646 76.1436 54.2646 76.9879C54.2646 77.9823 54.471 78.7328 54.865 79.2769C55.259 79.821 55.8218 80.0836 56.5536 80.0836C57.5855 80.0836 58.1859 79.6896 58.3922 78.9204H57.0038V76.5751H61.4504V76.6127ZM81.5821 78.8641V82.5602H78.355V71.8283H83.4958C84.978 71.8283 86.1225 72.091 86.873 72.6539C87.6235 73.198 88.0175 73.986 88.0175 75.0179C88.0175 76.2937 87.4359 77.1568 86.2351 77.6446C86.7979 77.851 87.1732 78.1324 87.3983 78.5076C87.6047 78.8641 87.736 79.3144 87.7736 79.8397C87.8111 80.3651 87.8486 80.8716 87.8861 81.3595C87.9237 81.8473 88.0175 82.2413 88.1863 82.5602H84.8842C84.8092 82.2976 84.7341 81.791 84.6966 81.0593C84.6591 80.3275 84.509 79.7834 84.2651 79.4082C84.0212 79.0517 83.5709 78.8641 82.9142 78.8641H81.5821ZM81.5821 74.455V76.5376H83.3833C84.2838 76.5376 84.7154 76.1811 84.7154 75.4494C84.7154 75.0742 84.6216 74.8115 84.4152 74.6614C84.2088 74.5301 83.8711 74.455 83.3645 74.455H81.5821ZM104.209 77.1755C104.209 76.3312 104.34 75.562 104.603 74.8866C104.866 74.1924 105.222 73.6107 105.691 73.1229C106.16 72.6351 106.723 72.2599 107.399 71.9972C108.074 71.7345 108.825 71.6032 109.631 71.6032C110.476 71.6032 111.226 71.7345 111.902 71.9972C112.577 72.2599 113.14 72.6351 113.628 73.1229C114.097 73.6107 114.472 74.1924 114.735 74.8866C114.997 75.5807 115.129 76.35 115.129 77.1755C115.129 78.2825 114.903 79.2581 114.453 80.1212C114.003 80.9842 113.365 81.6409 112.521 82.1099C111.676 82.579 110.72 82.8229 109.65 82.8229C108.037 82.8229 106.723 82.2976 105.729 81.2656C104.697 80.2337 104.209 78.8641 104.209 77.1755ZM107.436 77.1755C107.436 78.0761 107.643 78.7891 108.037 79.3332C108.431 79.8772 108.956 80.1399 109.613 80.1399C110.288 80.1399 110.813 79.8773 111.207 79.3519C111.601 78.8266 111.789 78.0949 111.789 77.1943C111.789 76.2937 111.601 75.5807 111.207 75.0554C110.813 74.5113 110.288 74.2486 109.613 74.2486C108.975 74.2486 108.449 74.5113 108.037 75.0554C107.643 75.5807 107.436 76.2937 107.436 77.1755ZM141.47 71.8283V78.245C141.47 81.3032 139.838 82.8229 136.555 82.8229C133.271 82.8229 131.639 81.3032 131.639 78.245V71.8283H134.848V78.3575C134.848 79.5395 135.41 80.1399 136.555 80.1399C137.681 80.1399 138.262 79.5395 138.262 78.3575V71.8283H141.47ZM161.696 79.2769V82.5602H158.469V71.8283H163.535C164.266 71.8283 164.81 71.8846 165.204 71.9784C165.58 72.0723 165.955 72.2411 166.33 72.485C166.78 72.804 167.156 73.2355 167.437 73.7984C167.719 74.3612 167.869 74.9616 167.869 75.5995C167.869 76.744 167.512 77.6446 166.799 78.3012C166.086 78.9579 165.092 79.2769 163.835 79.2769H161.696ZM161.696 74.455V76.7815H163.31C163.741 76.7815 164.079 76.6877 164.304 76.4626C164.529 76.2562 164.642 75.956 164.642 75.5807C164.642 75.1867 164.529 74.9053 164.323 74.7365C164.116 74.5488 163.779 74.4738 163.328 74.4738H161.696V74.455Z" fill="#005CA8"/>
</mask>
<g mask="url(#mask0)">
<rect width="220" height="100" fill="white"/>
</g>
</svg>
