<svg width="220" height="100" viewBox="0 0 220 100" fill="none" xmlns="http://www.w3.org/2000/svg">
<mask id="mask0" mask-type="alpha" maskUnits="userSpaceOnUse" x="30" y="35" width="160" height="30">
<path fill-rule="evenodd" clip-rule="evenodd" d="M41.5181 35.0325C40.5158 35.1614 39.9105 35.6236 39.6512 36.4581L39.5654 36.7341L39.5645 38.284C39.5633 40.4747 39.1238 40.2021 42.6569 40.2021C46.2196 40.2021 45.7503 40.5956 45.7503 37.6088C45.7503 35.1052 45.7609 35.2202 45.5164 35.0769C45.4024 35.01 41.9877 34.9722 41.5181 35.0325ZM49.4061 35.0298C49.0281 35.12 49.0436 35.0097 49.0436 37.6088C49.0436 40.6136 48.3574 40.1982 53.3527 40.2175C57.8514 40.2349 57.4882 40.2125 57.629 40.4803L57.6926 40.6011L57.708 52.4014C57.7248 65.3101 57.7095 64.282 57.8875 64.4426C58.0432 64.5831 58.035 64.5827 60.7859 64.5827C63.5369 64.5827 63.5287 64.5831 63.6844 64.4426C63.8623 64.282 63.847 65.3101 63.8638 52.4014L63.8792 40.6011L63.9428 40.4803C64.0838 40.2123 63.7122 40.2349 68.2807 40.2175C73.2652 40.1985 72.6517 40.3902 72.6506 38.8517C72.6491 36.6369 71.9858 35.5747 70.2978 35.0843L70.0659 35.0169L59.7856 35.0115C54.1314 35.0085 49.4607 35.0167 49.4061 35.0298ZM114.72 35.029C114.571 35.0657 114.481 35.136 114.416 35.2664C114.358 35.3812 114.357 35.6996 114.357 49.7928V64.2017L114.422 64.3245C114.56 64.5873 114.359 64.57 117.266 64.57C120.172 64.57 119.972 64.5873 120.11 64.3245L120.174 64.2017L120.192 58.2786C120.21 52.1204 120.215 51.8782 120.345 51.0388C120.745 48.4655 122.135 46.806 124.207 46.4307C127.237 45.8816 129.565 47.9144 129.883 51.3886C129.901 51.5828 129.924 51.8313 129.934 51.9411C129.944 52.0508 129.961 54.8543 129.972 58.1712L129.993 64.2017L130.058 64.3245C130.195 64.586 130.012 64.5689 132.787 64.5786C135.676 64.5887 135.62 64.5958 135.73 64.2003C135.776 64.0368 135.778 51.3344 135.733 50.6521C135.618 48.9296 135.485 48.1325 135.141 47.1074C133.918 43.4607 130.006 40.856 126.242 41.1824C123.912 41.3845 122.254 42.1574 120.985 43.6326C120.177 44.5717 120.196 44.64 120.192 40.6895C120.19 38.0864 120.183 37.576 120.143 37.3494C119.959 36.2982 119.104 35.3861 118.02 35.0865C117.76 35.0147 114.975 34.9662 114.72 35.029ZM149.353 35.0354C147.927 35.2174 147.226 35.8825 146.613 37.6324C143.754 45.7927 140.821 53.9294 137.903 62.0688C137.188 64.0631 137.176 64.1045 137.252 64.2857C137.351 64.5228 137.156 64.5086 140.335 64.5086H143.167L143.305 64.4314C143.501 64.3219 143.592 64.1213 143.903 63.1123C144.255 61.9684 144.613 60.8262 144.967 59.6829C145.277 58.684 145.35 58.5593 145.677 58.4789C145.966 58.408 156.595 58.4514 156.74 58.5241C156.973 58.641 157.036 58.7679 157.374 59.8071C157.767 61.0157 158.177 62.2194 158.557 63.4325C158.932 64.6303 158.591 64.5241 162.063 64.5238C164.968 64.5236 164.947 64.5248 165.083 64.3634C165.233 64.1851 165.283 64.3433 163.815 60.3348C161.024 52.7129 158.246 45.0856 155.478 37.4554C154.626 35.1078 154.644 35.1436 154.312 35.0454C154.135 34.9931 149.753 34.9844 149.353 35.0354ZM180.957 35.0299C180.808 35.0651 180.718 35.1356 180.653 35.2664C180.569 35.4339 180.543 60.3838 180.626 61.0867C180.895 63.3816 181.906 64.2934 184.38 64.4754C185.812 64.5807 186.16 64.5912 187.858 64.5807L189.582 64.57L189.718 64.4933C189.99 64.3397 189.981 64.4061 189.991 62.5138C190.005 59.8194 189.876 59.5849 188.334 59.4904C187.261 59.4247 186.808 59.1624 186.569 58.4693L186.504 58.2786L186.494 53.3068C186.482 47.1714 186.376 47.8431 187.378 47.7355C188.716 47.592 189.741 46.6908 189.952 45.4718C190.033 45.0013 190.005 42.2413 189.917 42.0742C189.786 41.825 189.822 41.8307 188.258 41.8133C186.287 41.7915 186.51 42.0886 186.486 39.4502C186.467 37.1857 186.471 37.2312 186.182 36.6421C185.752 35.7687 184.961 35.1897 184.001 35.0453C183.676 34.9966 181.151 34.9838 180.957 35.0299ZM77.3144 41.2193C71.331 41.9175 68.1733 45.9816 68.1733 52.9845C68.1733 60.2112 71.6292 64.5419 77.7299 64.9602C82.9488 65.3181 87.0887 62.8845 88.6265 58.5548C89.0049 57.4896 89.0892 57.5271 86.3136 57.5268C83.3554 57.5266 83.4671 57.4961 82.3622 58.6048C80.3114 60.6626 76.7523 60.4531 75.2558 58.1865C74.6455 57.2621 74.1669 55.4145 74.4169 54.9482C74.5529 54.6947 73.7788 54.7205 81.7774 54.7032C89.3467 54.6868 88.9622 54.6953 89.1265 54.5418C89.6277 54.0736 89.1916 49.6526 88.4355 47.537C86.8584 43.1241 82.4504 40.6201 77.3144 41.2193ZM100.19 41.2462C95.0224 41.826 91.8524 45.4149 91.353 51.2505C90.5549 60.5777 95.629 66.0647 103.908 64.8268C107.641 64.2686 110.512 61.9806 111.741 58.5855C112.136 57.4943 112.207 57.5267 109.433 57.5279C106.504 57.5291 106.59 57.5054 105.493 58.6161C103.623 60.5096 100.308 60.4946 98.6846 58.5855C96.4164 55.9174 96.676 48.8602 99.1096 47.0317C101.13 45.514 104.103 45.9838 105.51 48.0429C105.945 48.6792 105.649 48.6262 108.771 48.6262C112.032 48.6262 111.927 48.6577 111.622 47.7754C110.312 43.9874 107.663 41.8577 103.551 41.2878C102.924 41.2009 100.825 41.1749 100.19 41.2462ZM151.303 41.5639C151.408 41.677 151.406 41.6727 152.14 43.9003C152.483 44.9384 153.05 46.6578 153.402 47.7212C155.345 53.5916 155.216 53.145 155.022 53.3378C154.866 53.4939 147.625 53.5582 147.345 53.406C147.071 53.2566 147.081 53.1855 147.58 51.6802C147.815 50.9713 148.377 49.2657 148.83 47.89C151.125 40.9127 150.999 41.2353 151.303 41.5639ZM177.501 41.7258C176.513 41.7908 176.216 41.8169 175.805 41.8754C169.769 42.7322 166.639 46.0632 166.159 52.1406C166.117 52.6747 166.112 53.4929 166.119 58.4474L166.128 64.1404L166.192 64.2631C166.331 64.5265 166.118 64.5086 169.129 64.5086C172.14 64.5086 171.927 64.5265 172.065 64.2631L172.13 64.1404L172.147 57.9256C172.166 51.2328 172.158 51.5733 172.319 50.9306C172.881 48.6766 174.28 47.8263 177.516 47.7716C179.221 47.7428 179.022 48.1328 179.033 44.7955C179.044 41.3553 179.173 41.6157 177.501 41.7258ZM31.6643 42.8413C30.835 43.0081 30.3042 43.5163 30.0923 44.3465C29.9863 44.7613 29.9815 48.5954 30.0866 48.7953C30.2254 49.0593 29.9959 49.0409 33.1461 49.0409C36.7594 49.0409 36.2702 49.5286 36.2702 45.9258C36.2702 42.8324 36.2844 43.0175 36.0364 42.8721C35.901 42.7928 32.0407 42.7656 31.6643 42.8413ZM39.8714 42.8411C39.7214 42.8946 39.6224 43.0029 39.5799 43.1603C39.5581 43.2413 39.5504 46.5698 39.5558 53.7095L39.5636 64.1404L39.6282 64.2631C39.7669 64.5269 39.5415 64.5086 42.6569 64.5086C45.7724 64.5086 45.547 64.5269 45.6857 64.2631L45.7503 64.1404V53.6597V43.179L45.6857 43.0563C45.5474 42.7932 45.7649 42.8117 42.7031 42.804C40.4209 42.7983 39.9751 42.8042 39.8714 42.8411ZM79.4443 46.2172C81.3679 46.4706 82.4908 47.5801 82.9186 49.6501C83.0614 50.3416 83.0328 50.5703 82.7867 50.7043C82.6271 50.7912 74.7748 50.7899 74.5995 50.7029C74.34 50.5743 74.3026 50.2547 74.464 49.5472C74.8983 47.6439 76.2135 46.4405 78.13 46.1925C78.3685 46.1616 79.1315 46.1759 79.4443 46.2172ZM30.3845 58.4154C30.0008 58.5078 30.0221 58.3296 30.0221 61.455C30.0221 64.9854 29.5343 64.5086 33.1461 64.5086C36.758 64.5086 36.2702 64.9854 36.2702 61.455C36.2702 58.431 36.2841 58.6079 36.0364 58.4627C35.9259 58.3979 30.6406 58.3537 30.3845 58.4154Z" fill="black"/>
</mask>
<g mask="url(#mask0)">
<rect width="220" height="100" fill="white"/>
</g>
</svg>
