<svg width="220" height="100" viewBox="0 0 220 100" fill="none" xmlns="http://www.w3.org/2000/svg">
<mask id="mask0" mask-type="alpha" maskUnits="userSpaceOnUse" x="9" y="35" width="203" height="30">
<g clip-path="url(#clip0)">
<path d="M31.5033 35C15.5992 35 9.01491 41.882 9.01491 55.4581L9 64.9926L20.3584 65C36.2624 65 42.8467 58.1178 42.8467 44.5381L42.8916 35H31.5033ZM31.482 42.4629L35.4574 42.4859L35.4478 44.5381C35.4478 51.6503 33.2444 53.7225 32.5204 54.4033C30.3123 56.4805 26.2272 57.5348 20.3788 57.5371L16.4088 57.5146L16.4139 55.4581C16.4139 48.3488 18.6167 46.2773 19.341 45.5965C21.5491 43.5195 25.6339 42.4654 31.482 42.4629Z" fill="white"/>
<path fill-rule="evenodd" clip-rule="evenodd" d="M190.739 48.4656C191.167 49.5879 191.301 50.757 191.305 51.9475C191.306 52.1789 191.306 52.4101 191.306 52.6412L191.305 52.9385L191.34 52.9404C191.327 53.1922 191.319 53.4444 191.31 53.6966C191.29 54.2626 191.27 54.8289 191.215 55.3914C191.062 56.9321 190.515 58.3267 189.535 59.5367C188.39 60.9504 186.886 61.7567 185.124 62.1166C183.374 62.4739 181.641 62.3895 179.954 61.8107C178.069 61.1644 176.654 59.956 175.776 58.1422C175.131 56.8105 174.916 55.3961 174.924 53.9347C174.925 53.6632 174.924 53.3917 174.924 53.1201C174.922 52.4624 174.92 51.8045 174.949 51.1481C175.029 49.2819 175.59 47.5806 176.819 46.1433C177.661 45.158 178.724 44.4865 179.947 44.0734C181.775 43.4563 183.637 43.3842 185.501 43.849C188.03 44.4802 189.8 46.0101 190.739 48.4656ZM186.762 57.2317C187.229 56.458 187.41 55.5957 187.447 54.71C187.487 53.7414 187.494 52.77 187.469 51.8009C187.454 51.206 187.391 50.6059 187.281 50.021C187.075 48.9326 186.53 48.0406 185.615 47.3871C185.026 46.9666 184.362 46.7649 183.655 46.6965C182.735 46.6075 181.836 46.702 181.009 47.1458C179.639 47.8816 179.012 49.1124 178.837 50.5937C178.774 51.128 178.759 51.668 178.744 52.2081C178.736 52.4525 178.73 52.697 178.719 52.9409C178.729 52.9411 178.74 52.9419 178.75 52.9421C178.75 53.0581 178.75 53.1741 178.75 53.2902C178.749 53.5457 178.747 53.8014 178.751 54.0567C178.764 55.0605 178.861 56.0469 179.319 56.9656C179.75 57.8325 180.402 58.4617 181.294 58.8385C182.081 59.171 182.904 59.2362 183.744 59.142C185.057 58.9946 186.076 58.37 186.762 57.2317Z" fill="white"/>
<path fill-rule="evenodd" clip-rule="evenodd" d="M100.686 45.1262C101.434 45.8017 101.872 46.6636 102.136 47.6246C102.419 48.6555 102.497 49.7108 102.499 50.7721C102.503 53.3625 102.502 55.9529 102.502 58.5434C102.502 59.58 102.501 60.6166 102.502 61.6531V61.8119H98.7332V59.962C98.7178 59.9585 98.7023 59.9548 98.687 59.9506C98.6417 60.0074 98.5975 60.0649 98.5531 60.1225C98.4573 60.247 98.3613 60.3719 98.2556 60.4874C97.3176 61.5131 96.1303 62.0499 94.7708 62.2316C93.5307 62.3976 92.2981 62.3556 91.0858 62.0301C89.7533 61.6724 88.7096 60.9348 88.0926 59.6681C87.8126 59.0935 87.6556 58.4806 87.6043 57.8451C87.5346 56.9834 87.5677 56.126 87.7941 55.2858C88.1275 54.0475 88.8393 53.1089 89.9928 52.5145C90.9503 52.0215 91.9756 51.7749 93.0362 51.6761C93.7953 51.6053 94.5598 51.571 95.3225 51.5568C96.0611 51.5431 96.8 51.5461 97.5387 51.5491C97.8528 51.5505 98.1672 51.5518 98.4812 51.5518H98.7253C98.7325 50.668 98.7243 49.8179 98.4831 48.9991C98.197 48.0288 97.5098 47.4478 96.556 47.16C95.8903 46.9591 95.2075 46.9075 94.5168 46.9014C93.5702 46.8931 92.636 46.979 91.7198 47.2312C91.0232 47.4233 90.3851 47.7238 89.7852 48.0953L88.5698 45.5368C88.5871 45.4598 88.6232 45.3999 88.6962 45.3438C90.044 44.3125 91.5877 43.8146 93.2571 43.6511C94.8193 43.4985 96.3762 43.5154 97.9211 43.8215C98.9488 44.0251 99.8972 44.4156 100.686 45.1262ZM95.9552 59.12C97.1326 58.8066 97.939 58.0571 98.4112 56.9503C98.7602 56.1323 98.7486 55.2625 98.7213 54.3716L98.6916 54.3695L98.6531 54.3663C98.6182 54.3631 98.5886 54.3605 98.5588 54.3605C98.2367 54.3606 97.9145 54.3603 97.5923 54.3599C96.7798 54.3589 95.9673 54.3579 95.155 54.3644C94.4397 54.3701 93.7246 54.3956 93.0246 54.5668C92.3595 54.7295 91.7737 55.0093 91.4897 55.6865C91.3037 56.1303 91.2557 56.6021 91.2718 57.0808C91.3105 58.2338 91.8591 58.9209 92.9791 59.2001C93.9771 59.449 94.9712 59.3816 95.9552 59.12Z" fill="white"/>
<path d="M211.163 51.1186C211.163 50.6647 211.154 50.2096 211.119 49.7573C211.019 48.4541 210.731 47.2016 210.034 46.0738C209.41 45.0668 208.54 44.3612 207.42 43.9683C206.553 43.6643 205.653 43.5601 204.741 43.5581C203.995 43.5564 203.256 43.6403 202.541 43.8609C201.23 44.2657 200.178 45.042 199.344 46.1246C199.323 46.1519 199.31 46.1851 199.296 46.2185C199.29 46.2338 199.284 46.2492 199.276 46.2641C199.251 46.2469 199.226 46.23 199.201 46.2126V44.0294H195.453V61.8219H199.209V59.0849C199.209 56.6381 199.208 54.1911 199.209 51.7443C199.209 51.1779 199.269 50.6206 199.429 50.0732C199.713 49.1019 200.228 48.2941 201.075 47.7256C202.106 47.0333 203.249 46.8297 204.448 47.1016C205.745 47.396 206.659 48.1703 207.093 49.4558C207.341 50.1889 207.398 50.9498 207.399 51.7152C207.4 54.0972 207.4 56.4789 207.4 58.8608V61.8177H211.165V59.1232C211.165 56.4549 211.165 53.7868 211.163 51.1186Z" fill="white"/>
<path d="M121.672 46.1262C122.292 47.1562 122.596 48.2858 122.694 49.4695C122.757 50.2361 122.77 51.0086 122.772 51.7786C122.778 54.1604 122.777 56.542 122.776 58.9236C122.775 59.7975 122.775 60.6714 122.775 61.5453V61.8179H119.003V61.5458C119.003 60.7116 119.004 59.8775 119.004 59.0434C119.006 56.6151 119.008 54.187 118.995 51.7588C118.993 51.1505 118.936 50.5344 118.826 49.9363C118.479 48.0571 116.883 46.9831 115.119 46.9967C113.858 47.0066 112.778 47.4405 111.932 48.3911C111.332 49.0649 111.025 49.8773 110.893 50.757C110.842 51.1024 110.816 51.4553 110.815 51.8048C110.811 54.2919 110.811 56.7791 110.812 59.2664L110.812 61.8129H107.062V44.0295H110.801V46.2836C110.825 46.2578 110.846 46.237 110.863 46.219C110.895 46.1871 110.917 46.164 110.937 46.1388C111.611 45.2495 112.456 44.5728 113.472 44.1106C114.176 43.7907 114.924 43.638 115.688 43.5832C116.597 43.518 117.503 43.5695 118.394 43.7821C119.806 44.1182 120.917 44.8702 121.672 46.1262Z" fill="white"/>
<path d="M72.2049 58.8453C72.1736 58.8497 72.1472 58.8532 72.1212 58.8587C71.2878 59.0363 70.4452 59.0863 69.5972 59.0239C68.3928 58.9347 67.7463 58.3662 67.5487 57.1754C67.4641 56.6622 67.4213 56.1363 67.4191 55.6159C67.4096 53.4783 67.4111 51.3406 67.4127 49.2029C67.4132 48.5672 67.4136 47.9313 67.4138 47.2956C67.4138 47.2478 67.4171 47.1998 67.4209 47.1452L67.4252 47.0809L67.4267 47.0553H71.9041V44.0162H67.4072V38.7114H63.6533L63.6538 41.6802C63.6546 46.1043 63.6561 53.8263 63.6541 56.0008C63.6528 57.2087 63.7948 58.3892 64.3034 59.5008C64.9494 60.9117 66.0426 61.7767 67.5487 62.1173C69.0679 62.4609 70.5824 62.3481 72.0929 62.0394C72.2377 62.0099 72.2773 61.9526 72.2763 61.8086C72.2716 61.1528 72.2719 60.4971 72.2722 59.8414V59.8391C72.2724 59.5663 72.2726 59.2938 72.2723 59.0212C72.2723 58.9821 72.2691 58.9428 72.2656 58.9013C72.2638 58.8807 72.2621 58.8594 72.2607 58.8374C72.2402 58.8406 72.2218 58.8431 72.2049 58.8453Z" fill="white"/>
<path d="M158.475 57.6387C158.687 58.4336 159.27 58.8531 160.064 58.9758C161.012 59.1227 161.956 59.0515 162.894 58.8655C162.93 58.8583 162.966 58.8522 163.006 58.8453L163.07 58.8346V62.0061C162.967 62.025 162.865 62.0455 162.761 62.0661C162.529 62.1121 162.292 62.1588 162.055 62.1916C161.05 62.3307 160.042 62.3848 159.032 62.2416C157.836 62.0717 156.751 61.6675 155.922 60.7443C155.25 59.9937 154.834 59.1027 154.671 58.1151C154.555 57.4126 154.474 56.6957 154.469 55.9846C154.45 53.5457 154.454 44.1008 154.456 40.2036V38.7139H158.226V44.0159H162.706V47.0625H158.249C158.246 47.0885 158.244 47.1124 158.241 47.135C158.236 47.1795 158.231 47.2186 158.231 47.2579C158.232 47.9458 158.232 48.634 158.232 49.322C158.234 51.6001 158.234 53.8782 158.252 56.1561C158.256 56.6515 158.347 57.1578 158.475 57.6387Z" fill="white"/>
<path d="M79.9747 46.6757V44.0347H76.2314V61.8179H79.9754L79.9751 59.8487C79.9747 58.4517 79.9742 57.0547 79.9764 55.6577C79.9769 55.3622 79.9753 55.0667 79.9737 54.7711C79.9693 53.9444 79.9648 53.1176 80.0056 52.2931C80.0796 50.8017 80.5908 49.4737 81.6863 48.4128C82.4672 47.657 83.3923 47.2183 84.4866 47.1703C84.7102 47.1604 84.9346 47.163 85.1629 47.1656C85.2687 47.1668 85.3754 47.168 85.4832 47.168V43.5659C83.0534 43.5589 81.3292 44.7628 79.9747 46.6757Z" fill="white"/>
<path d="M148.697 61.8223H144.952V44.0353H148.697V61.8223Z" fill="white"/>
<path d="M167.037 61.8137H170.777V44.03H167.037V61.8137Z" fill="white"/>
<path d="M57.8917 61.814H54.1562V44.0298H57.8917V61.814Z" fill="white"/>
<path d="M141.029 55.6382C140.91 54.5657 140.507 53.6203 139.737 52.8486C139.011 52.1206 138.107 51.7068 137.115 51.5532C136.182 51.4088 135.242 51.3104 134.302 51.2122C133.922 51.1724 133.543 51.1327 133.163 51.0901L133.104 51.0833C132.496 51.0151 131.892 50.9472 131.321 50.6842C130.021 50.0849 130.052 48.7331 130.553 47.9324C130.944 47.3073 131.584 47.0427 132.267 46.883C133.326 46.6356 134.399 46.6522 135.466 46.8064C136.644 46.9762 137.784 47.2701 138.869 47.7301L140.209 44.9088L140.215 44.8969C140.194 44.8649 140.167 44.8373 140.141 44.8254C140.054 44.787 139.967 44.7479 139.881 44.7088C139.554 44.561 139.226 44.413 138.887 44.2993C137.094 43.6979 135.242 43.4757 133.358 43.5407C131.787 43.5948 130.285 43.9218 128.957 44.8146C128.052 45.4236 127.357 46.2168 126.974 47.2547C126.585 48.3089 126.605 49.3888 126.825 50.4683C127.057 51.6088 127.658 52.5186 128.616 53.1892C129.243 53.6277 129.942 53.9077 130.688 54.0161C131.712 54.1651 132.742 54.2733 133.772 54.3814L134.271 54.4341C134.889 54.4993 135.5 54.5711 136.084 54.8026C136.809 55.0898 137.297 55.5721 137.411 56.3703C137.521 57.1537 137.365 57.8557 136.724 58.3776C136.309 58.7149 135.804 58.8701 135.292 58.9846C133.793 59.3204 132.295 59.2191 130.81 58.9022C129.823 58.6914 128.873 58.3654 127.949 57.9679L127.946 57.9771L126.944 60.7924C126.954 60.8553 127.016 60.9334 127.073 60.9644C127.841 61.3832 128.681 61.6038 129.524 61.8037C131.503 62.2733 133.495 62.4522 135.517 62.0802C137.001 61.8073 138.365 61.2887 139.481 60.2394C139.99 59.7608 140.407 59.2044 140.684 58.5557C141.082 57.6179 141.14 56.6362 141.029 55.6382Z" fill="white"/>
<path d="M57.9605 40.6406H54.0562V36.7333H57.9605V40.6406Z" fill="white"/>
<path d="M144.857 40.6354H148.766V36.7247H144.857V40.6354Z" fill="white"/>
<path d="M170.843 40.6388H166.942V36.7347H170.843V40.6388Z" fill="white"/>
</g>
</mask>
<g mask="url(#mask0)">
<rect width="220" height="100" fill="white"/>
</g>
<defs>
<clipPath id="clip0">
<rect width="202.5" height="30" fill="white" transform="translate(9 35)"/>
</clipPath>
</defs>
</svg>
