<svg width="182" height="30" viewBox="0 0 182 30" fill="none" xmlns="http://www.w3.org/2000/svg">
<path d="M6.94379 18C8.31659 18 9.52178 17.72 10.5594 17.16C11.6049 16.6 12.419 15.812 13.0017 14.796C13.5923 13.78 13.8876 12.588 13.8876 11.22V0.36H10.9664V11.148C10.9664 12.004 10.7788 12.74 10.4037 13.356C10.0366 13.972 9.54572 14.448 8.93115 14.784C8.32457 15.112 7.66212 15.276 6.94379 15.276C6.24941 15.276 5.59494 15.112 4.98038 14.784C4.36581 14.456 3.86697 13.984 3.48387 13.368C3.10874 12.752 2.92118 12.012 2.92118 11.148V0.36L0 0.383999V11.22C0 12.588 0.29132 13.78 0.87396 14.796C1.46458 15.812 2.28267 16.6 3.32823 17.16C4.37379 17.72 5.57898 18 6.94379 18Z" fill="white"/>
<path d="M15.3177 17.64H18.8734L22.9439 11.364L27.0024 17.64H30.5342L24.7157 8.904L30.3905 0.36H26.8348L22.9439 6.444L19.017 0.36H15.4853L21.16 8.904L15.3177 17.64Z" fill="white"/>
<path d="M36.28 17.64H38.9857V6.564L44.2654 17.64H45.4147L50.7063 6.564V17.64H53.4V0.36H50.8021L44.84 12.6L38.8779 0.36H36.28V17.64Z" fill="white"/>
<path d="M56.524 17.64H59.4093V0.36H56.524V17.64Z" fill="white"/>
<path d="M62.5166 17.64H65.4378V5.46L73.4351 17.64H76.3563V0.36H73.4351V12.54L65.4378 0.36H62.5166V17.64Z" fill="white"/>
<path d="M79.2241 17.64H84.7193C84.855 17.64 85.1383 17.636 85.5693 17.628C86.0083 17.62 86.4233 17.592 86.8144 17.544C88.1872 17.368 89.3445 16.884 90.2863 16.092C91.2281 15.292 91.9425 14.276 92.4293 13.044C92.9162 11.812 93.1596 10.464 93.1596 9C93.1596 7.536 92.9162 6.188 92.4293 4.956C91.9425 3.724 91.2281 2.708 90.2863 1.908C89.3445 1.108 88.1872 0.624 86.8144 0.456C86.4154 0.408 86.0003 0.38 85.5693 0.372C85.1463 0.364 84.863 0.36 84.7193 0.36H79.2241V17.64ZM82.1573 14.916V3.084H84.7193C84.9588 3.084 85.2621 3.092 85.6292 3.108C85.9963 3.116 86.3276 3.152 86.6229 3.216C87.421 3.368 88.0755 3.724 88.5863 4.284C89.0971 4.844 89.4762 5.536 89.7236 6.36C89.979 7.176 90.1067 8.056 90.1067 9C90.1067 9.904 89.987 10.768 89.7476 11.592C89.5081 12.416 89.129 13.116 88.6102 13.692C88.0994 14.26 87.437 14.624 86.6229 14.784C86.3276 14.84 85.9963 14.876 85.6292 14.892C85.2621 14.908 84.9588 14.916 84.7193 14.916H82.1573Z" fill="white"/>
<path d="M105.811 18C107.017 18 108.09 17.8 109.032 17.4C109.982 17 110.732 16.424 111.283 15.672C111.833 14.912 112.109 13.996 112.109 12.924C112.109 12.108 111.957 11.432 111.654 10.896C111.359 10.352 110.983 9.916 110.528 9.588C110.081 9.252 109.623 8.996 109.152 8.82C108.681 8.636 108.27 8.496 107.919 8.4L104.542 7.404C104.095 7.276 103.633 7.112 103.154 6.912C102.683 6.712 102.284 6.436 101.956 6.084C101.637 5.732 101.478 5.264 101.478 4.68C101.478 4.104 101.653 3.592 102.004 3.144C102.356 2.688 102.834 2.332 103.441 2.076C104.048 1.812 104.734 1.684 105.5 1.692C106.705 1.7 107.739 2.04 108.601 2.712C109.471 3.376 109.994 4.268 110.169 5.388L112.013 5.052C111.734 3.5 111.011 2.276 109.846 1.38C108.681 0.476 107.236 0.0199995 105.512 0.0119991C104.379 0.00399971 103.369 0.196 102.483 0.587999C101.597 0.972 100.899 1.52 100.388 2.232C99.8773 2.936 99.6219 3.776 99.6219 4.752C99.6219 5.912 99.9691 6.816 100.663 7.464C101.366 8.104 102.244 8.58 103.297 8.892L107.667 10.2C108.066 10.32 108.469 10.484 108.876 10.692C109.283 10.9 109.623 11.188 109.894 11.556C110.173 11.924 110.313 12.404 110.313 12.996C110.313 13.676 110.121 14.264 109.738 14.76C109.355 15.256 108.828 15.64 108.158 15.912C107.496 16.176 106.737 16.308 105.883 16.308C104.598 16.308 103.493 15.992 102.567 15.36C101.641 14.72 101.035 13.84 100.747 12.72L98.9515 13.02C99.151 14.044 99.562 14.928 100.185 15.672C100.807 16.416 101.597 16.992 102.555 17.4C103.521 17.8 104.606 18 105.811 18Z" fill="white"/>
<path d="M119.465 18C120.75 18 121.851 17.7 122.769 17.1C123.695 16.492 124.401 15.612 124.888 14.46L123.116 13.932C122.462 15.516 121.244 16.308 119.465 16.308C118.076 16.308 117.03 15.84 116.328 14.904C115.626 13.96 115.266 12.712 115.25 11.16C115.266 9.648 115.614 8.412 116.292 7.452C116.978 6.492 118.036 6.012 119.465 6.012C120.311 6.012 121.061 6.228 121.715 6.66C122.378 7.084 122.861 7.684 123.164 8.46L124.888 7.908C124.529 6.796 123.862 5.92 122.889 5.28C121.923 4.64 120.786 4.32 119.477 4.32C118.192 4.32 117.098 4.608 116.196 5.184C115.294 5.752 114.604 6.552 114.125 7.584C113.646 8.608 113.399 9.8 113.383 11.16C113.399 12.488 113.638 13.668 114.101 14.7C114.572 15.732 115.258 16.54 116.16 17.124C117.062 17.708 118.164 18 119.465 18Z" fill="white"/>
<path d="M126.868 17.64H128.64V10.728C128.64 9.264 128.968 8.116 129.622 7.284C130.276 6.452 131.226 6.036 132.471 6.036C133.373 6.036 134.1 6.256 134.65 6.696C135.201 7.128 135.6 7.72 135.847 8.472C136.095 9.224 136.219 10.076 136.219 11.028V17.64H137.99V10.512C137.99 9.784 137.899 9.056 137.715 8.328C137.54 7.6 137.252 6.936 136.853 6.336C136.454 5.736 135.923 5.256 135.261 4.896C134.598 4.536 133.78 4.356 132.807 4.356C131.881 4.356 131.043 4.536 130.292 4.896C129.55 5.248 128.94 5.776 128.461 6.48V0.36H126.868V17.64Z" fill="white"/>
<path d="M146.018 18C147.295 18 148.388 17.712 149.298 17.136C150.216 16.56 150.918 15.76 151.405 14.736C151.9 13.704 152.147 12.508 152.147 11.148C152.147 9.812 151.904 8.632 151.417 7.608C150.938 6.576 150.24 5.772 149.322 5.196C148.412 4.612 147.311 4.32 146.018 4.32C144.757 4.32 143.667 4.608 142.749 5.184C141.839 5.752 141.137 6.548 140.642 7.572C140.147 8.596 139.9 9.788 139.9 11.148C139.9 12.484 140.139 13.668 140.618 14.7C141.105 15.732 141.804 16.54 142.713 17.124C143.631 17.708 144.733 18 146.018 18ZM146.018 16.308C144.621 16.308 143.563 15.84 142.845 14.904C142.127 13.96 141.768 12.708 141.768 11.148C141.768 9.636 142.115 8.404 142.809 7.452C143.504 6.492 144.573 6.012 146.018 6.012C147.446 6.012 148.512 6.48 149.214 7.416C149.925 8.344 150.28 9.588 150.28 11.148C150.28 12.676 149.929 13.92 149.226 14.88C148.524 15.832 147.454 16.308 146.018 16.308Z" fill="white"/>
<path d="M159.709 18C160.986 18 162.079 17.712 162.989 17.136C163.907 16.56 164.609 15.76 165.096 14.736C165.591 13.704 165.839 12.508 165.839 11.148C165.839 9.812 165.595 8.632 165.108 7.608C164.629 6.576 163.931 5.772 163.013 5.196C162.103 4.612 161.002 4.32 159.709 4.32C158.448 4.32 157.358 4.608 156.441 5.184C155.531 5.752 154.828 6.548 154.333 7.572C153.839 8.596 153.591 9.788 153.591 11.148C153.591 12.484 153.831 13.668 154.31 14.7C154.796 15.732 155.495 16.54 156.405 17.124C157.322 17.708 158.424 18 159.709 18ZM159.709 16.308C158.312 16.308 157.255 15.84 156.536 14.904C155.818 13.96 155.459 12.708 155.459 11.148C155.459 9.636 155.806 8.404 156.5 7.452C157.195 6.492 158.264 6.012 159.709 6.012C161.138 6.012 162.203 6.48 162.905 7.416C163.616 8.344 163.971 9.588 163.971 11.148C163.971 12.676 163.62 13.92 162.917 14.88C162.215 15.832 161.146 16.308 159.709 16.308Z" fill="white"/>
<path d="M168.24 17.64H170V0H168.24V17.64Z" fill="white"/>
<path d="M0 29.88H7.06973V24.12H6.13422V29.092H4.00039V24.12H3.06934V29.092H0.931048V24.12H0V29.88Z" fill="white"/>
<path d="M10.1889 29.88H11.12V27.128L13.9799 29.88H15.1738L12.1267 26.932L14.9644 24.12H13.8062L11.12 26.808V24.12H10.1889V29.88Z" fill="white"/>
<path d="M20.0273 30C20.6688 30 21.2152 29.8733 21.6666 29.62C22.118 29.3667 22.4625 29.016 22.7001 28.568C22.9377 28.1173 23.0565 27.5947 23.0565 27C23.0565 26.4053 22.9377 25.884 22.7001 25.436C22.4625 24.9853 22.118 24.6333 21.6666 24.38C21.2152 24.1267 20.6688 24 20.0273 24C19.3858 24 18.8393 24.1267 18.3879 24.38C17.9365 24.6333 17.5905 24.9853 17.35 25.436C17.1124 25.884 16.9936 26.4053 16.9936 27C16.9936 27.5947 17.1124 28.1173 17.35 28.568C17.5905 29.016 17.9365 29.3667 18.3879 29.62C18.8393 29.8733 19.3858 30 20.0273 30ZM20.0273 29.204C19.3472 29.1987 18.8349 28.9947 18.4904 28.592C18.1488 28.1893 17.9796 27.6587 17.9825 27C17.9855 26.56 18.0612 26.1747 18.2097 25.844C18.3612 25.5107 18.5884 25.252 18.8913 25.068C19.1942 24.8813 19.5729 24.7907 20.0273 24.796C20.7103 24.7987 21.2211 25.0013 21.5597 25.404C21.8983 25.8067 22.0676 26.3387 22.0676 27C22.0676 27.44 21.9918 27.8267 21.8404 28.16C21.6919 28.4907 21.4662 28.748 21.1632 28.932C20.8603 29.116 20.4817 29.2067 20.0273 29.204Z" fill="white"/>
<path d="M25.1966 29.88C25.5233 29.944 25.7921 29.9507 26.0029 29.9C26.2138 29.8493 26.3846 29.752 26.5152 29.608C26.6459 29.464 26.7498 29.2827 26.8271 29.064C26.9043 28.8453 26.9696 28.6 27.0231 28.328C27.1092 27.904 27.1775 27.4853 27.228 27.072C27.2785 26.656 27.3186 26.2627 27.3483 25.892C27.378 25.5213 27.4032 25.1933 27.424 24.908H29.8296V29.88H30.7606V24.12H26.5509C26.533 24.4773 26.5093 24.8747 26.4796 25.312C26.4499 25.7467 26.4083 26.1947 26.3549 26.656C26.3014 27.1147 26.2316 27.5587 26.1455 27.988C26.0831 28.324 26.0163 28.58 25.945 28.756C25.8767 28.9293 25.7846 29.0453 25.6688 29.104C25.556 29.16 25.3986 29.18 25.1966 29.164V29.88Z" fill="white"/>
<path d="M33.4366 29.88H34.4032L34.871 28.58H37.5038L37.9804 29.88H38.9471L36.8623 24.12H35.5214L33.4366 29.88ZM35.1561 27.796L36.1807 24.956L37.2187 27.796H35.1561Z" fill="white"/>
<path d="M45.272 29.88H46.203V24.908H49.4417V29.88H50.3727V24.12H45.272V29.88Z" fill="white"/>
<path d="M53.4945 29.88H54.4256V27.812H56.0872C56.1466 27.812 56.2223 27.8093 56.3144 27.804C56.4094 27.7987 56.4985 27.7907 56.5817 27.78C57.1162 27.7027 57.5172 27.4973 57.7845 27.164C58.0547 26.8307 58.1898 26.4307 58.1898 25.964C58.1898 25.4973 58.0562 25.0973 57.7889 24.764C57.5216 24.4307 57.1192 24.2267 56.5817 24.152C56.4985 24.1387 56.4109 24.1307 56.3188 24.128C56.2268 24.1227 56.1496 24.12 56.0872 24.12H53.4945V29.88ZM54.4256 27.02V24.908H56.0516C56.111 24.908 56.1763 24.9107 56.2476 24.916C56.3218 24.9213 56.3916 24.932 56.4569 24.948C56.7421 25.0067 56.944 25.1373 57.0628 25.34C57.1816 25.5427 57.241 25.7507 57.241 25.964C57.241 26.1747 57.1816 26.3827 57.0628 26.588C56.944 26.7907 56.7421 26.9227 56.4569 26.984C56.3916 26.9973 56.3218 27.0067 56.2476 27.012C56.1763 27.0173 56.111 27.02 56.0516 27.02H54.4256Z" fill="white"/>
<path d="M63.6287 30C64.2702 30 64.8167 29.8733 65.2681 29.62C65.7195 29.3667 66.064 29.016 66.3016 28.568C66.5392 28.1173 66.658 27.5947 66.658 27C66.658 26.4053 66.5392 25.884 66.3016 25.436C66.064 24.9853 65.7195 24.6333 65.2681 24.38C64.8167 24.1267 64.2702 24 63.6287 24C62.9872 24 62.4408 24.1267 61.9894 24.38C61.5379 24.6333 61.1919 24.9853 60.9514 25.436C60.7138 25.884 60.595 26.4053 60.595 27C60.595 27.5947 60.7138 28.1173 60.9514 28.568C61.1919 29.016 61.5379 29.3667 61.9894 29.62C62.4408 29.8733 62.9872 30 63.6287 30ZM63.6287 29.204C62.9486 29.1987 62.4363 28.9947 62.0918 28.592C61.7503 28.1893 61.581 27.6587 61.584 27C61.5869 26.56 61.6627 26.1747 61.8112 25.844C61.9626 25.5107 62.1898 25.252 62.4927 25.068C62.7957 24.8813 63.1743 24.7907 63.6287 24.796C64.3118 24.7987 64.8226 25.0013 65.1611 25.404C65.4997 25.8067 65.669 26.3387 65.669 27C65.669 27.44 65.5933 27.8267 65.4418 28.16C65.2933 28.4907 65.0676 28.748 64.7647 28.932C64.4618 29.116 64.0831 29.2067 63.6287 29.204Z" fill="white"/>
<path d="M69.4175 29.88H70.3486V24.908H73.5159V24.12H69.4175V29.88Z" fill="white"/>
<path d="M76.1001 29.88H77.0311V27.812H78.6927C78.7521 27.812 78.8279 27.8093 78.9199 27.804C79.015 27.7987 79.1041 27.7907 79.1872 27.78C79.7218 27.7027 80.1227 27.4973 80.39 27.164C80.6603 26.8307 80.7954 26.4307 80.7954 25.964C80.7954 25.4973 80.6617 25.0973 80.3945 24.764C80.1272 24.4307 79.7248 24.2267 79.1872 24.152C79.1041 24.1387 79.0164 24.1307 78.9244 24.128C78.8323 24.1227 78.7551 24.12 78.6927 24.12H76.1001V29.88ZM77.0311 27.02V24.908H78.6571C78.7165 24.908 78.7818 24.9107 78.8531 24.916C78.9274 24.9213 78.9971 24.932 79.0625 24.948C79.3476 25.0067 79.5495 25.1373 79.6683 25.34C79.7871 25.5427 79.8465 25.7507 79.8465 25.964C79.8465 26.1747 79.7871 26.3827 79.6683 26.588C79.5495 26.7907 79.3476 26.9227 79.0625 26.984C78.9971 26.9973 78.9274 27.0067 78.8531 27.012C78.7818 27.0173 78.7165 27.02 78.6571 27.02H77.0311Z" fill="white"/>
<path d="M82.7547 29.88H83.7214L84.1892 28.58H86.8219L87.2986 29.88H88.2653L86.1804 24.12H84.8396L82.7547 29.88ZM84.4743 27.796L85.4989 24.956L86.5368 27.796H84.4743Z" fill="white"/>
<path d="M90.9355 29.88H91.8131V25.936L93.889 29.88H94.3122L96.3837 25.936V29.876H97.2657V24.12H96.4149L94.1028 28.452L91.7775 24.12H90.9355V29.88Z" fill="white"/>
<path d="M100.385 29.88H101.262V25.936L103.338 29.88H103.762L105.833 25.936V29.876H106.715V24.12H105.864L103.552 28.452L101.227 24.12H100.385V29.88Z" fill="white"/>
<path d="M114.881 29.88H113.937V25.596L110.779 29.88H109.834V24.12H110.779V28.4L113.937 24.12H114.881V29.88Z" fill="white"/>
<path d="M117.996 29.88H118.927V27.812H120.588C120.648 27.812 120.724 27.8093 120.816 27.804C120.911 27.7987 121 27.7907 121.083 27.78C121.618 27.7027 122.018 27.4973 122.286 27.164C122.556 26.8307 122.691 26.4307 122.691 25.964C122.691 25.4973 122.557 25.0973 122.29 24.764C122.023 24.4307 121.621 24.2267 121.083 24.152C121 24.1387 120.912 24.1307 120.82 24.128C120.728 24.1227 120.651 24.12 120.588 24.12H117.996V29.88ZM118.927 27.02V24.908H120.553C120.612 24.908 120.678 24.9107 120.749 24.916C120.823 24.9213 120.893 24.932 120.958 24.948C121.243 25.0067 121.445 25.1373 121.564 25.34C121.683 25.5427 121.742 25.7507 121.742 25.964C121.742 26.1747 121.683 26.3827 121.564 26.588C121.445 26.7907 121.243 26.9227 120.958 26.984C120.893 26.9973 120.823 27.0067 120.749 27.012C120.678 27.0173 120.612 27.02 120.553 27.02H118.927Z" fill="white"/>
<path d="M128.13 30C128.771 30 129.318 29.8733 129.769 29.62C130.221 29.3667 130.565 29.016 130.803 28.568C131.04 28.1173 131.159 27.5947 131.159 27C131.159 26.4053 131.04 25.884 130.803 25.436C130.565 24.9853 130.221 24.6333 129.769 24.38C129.318 24.1267 128.771 24 128.13 24C127.489 24 126.942 24.1267 126.491 24.38C126.039 24.6333 125.693 24.9853 125.453 25.436C125.215 25.884 125.096 26.4053 125.096 27C125.096 27.5947 125.215 28.1173 125.453 28.568C125.693 29.016 126.039 29.3667 126.491 29.62C126.942 29.8733 127.489 30 128.13 30ZM128.13 29.204C127.45 29.1987 126.938 28.9947 126.593 28.592C126.252 28.1893 126.082 27.6587 126.085 27C126.088 26.56 126.164 26.1747 126.312 25.844C126.464 25.5107 126.691 25.252 126.994 25.068C127.297 24.8813 127.676 24.7907 128.13 24.796C128.813 24.7987 129.324 25.0013 129.662 25.404C130.001 25.8067 130.17 26.3387 130.17 27C130.17 27.44 130.095 27.8267 129.943 28.16C129.795 28.4907 129.569 28.748 129.266 28.932C128.963 29.116 128.584 29.2067 128.13 29.204Z" fill="white"/>
<path d="M133.919 29.88H136.681C137.293 29.88 137.765 29.7267 138.097 29.42C138.433 29.1133 138.601 28.7067 138.601 28.2C138.601 27.8933 138.516 27.62 138.347 27.38C138.178 27.14 137.934 26.9587 137.616 26.836C137.827 26.7267 137.993 26.5707 138.115 26.368C138.237 26.1653 138.298 25.932 138.298 25.668C138.298 25.4067 138.228 25.1587 138.089 24.924C137.949 24.6867 137.741 24.4933 137.465 24.344C137.192 24.1947 136.85 24.12 136.44 24.12H133.919V29.88ZM134.863 26.472V24.908H136.427C136.706 24.908 136.929 24.98 137.095 25.124C137.261 25.268 137.345 25.452 137.345 25.676C137.345 25.9267 137.255 26.1227 137.077 26.264C136.902 26.4027 136.685 26.472 136.427 26.472H134.863ZM134.863 29.084V27.26H136.596C136.917 27.26 137.172 27.3493 137.362 27.528C137.552 27.704 137.647 27.9227 137.647 28.184C137.647 28.464 137.542 28.684 137.331 28.844C137.12 29.004 136.856 29.084 136.538 29.084H134.863Z" fill="white"/>
<path d="M140.913 29.88H141.88L142.347 28.58H144.98L145.457 29.88H146.423L144.339 24.12H142.998L140.913 29.88ZM142.632 27.796L143.657 24.956L144.695 27.796H142.632Z" fill="white"/>
<path d="M149.094 29.88H150.025V27.392H153.232V29.88H154.168V24.12H153.232V26.604H150.025V24.12H149.094V29.88Z" fill="white"/>
<path d="M162.337 29.88H161.393V25.596L158.234 29.88H157.29V24.12H158.234V28.4L161.393 24.12H162.337V29.88Z" fill="white"/>
<path d="M170 29.88H169.069V27.812H167.367L166.249 29.88H165.184L166.396 27.648C166.031 27.5067 165.758 27.2867 165.576 26.988C165.395 26.6893 165.305 26.348 165.305 25.964C165.305 25.4973 165.438 25.0973 165.706 24.764C165.973 24.4307 166.375 24.2267 166.913 24.152C166.996 24.1387 167.084 24.1307 167.176 24.128C167.268 24.1227 167.345 24.12 167.407 24.12H170V29.88ZM169.069 27.02V24.908H167.443C167.384 24.908 167.317 24.9107 167.243 24.916C167.171 24.9213 167.103 24.932 167.038 24.948C166.752 25.0067 166.551 25.1373 166.432 25.34C166.313 25.5427 166.254 25.7507 166.254 25.964C166.254 26.1747 166.313 26.3827 166.432 26.588C166.551 26.7907 166.752 26.9227 167.038 26.984C167.103 26.9973 167.171 27.0067 167.243 27.012C167.317 27.0173 167.384 27.02 167.443 27.02H169.069Z" fill="white"/>
<path d="M175.356 4V0.593865H174V0H177.42V0.593865H176.054V4H175.356ZM177.887 4V0H178.914L179.972 3.19509L180.994 0H182V4H181.363V0.642945L180.285 4H179.653L178.529 0.593865V4H177.887Z" fill="white"/>
</svg>
