<svg width="220" height="100" viewBox="0 0 220 100" fill="none" xmlns="http://www.w3.org/2000/svg">
<mask id="mask0" mask-type="alpha" maskUnits="userSpaceOnUse" x="28" y="12" width="164" height="75">
<g clip-path="url(#clip0)">
<path d="M109.604 12.0161C114.615 11.9045 119.67 13.3566 123.791 16.2234C128.198 19.2289 131.546 23.7528 133.121 28.8487C134.721 33.9555 134.555 39.5991 132.637 44.5958C130.506 50.2331 126.157 54.9956 120.73 57.6129C116.124 59.8971 110.769 60.597 105.725 59.635C100.203 58.6166 95.0903 55.5569 91.5674 51.191C88.0935 46.9541 86.1247 41.4862 86.195 36.0024C86.1433 31.0325 87.7598 26.0784 90.6534 22.0468C94.9407 15.9768 102.172 12.1453 109.604 12.0161ZM103.417 17.8836C99.5273 19.3333 96.1195 22.0607 93.882 25.5592C91.3331 29.446 90.3293 34.262 90.9447 38.8582C92.6897 35.0647 94.8937 31.4207 97.9054 28.4942C100.692 25.6053 104.172 23.4724 107.84 21.8907C107.134 21.289 106.431 20.6872 105.742 20.0718C109.68 19.3583 113.846 19.6751 117.569 21.1851C115.14 23.7646 112.645 26.3164 110.676 29.2763C110.4 28.0064 110.145 26.7291 109.866 25.4602C106.839 27.4956 104.694 30.6441 103.466 34.0464C101.757 38.8164 101.453 44.0579 102.424 49.0219C104.229 48.7431 106.024 48.311 107.706 47.589C111.664 45.9559 114.788 42.7612 116.852 39.0631C115.518 39.0991 114.186 39.2245 112.851 39.2821C115.487 36.4347 117.861 33.3139 119.642 29.8563C121.688 33.185 123.349 36.7328 124.787 40.3628C123.715 40.0314 122.64 39.7063 121.557 39.413C121.694 43.9079 121.319 48.4341 120.082 52.7725C125.104 49.8427 128.636 44.5365 129.426 38.7794C130.006 34.7473 129.256 30.5346 127.323 26.9518C124.94 22.4194 120.673 18.9399 115.77 17.4821C111.751 16.2643 107.345 16.4121 103.417 17.8836ZM74.5548 73.5329C75.4161 72.0034 77.1455 71.1175 78.8687 71.0517C80.8328 70.959 82.7992 71.0352 84.766 71.0111C84.766 72.1272 84.766 73.243 84.7632 74.3619C83.0753 74.3647 81.3851 74.3559 79.6947 74.359C78.9236 74.3506 78.0725 74.5528 77.5968 75.2118C77.0776 75.8848 77.1809 76.7845 77.1699 77.583C77.2027 78.8502 77.1261 80.1165 77.2002 81.383C77.2544 82.2332 77.7856 83.1091 78.6659 83.3031C79.6619 83.4861 80.6844 83.3774 81.6916 83.333C81.6884 82.3731 81.6884 81.4124 81.6916 80.453C81.0511 80.4478 80.411 80.4453 79.7708 80.4424C79.7737 79.4663 79.7737 78.4869 79.7737 77.51C81.5297 77.5073 83.2831 77.5073 85.0365 77.5073C85.0224 80.2451 85.0773 82.9831 85.0089 85.7185C83.2199 87.0257 80.9356 86.6101 78.8711 86.6733C76.9535 86.7145 75.0963 85.5355 74.3064 83.7871C73.54 82.1957 73.7975 80.3901 73.7562 78.6832C73.7505 76.9487 73.6441 75.0861 74.5548 73.5329ZM137.096 73.2014C137.998 71.8447 139.618 71.1203 141.218 71.0493C143.184 70.959 145.156 71.0353 147.129 71.0108C147.129 72.1269 147.129 73.2428 147.126 74.3616C145.345 74.3722 143.564 74.3396 141.784 74.3693C140.923 74.3778 139.957 74.7908 139.681 75.6741C139.289 76.9985 139.541 78.3987 139.465 79.7606C139.451 80.9397 139.382 82.4819 140.581 83.1438C141.672 83.5978 142.906 83.3548 144.057 83.3197C144.049 82.3625 144.051 81.4078 144.054 80.453C143.414 80.4478 142.774 80.4449 142.134 80.4424C142.137 79.4663 142.137 78.4869 142.137 77.51C143.893 77.5073 145.646 77.5073 147.399 77.51C147.41 80.2153 147.388 82.9201 147.413 85.6281C145.662 87.0454 143.335 86.6101 141.261 86.6759C139.33 86.7335 137.44 85.5623 136.65 83.801C135.851 82.2061 136.188 80.3846 136.12 78.6751C136.098 76.8232 135.963 74.7908 137.096 73.2014ZM28.9115 71.2131C30.1779 71.2186 31.4445 71.2159 32.7131 71.2159C33.493 74.4516 34.2034 77.704 35.0105 80.9334C35.47 77.6873 36.0551 74.4592 36.5557 71.2178C37.9917 71.2119 39.425 71.215 40.861 71.2178C41.3832 74.4536 41.9114 77.6922 42.4364 80.9278C43.1859 77.6894 43.9467 74.4507 44.7068 71.215C45.9735 71.215 47.2426 71.2178 48.5086 71.2119C47.1025 76.3405 45.6721 81.4638 44.2799 86.5977C42.9808 86.6008 41.6842 86.6037 40.3848 86.5949C39.8351 83.3811 39.2362 80.1729 38.7161 76.953C38.1663 80.1729 37.5972 83.3866 37.0258 86.6008H33.1416C31.7482 81.4676 30.3175 76.3446 28.9115 71.2131ZM47.2539 86.6018C48.6574 81.47 50.0795 76.3446 51.4877 71.2159H55.3937C56.7968 76.3473 58.2219 81.47 59.6223 86.5985C58.4411 86.6018 57.2587 86.5985 56.0743 86.6045C55.8392 85.5541 55.6176 84.5038 55.3715 83.4562C54.1003 83.453 52.8278 83.4562 51.5532 83.453C51.3234 84.5007 51.0852 85.5457 50.8583 86.5932C49.6584 86.607 48.4549 86.6018 47.2539 86.6018ZM52.2378 80.721C53.0719 80.7178 53.9067 80.721 54.7405 80.7284C54.3331 78.8767 53.903 77.0333 53.4906 75.1871C53.0719 77.0311 52.651 78.8744 52.2378 80.721ZM61.379 71.1475C63.844 71.155 66.3057 71.1281 68.7701 71.158C70.2307 71.1303 71.7511 72.1894 71.8364 73.7241C71.8502 75.097 71.8502 76.4702 71.8337 77.8436C71.8008 78.9321 70.9415 79.7642 70.0037 80.1818C70.901 82.2992 71.8035 84.4141 72.7033 86.5338H68.7867C68.0863 84.6189 67.4249 82.6906 66.7077 80.7839C66.0238 80.787 65.343 80.7898 64.662 80.7898C64.6591 82.7045 64.6677 84.6218 64.6563 86.5366C63.565 86.5312 62.4736 86.5312 61.3821 86.5366C61.3734 81.4046 61.379 76.276 61.379 71.1475ZM64.6614 74.2248C64.6614 75.4116 64.6586 76.596 64.6644 77.7832C65.6542 77.7587 66.6443 77.827 67.632 77.7562C68.2613 77.7063 68.628 77.069 68.5595 76.4813C68.5375 75.7585 68.7837 74.6596 67.9387 74.3178C66.8632 74.1069 65.7529 74.2764 64.6614 74.2248ZM90.1895 71.2186C91.4888 71.2125 92.788 71.2214 94.09 71.2104C95.5125 76.3362 96.9296 81.4648 98.324 86.6022H94.7764C94.5434 85.5487 94.3223 84.4955 94.0678 83.4484C92.801 83.462 91.5319 83.4566 90.263 83.4545C90.0385 84.5047 89.7921 85.5492 89.571 86.6026H85.9659C87.3584 81.4699 88.7973 76.35 90.1895 71.2186ZM90.9446 80.7236C91.7786 80.721 92.6154 80.721 93.4495 80.721C93.0393 78.8715 92.6072 77.0281 92.2022 75.1794C91.7731 77.0252 91.3629 78.8744 90.9446 80.7236ZM99.812 71.2159C101.212 71.2187 102.612 71.2076 104.013 71.2265C104.978 74.9687 105.988 78.6986 106.967 82.4379C108.018 78.7074 108.98 74.9549 110.006 71.2181C111.392 71.2152 112.779 71.2152 114.169 71.2152V86.6011H111.023C111.048 83.6772 110.969 80.7556 110.914 77.8337C110.107 80.7388 109.407 83.6767 108.666 86.6011C107.531 86.598 106.395 86.6146 105.263 86.5817C104.541 83.5842 103.775 80.597 103.028 77.6072C103.015 80.6053 103.026 83.5996 103.023 86.6008H99.8088C99.8093 81.4731 99.8064 76.3446 99.812 71.2159ZM116.839 71.2186C117.951 71.2158 119.067 71.2158 120.186 71.2158V86.6016H116.836C116.836 81.4731 116.836 76.3446 116.839 71.2186ZM122.856 71.2186C123.947 71.2158 125.038 71.2125 126.13 71.2186C127.752 74.2 129.363 77.1844 130.999 80.1571C130.98 77.1761 130.993 74.1974 130.993 71.2186C132.063 71.2158 133.132 71.2158 134.201 71.2186C134.204 76.3444 134.204 81.473 134.204 86.599C133.11 86.6018 132.019 86.6018 130.93 86.599C129.297 83.5758 127.691 80.5404 126.056 77.5204C126.078 80.5482 126.062 83.5735 126.067 86.6019H122.853C122.854 81.4731 122.854 76.3446 122.856 71.2186ZM155.472 71.2159C156.56 71.2159 157.652 71.2187 158.74 71.2131C160.403 74.2133 162.009 77.244 163.672 80.2447C163.686 77.2334 163.672 74.2246 163.678 71.2158C164.725 71.2158 165.772 71.2158 166.82 71.2186C166.823 76.3444 166.823 81.473 166.823 86.6016C165.723 86.5984 164.624 86.6123 163.527 86.5846C161.94 83.5349 160.277 80.5264 158.677 77.4844C158.696 80.5205 158.677 83.559 158.688 86.5979C157.616 86.6038 156.544 86.601 155.471 86.601C155.472 81.4731 155.469 76.3446 155.472 71.2159ZM169.287 71.2186C172.566 71.2158 175.849 71.2158 179.131 71.2158C179.128 72.217 179.128 73.2173 179.134 74.2187C176.968 74.232 174.801 74.2187 172.635 74.2246C172.632 75.1819 172.632 76.1393 172.635 77.0966H178.513C178.516 78.0978 178.516 79.1016 178.513 80.1019C176.554 80.1052 174.596 80.1052 172.638 80.1052C172.632 81.243 172.632 82.3836 172.638 83.5242H179.128C179.131 84.55 179.131 85.5755 179.128 86.6016H169.284C169.285 81.4731 169.282 76.3446 169.287 71.2186ZM180.704 71.2186C184.238 71.2125 187.769 71.2186 191.303 71.2158V74.2246H187.75C187.745 78.3276 187.75 82.4303 187.745 86.5331H184.4C184.397 82.4329 184.394 78.3325 184.4 74.2318C183.169 74.2211 181.935 74.2211 180.704 74.2244V71.2186ZM149.728 83.4562C150.797 83.4562 151.866 83.4562 152.936 83.453C152.941 84.5007 152.941 85.5484 152.944 86.596C151.872 86.6042 150.799 86.6021 149.727 86.6021C149.728 85.5514 149.725 84.5038 149.728 83.4562Z" fill="#737373"/>
</g>
</mask>
<g mask="url(#mask0)">
<rect width="220" height="100" fill="white"/>
</g>
<defs>
<clipPath id="clip0">
<rect width="162.392" height="74.7003" fill="white" transform="translate(28.9131 12)"/>
</clipPath>
</defs>
</svg>
