<svg width="195" height="100" viewBox="0 0 195 100" fill="none" xmlns="http://www.w3.org/2000/svg">
<path d="M54.8 33.8745H51.9813C46.8135 33.8745 44.0993 36.4674 44.0993 40.3046C44.0993 44.6606 45.9784 46.6829 49.8412 49.2759L53.0251 51.402L43.8383 65.0401H37.0001L45.2476 52.8539C40.4975 49.4831 37.8352 46.2163 37.8352 40.6676C37.8352 33.7191 42.6898 29 51.929 29H61.1161V65.0401H54.8V33.8745Z" fill="white"/>
<path d="M106.111 60.1657H97.3419C99.0643 56.2247 99.5342 49.1203 99.5342 44.6088V43.831H106.111V60.1657ZM112.323 38.9565H94.21V41.1865C94.21 47.5646 93.7923 55.8099 91.6 60.1657H89.6686V71.0039H95.4105V65.0404H109.348V71.0039H115.09V60.1657H112.323V38.9565Z" fill="white"/>
<path d="M80.8471 49.2759H72.5474V38.9565H66.3358V65.0401H72.5474V54.1504H80.8471V65.0401H87.0587V38.9565H80.8471V49.2759Z" fill="white"/>
<path d="M176.997 43.3125C179.398 43.3125 181.747 44.1422 183 44.92V39.6825C181.695 38.9565 179.398 38.4381 176.319 38.4381C168.385 38.4381 164.261 44.0904 164.261 52.0242C164.261 60.7363 168.28 65.5589 176.58 65.5589C179.451 65.5589 181.486 65.0403 183 63.9515V58.9212C181.434 60.0102 179.555 60.6843 176.945 60.6843C172.508 60.6843 170.681 57.2619 170.681 51.8688C170.681 46.2165 172.926 43.3125 176.997 43.3125Z" fill="white"/>
<path d="M163.426 38.9566H157.162L148.392 50.9872V38.9566H142.181V65.0404H148.392V52.2317L157.579 65.0404H164.626L154.656 50.9872L163.426 38.9566Z" fill="white"/>
<path d="M131.689 49.6389H123.024C123.18 45.4904 124.694 43.3125 127.669 43.3125C130.749 43.3125 131.689 45.8535 131.689 49.1202V49.6389ZM127.774 38.4379C120.205 38.4379 116.603 44.194 116.603 52.076C116.603 61.1511 121.092 65.5589 129.027 65.5589C132.994 65.5589 135.917 64.5217 137.744 63.277V58.2471C135.812 59.5434 132.576 60.6843 129.548 60.6843C125.007 60.6843 123.285 58.5584 123.024 54.2023H138.005V50.9353C138.005 41.8605 133.985 38.4379 127.774 38.4379Z" fill="white"/>
</svg>
