<svg width="88" height="25" viewBox="0 0 88 25" fill="none" xmlns="http://www.w3.org/2000/svg">
<path d="M11.2755 2.89892H9.59921C6.52589 2.89892 4.91169 4.44097 4.91169 6.72299C4.91169 9.31357 6.02924 10.5163 8.32647 12.0583L10.22 13.3227L4.7565 21.4335H0.689758L5.5946 14.1862C2.76966 12.1815 1.1864 10.2388 1.1864 6.93888C1.1864 2.8065 4.07347 2.47955e-05 9.56814 2.47955e-05H15.0318V21.4335H11.2755V2.89892Z" fill="#FC3F1D"/>
<path d="M41.7909 18.5345H36.5757C37.6 16.1908 37.8795 11.9657 37.8795 9.2827V8.82011H41.7909V18.5345ZM45.485 5.92121H34.7131V7.24738C34.7131 11.0405 34.4647 15.9441 33.1609 18.5345H32.0123V24.9801H35.427V21.4335H43.7156V24.9801H47.1304V18.5345H45.485V5.92121Z" fill="#0C091C"/>
<path d="M26.766 12.0583H21.8301V5.92129H18.136V21.4335H21.8301V14.9572H26.766V21.4335H30.4601V5.92129H26.766V12.0583Z" fill="#0C091C"/>
<path d="M83.9476 8.51184C85.3755 8.51184 86.7725 9.00523 87.5175 9.46782V6.35304C86.7414 5.92125 85.3755 5.61294 83.5441 5.61294C78.8255 5.61294 76.3731 8.97443 76.3731 13.6927C76.3731 18.8739 78.7633 21.742 83.6992 21.742C85.4067 21.742 86.6173 21.4336 87.5175 20.786V17.7945C86.5862 18.4421 85.4687 18.843 83.9165 18.843C81.2778 18.843 80.1915 16.8077 80.1915 13.6003C80.1915 10.2388 81.5262 8.51184 83.9476 8.51184Z" fill="#0C091C"/>
<path d="M75.8763 5.9212H72.1511L66.9359 13.076V5.9212H63.2417V21.4335H66.9359V13.816L72.3994 21.4335H76.5903L70.6611 13.076L75.8763 5.9212Z" fill="#0C091C"/>
<path d="M57.002 12.2742H51.8489C51.942 9.80706 52.8422 8.51184 54.6117 8.51184C56.4432 8.51184 57.002 10.023 57.002 11.9657V12.2742ZM54.6739 5.61281C50.1726 5.61281 48.0307 9.03604 48.0307 13.7236C48.0307 19.1206 50.7003 21.742 55.4189 21.742C57.7781 21.742 59.5166 21.1251 60.6031 20.3849V17.3936C59.4544 18.1645 57.5299 18.843 55.7293 18.843C53.0286 18.843 52.0041 17.5787 51.8489 14.9881H60.7582V13.0452C60.7582 7.64826 58.368 5.61281 54.6739 5.61281Z" fill="#0C091C"/>
</svg>
