<svg width="40" height="40" viewBox="0 0 40 40" fill="none" xmlns="http://www.w3.org/2000/svg">
<path fill-rule="evenodd" clip-rule="evenodd" d="M6.66675 15.4167C7.3571 15.4167 7.91675 15.9763 7.91675 16.6667V26.6667C7.91675 27.3571 7.3571 27.9167 6.66675 27.9167C5.97639 27.9167 5.41675 27.3571 5.41675 26.6667V16.6667C5.41675 15.9763 5.97639 15.4167 6.66675 15.4167Z" fill="white"/>
<path fill-rule="evenodd" clip-rule="evenodd" d="M33.3334 15.4167C34.0238 15.4167 34.5834 15.9763 34.5834 16.6667V26.6667C34.5834 27.3571 34.0238 27.9167 33.3334 27.9167C32.6431 27.9167 32.0834 27.3571 32.0834 26.6667V16.6667C32.0834 15.9763 32.6431 15.4167 33.3334 15.4167Z" fill="white"/>
<path fill-rule="evenodd" clip-rule="evenodd" d="M20.0001 7.9167C18.1215 7.9167 16.3198 8.66297 14.9914 9.99136C13.9615 11.0213 13.2814 12.3358 13.0279 13.75H26.9723C26.7187 12.3358 26.0387 11.0213 25.0088 9.99136C23.6804 8.66297 21.8787 7.9167 20.0001 7.9167ZM29.5834 15C29.5834 12.4584 28.5737 10.0208 26.7765 8.22359C24.9793 6.42637 22.5417 5.4167 20.0001 5.4167C17.4584 5.4167 15.0209 6.42637 13.2236 8.22359C11.4264 10.0208 10.4167 12.4584 10.4167 15V28.3334C10.4167 29.1069 10.724 29.8488 11.271 30.3958C11.818 30.9427 12.5599 31.25 13.3334 31.25H26.6667C27.4403 31.25 28.1822 30.9427 28.7291 30.3958C29.2761 29.8488 29.5834 29.1069 29.5834 28.3334V15ZM27.0834 16.25H12.9167V28.3334C12.9167 28.4439 12.9606 28.5499 13.0388 28.628C13.1169 28.7061 13.2229 28.75 13.3334 28.75H26.6667C26.7773 28.75 26.8832 28.7061 26.9614 28.628C27.0395 28.5499 27.0834 28.4439 27.0834 28.3334V16.25Z" fill="white"/>
<path fill-rule="evenodd" clip-rule="evenodd" d="M12.7744 3.882C13.3919 3.57326 14.1427 3.82354 14.4514 4.44101L16.1181 7.77435C16.4269 8.39182 16.1766 9.14266 15.5591 9.4514C14.9416 9.76013 14.1908 9.50985 13.882 8.89238L12.2154 5.55905C11.9066 4.94157 12.1569 4.19073 12.7744 3.882Z" fill="white"/>
<path fill-rule="evenodd" clip-rule="evenodd" d="M27.2258 3.882C27.8432 4.19073 28.0935 4.94157 27.7848 5.55905L26.1181 8.89238C25.8094 9.50985 25.0585 9.76013 24.4411 9.4514C23.8236 9.14266 23.5733 8.39182 23.882 7.77435L25.5487 4.44101C25.8575 3.82354 26.6083 3.57326 27.2258 3.882Z" fill="white"/>
<path fill-rule="evenodd" clip-rule="evenodd" d="M15.0001 28.75C15.6904 28.75 16.2501 29.3097 16.2501 30V35C16.2501 35.6904 15.6904 36.25 15.0001 36.25C14.3097 36.25 13.7501 35.6904 13.7501 35V30C13.7501 29.3097 14.3097 28.75 15.0001 28.75Z" fill="white"/>
<path fill-rule="evenodd" clip-rule="evenodd" d="M25.0001 28.75C25.6904 28.75 26.2501 29.3097 26.2501 30V35C26.2501 35.6904 25.6904 36.25 25.0001 36.25C24.3097 36.25 23.7501 35.6904 23.7501 35V30C23.7501 29.3097 24.3097 28.75 25.0001 28.75Z" fill="white"/>
</svg>
