<svg width="40" height="40" viewBox="0 0 40 40" fill="none" xmlns="http://www.w3.org/2000/svg">
<path fill-rule="evenodd" clip-rule="evenodd" d="M13.1266 2.64001C13.5096 2.0656 14.2856 1.91038 14.8601 2.29332C16.3741 3.3027 17.5401 4.98712 18.3202 6.65894C19.103 8.33628 19.5833 10.1854 19.5833 11.6667C19.5833 12.3571 19.0237 12.9167 18.3333 12.9167C17.643 12.9167 17.0833 12.3571 17.0833 11.6667C17.0833 10.6481 16.7304 9.16382 16.0548 7.71616C15.3766 6.26298 14.4592 5.03073 13.4733 4.37345C12.8989 3.99051 12.7437 3.21442 13.1266 2.64001ZM20.0833 2.33339C20.6356 1.91917 21.4191 2.0311 21.8333 2.58338C24.4445 6.06492 25.4167 8.82192 25.4167 11.6667C25.4167 12.3571 24.857 12.9167 24.1667 12.9167C23.4763 12.9167 22.9167 12.3571 22.9167 11.6667C22.9167 9.51152 22.2222 7.26852 19.8333 4.08339C19.4191 3.5311 19.5311 2.7476 20.0833 2.33339ZM27.2934 6.80658C27.6764 6.2322 28.4525 6.07706 29.0269 6.46005C30.8451 7.67247 32.4001 9.23919 33.5989 11.0665C34.7043 12.7515 35.4858 14.6261 35.9051 16.5943C36.5085 17.0795 37.0027 17.6898 37.352 18.3857C37.7851 19.2487 37.9797 20.2117 37.9157 21.1751C37.8516 22.1385 37.5311 23.0673 36.9875 23.8653C36.5492 24.5087 35.9786 25.0482 35.3164 25.4492C34.2213 28.5224 32.2247 31.1989 29.5821 33.1255C26.8018 35.1524 23.4499 36.2445 20.0092 36.2445C16.5685 36.2445 13.2166 35.1524 10.4364 33.1255C7.79373 31.1989 5.79715 28.5224 4.70207 25.4492C4.03979 25.0482 3.46922 24.5087 3.0309 23.8653C2.48728 23.0673 2.16684 22.1385 2.10276 21.1751C2.03868 20.2117 2.23329 19.2487 2.66643 18.3857C3.01572 17.6898 3.5099 17.0795 4.11334 16.5943C4.5236 14.6684 5.2808 12.8317 6.34935 11.1744C7.51011 9.37403 9.01536 7.82097 10.7785 6.6045C11.3468 6.21246 12.1252 6.35529 12.5173 6.92352C12.9093 7.49176 12.7665 8.27022 12.1982 8.66227C10.7063 9.69158 9.43266 11.0057 8.45048 12.5291C7.4683 14.0524 6.797 15.7549 6.47519 17.5387C6.41379 17.879 6.21416 18.1786 5.92378 18.3664C5.48719 18.6487 5.13399 19.0426 4.90077 19.5072C4.66753 19.9719 4.56275 20.4904 4.59725 21.0092C4.63176 21.528 4.8043 22.0281 5.09702 22.4578C5.38973 22.8874 5.79198 23.2311 6.26211 23.4531C6.57497 23.6008 6.8126 23.8716 6.91845 24.201C7.8091 26.9727 9.55656 29.3903 11.9091 31.1053C14.2617 32.8204 17.0979 33.7445 20.0092 33.7445C22.9206 33.7445 25.7568 32.8204 28.1093 31.1053C30.4619 29.3903 32.2093 26.9727 33.1 24.201C33.2058 23.8716 33.4435 23.6008 33.7563 23.4531C34.2264 23.2311 34.6287 22.8874 34.9214 22.4578C35.2141 22.0281 35.3867 21.528 35.4212 21.0092C35.4557 20.4905 35.3509 19.9719 35.1177 19.5072C34.8844 19.0426 34.5312 18.6487 34.0946 18.3664C33.8043 18.1786 33.6046 17.879 33.5432 17.5387C33.2149 15.7189 32.5229 13.984 31.5085 12.4378C30.4942 10.8916 29.1784 9.56594 27.6399 8.54005C27.0655 8.15706 26.9104 7.38095 27.2934 6.80658ZM13.75 20.0001C13.75 19.3097 14.3097 18.7501 15 18.7501H15.0167C15.707 18.7501 16.2667 19.3097 16.2667 20.0001C16.2667 20.6904 15.707 21.2501 15.0167 21.2501H15C14.3097 21.2501 13.75 20.6904 13.75 20.0001ZM23.75 20.0001C23.75 19.3097 24.3097 18.7501 25 18.7501H25.0167C25.707 18.7501 26.2667 19.3097 26.2667 20.0001C26.2667 20.6904 25.707 21.2501 25.0167 21.2501H25C24.3097 21.2501 23.75 20.6904 23.75 20.0001ZM14.9585 25.7739C15.4516 25.2907 16.2431 25.2988 16.7262 25.7919C17.1529 26.2274 17.6623 26.5735 18.2245 26.8097C18.7866 27.0459 19.3902 27.1676 20 27.1676C20.6098 27.1676 21.2134 27.0459 21.7756 26.8097C22.3377 26.5735 22.8471 26.2274 23.2738 25.7919C23.757 25.2988 24.5484 25.2907 25.0415 25.7739C25.5346 26.257 25.5427 27.0484 25.0595 27.5415C24.4 28.2147 23.6128 28.7494 22.744 29.1145C21.8753 29.4795 20.9424 29.6676 20 29.6676C19.0576 29.6676 18.1248 29.4795 17.256 29.1145C16.3872 28.7494 15.6 28.2147 14.9405 27.5415C14.4573 27.0484 14.4654 26.257 14.9585 25.7739Z" fill="white"/>
</svg>
