<svg width="40" height="40" viewBox="0 0 40 40" fill="none" xmlns="http://www.w3.org/2000/svg">
<path fill-rule="evenodd" clip-rule="evenodd" d="M21.8895 5.21603C20.7219 4.53492 19.2781 4.53492 18.1105 5.21603L7.11048 11.6327C5.95842 12.3047 5.25 13.5381 5.25 14.8719V25.1282C5.25 26.4619 5.95842 27.6953 7.11048 28.3673L18.1105 34.784C19.2781 35.4651 20.7219 35.4651 21.8895 34.784L32.8895 28.3673C34.0416 27.6953 34.75 26.4619 34.75 25.1282V14.8719C34.75 13.5381 34.0416 12.3047 32.8895 11.6327L21.8895 5.21603ZM16.8508 3.05658C18.7968 1.92141 21.2032 1.92141 23.1492 3.05658L34.1492 9.47325C36.0693 10.5933 37.25 12.6489 37.25 14.8719V25.1282C37.25 27.3511 36.0693 29.4067 34.1492 30.5268L23.1492 36.9434C21.2032 38.0786 18.7968 38.0786 16.8508 36.9434L5.85081 30.5268C3.9307 29.4067 2.75 27.3511 2.75 25.1282V14.8719C2.75 12.6489 3.9307 10.5933 5.85081 9.47325L16.8508 3.05658ZM19.7023 13.9154C18.7416 13.4353 17.6742 13.2087 16.6013 13.2571C15.5283 13.3056 14.4855 13.6274 13.5719 14.1921C12.6583 14.7568 11.9041 15.5457 11.3811 16.4838C10.8581 17.4218 10.5835 18.478 10.5833 19.552C10.5833 19.5521 10.5833 19.552 10.5833 19.552V20.448C10.5828 21.5222 10.857 22.5793 11.3799 23.5177C11.9027 24.4561 12.6569 25.2452 13.5706 25.81C14.4844 26.3748 15.5274 26.6965 16.6005 26.7446C17.6737 26.7927 18.7413 26.5656 19.7019 26.0849L20.7743 25.5486L21.8924 27.7847L20.8208 28.3205C20.8206 28.3206 20.8209 28.3204 20.8208 28.3205C19.479 28.9919 17.9874 29.3093 16.4886 29.2421C14.9895 29.1749 13.5326 28.7255 12.2562 27.9365C10.9798 27.1476 9.92637 26.0453 9.19601 24.7345C8.46574 23.4239 8.08272 21.9483 8.08333 20.448C8.08333 20.4478 8.08333 20.4482 8.08333 20.448V19.552C8.08348 18.0519 8.46703 16.5765 9.19757 15.2663C9.92811 13.9561 10.9814 12.8543 12.2575 12.0656C13.5335 11.2768 14.99 10.8273 16.4886 10.7597C17.9872 10.6921 19.4782 11.0086 20.8201 11.6792L21.8924 12.2153L20.7743 14.4514L19.7023 13.9154C19.7024 13.9154 19.7022 13.9153 19.7023 13.9154ZM24.25 16.7501V15.0001H26.75V16.7501H29.25V15.0001H31.75V16.7501H33.5V19.2501H31.75V21.7501H33.5V24.2501H31.75V26.0001H29.25V24.2501H26.75V26.0001H24.25V24.2501H22.5V21.7501H24.25V19.2501H22.5V16.7501H24.25ZM26.75 19.2501V21.7501H29.25V19.2501H26.75Z" fill="white"/>
</svg>
