<svg width="40" height="40" viewBox="0 0 40 40" fill="none" xmlns="http://www.w3.org/2000/svg">
<path d="M20 1.66663C18.4167 1.66663 17.3584 2.80329 16.7717 3.80329C16.17 4.83496 15.8334 6.09329 15.8334 7.08329C15.8334 7.90663 15.9384 9.03996 16.5534 9.99329C17.2367 11.05 18.3967 11.6666 20 11.6666C21.6034 11.6666 22.7634 11.05 23.4467 9.99329C24.0634 9.03996 24.1667 7.90663 24.1667 7.08329C24.1667 6.09329 23.83 4.83329 23.2284 3.80329C22.6434 2.80329 21.5834 1.66663 20 1.66663ZM18.3334 7.08329C18.3334 6.56663 18.535 5.74163 18.93 5.06663C19.3434 4.35996 19.7417 4.16663 20 4.16663C20.2584 4.16663 20.6567 4.35996 21.07 5.06663C21.465 5.74163 21.6667 6.56663 21.6667 7.08329C21.6667 7.76663 21.5634 8.29996 21.345 8.63663C21.195 8.86996 20.895 9.16663 20 9.16663C19.1034 9.16663 18.805 8.86996 18.655 8.63663C18.4384 8.29996 18.3334 7.76663 18.3334 7.08329Z" fill="white"/>
<path d="M34.1667 17.0833V30.8333H35.4167C35.7482 30.8333 36.0662 30.965 36.3006 31.1994C36.535 31.4338 36.6667 31.7518 36.6667 32.0833C36.6667 32.4148 36.535 32.7328 36.3006 32.9672C36.0662 33.2016 35.7482 33.3333 35.4167 33.3333H4.58337C4.25185 33.3333 3.93391 33.2016 3.69949 32.9672C3.46507 32.7328 3.33337 32.4148 3.33337 32.0833C3.33337 31.7518 3.46507 31.4338 3.69949 31.1994C3.93391 30.965 4.25185 30.8333 4.58337 30.8333H5.83337V17.0833C5.83337 16.0887 6.22846 15.1349 6.93172 14.4316C7.63499 13.7284 8.58881 13.3333 9.58337 13.3333H30.4167C31.4113 13.3333 32.3651 13.7284 33.0684 14.4316C33.7716 15.1349 34.1667 16.0887 34.1667 17.0833ZM8.33337 17.0833V20.5683L12.4117 23.2016C12.7485 23.4191 13.1408 23.5347 13.5417 23.5347C13.9426 23.5347 14.3349 23.4191 14.6717 23.2016L17.5834 21.3216C18.3012 20.8587 19.1341 20.6057 19.9882 20.5909C20.8422 20.5762 21.6833 20.8004 22.4167 21.2383L25.765 23.2366C26.1103 23.4428 26.5079 23.5447 26.9099 23.5299C27.3118 23.5151 27.7008 23.3843 28.03 23.1533L31.6667 20.6V17.0833C31.6667 16.7518 31.535 16.4338 31.3006 16.1994C31.0662 15.965 30.7482 15.8333 30.4167 15.8333H9.58337C9.25185 15.8333 8.93391 15.965 8.69949 16.1994C8.46507 16.4338 8.33337 16.7518 8.33337 17.0833ZM29.4667 25.2C28.7424 25.7083 27.8864 25.9961 27.0022 26.0287C26.1179 26.0612 25.2431 25.8371 24.4834 25.3833L21.1367 23.3833C20.8032 23.1841 20.4205 23.0821 20.0321 23.0888C19.6436 23.0956 19.2648 23.2109 18.9384 23.4216L16.0267 25.3016C15.286 25.7796 14.4232 26.0338 13.5417 26.0338C12.6602 26.0338 11.7974 25.7796 11.0567 25.3016L8.33337 23.5433V30.8333H31.6667V23.655L29.4667 25.1983V25.2Z" fill="white"/>
</svg>
