<svg width="40" height="40" viewBox="0 0 40 40" fill="none" xmlns="http://www.w3.org/2000/svg">
<path d="M25.8755 8.0941C26.0334 7.73088 26.0408 7.32002 25.8961 6.95136C25.7515 6.5827 25.4665 6.28623 25.1035 6.12679C24.7404 5.96736 24.329 5.95792 23.959 6.10054C23.5891 6.24317 23.2907 6.52625 23.1292 6.88789L12.1281 31.8508C12.0405 32.0319 11.9903 32.2288 11.9806 32.4297C11.9708 32.6306 12.0017 32.8314 12.0713 33.0201C12.141 33.2088 12.248 33.3816 12.386 33.5282C12.524 33.6747 12.6901 33.792 12.8745 33.873C13.0589 33.9541 13.2577 33.9972 13.4592 33.9999C13.6606 34.0025 13.8605 33.9646 14.047 33.8885C14.2335 33.8123 14.4026 33.6994 14.5444 33.5566C14.6863 33.4137 14.7978 33.2438 14.8724 33.057L25.8735 8.0941H25.8755Z" fill="white"/>
<path d="M28.5879 27.6511C28.4317 27.5312 28.3007 27.3817 28.2024 27.2112C28.1041 27.0406 28.0404 26.8525 28.0149 26.6574C27.9895 26.4623 28.0028 26.2641 28.0541 26.0741C28.1054 25.8842 28.1936 25.7061 28.3138 25.5503L32.6083 19.9725L28.3118 14.3948C28.0871 14.0791 27.9937 13.6886 28.0512 13.3055C28.1086 12.9225 28.3125 12.5765 28.62 12.3403C28.9275 12.1041 29.3147 11.996 29.7003 12.0388C30.0859 12.0815 30.44 12.2718 30.6881 12.5696L35.6886 19.0599C35.8905 19.3218 36 19.643 36 19.9735C36 20.3041 35.8905 20.6253 35.6886 20.8872L30.6881 27.3775C30.4455 27.6919 30.0878 27.8973 29.6937 27.9486C29.2995 27.9999 28.9011 27.8929 28.5859 27.6511H28.5879Z" fill="white"/>
<path d="M11.4141 12.2957C11.5703 12.4157 11.7013 12.5652 11.7996 12.7357C11.8979 12.9062 11.9616 13.0944 11.9871 13.2895C12.0125 13.4846 11.9992 13.6828 11.9479 13.8728C11.8966 14.0627 11.8084 14.2407 11.6882 14.3966L7.39173 19.9723L11.6882 25.55C11.8143 25.7053 11.908 25.8841 11.9638 26.0761C12.0196 26.268 12.0364 26.4692 12.0131 26.6677C11.9898 26.8662 11.927 27.058 11.8283 27.2319C11.7296 27.4058 11.5971 27.5583 11.4385 27.6802C11.2799 27.8022 11.0985 27.8912 10.9049 27.9421C10.7113 27.9929 10.5094 28.0046 10.3113 27.9764C10.1131 27.9481 9.92256 27.8806 9.75093 27.7777C9.5793 27.6748 9.43004 27.5387 9.31192 27.3773L4.31143 20.887C4.1095 20.6251 4 20.3038 4 19.9733C4 19.6428 4.1095 19.3216 4.31143 19.0597L9.31192 12.5693C9.55453 12.255 9.91218 12.0496 10.3063 11.9983C10.7005 11.947 11.0989 12.054 11.4141 12.2957Z" fill="white"/>
</svg>
