<svg width="40" height="40" viewBox="0 0 40 40" fill="none" xmlns="http://www.w3.org/2000/svg">
<path d="M13.75 30H26.25V32.5H13.75V30Z" fill="white"/>
<path d="M16.25 35H23.75V37.5H16.25V35Z" fill="white"/>
<path d="M20 2.5C16.6848 2.5 13.5053 3.81696 11.1611 6.16117C8.81693 8.50537 7.49997 11.6848 7.49997 15C7.41543 16.8167 7.76343 18.6275 8.51534 20.2834C9.26724 21.9393 10.4016 23.393 11.825 24.525C13.075 25.6875 13.75 26.35 13.75 27.5H16.25C16.25 25.2 14.8625 23.9125 13.5125 22.675C12.3442 21.7803 11.4131 20.6128 10.8007 19.2748C10.1883 17.9368 9.91339 16.469 9.99997 15C9.99997 12.3478 11.0535 9.8043 12.9289 7.92893C14.8043 6.05357 17.3478 5 20 5C22.6521 5 25.1957 6.05357 27.071 7.92893C28.9464 9.8043 30 12.3478 30 15C30.0851 16.47 29.8082 17.9385 29.1937 19.2767C28.5791 20.6148 27.6456 21.7817 26.475 22.675C25.1375 23.925 23.75 25.175 23.75 27.5H26.25C26.25 26.35 26.9125 25.6875 28.175 24.5125C29.5974 23.3825 30.7312 21.9309 31.4831 20.2771C32.235 18.6234 32.5835 16.8147 32.5 15C32.5 13.3585 32.1766 11.733 31.5485 10.2165C30.9203 8.69989 29.9995 7.3219 28.8388 6.16117C27.6781 5.00043 26.3001 4.07969 24.7835 3.45151C23.2669 2.82332 21.6415 2.5 20 2.5Z" fill="white"/>
</svg>
