<svg width="40" height="40" viewBox="0 0 40 40" fill="none" xmlns="http://www.w3.org/2000/svg">
<path d="M1.17664 28.7106H4.31906V15.9397H1.17664V28.7106ZM2.74162 14.265C3.72591 14.265 4.4957 13.5421 4.4957 12.6386C4.4957 11.7227 3.72591 11 2.74162 11C1.7698 11 1 11.7229 1 12.6386C1 13.5421 1.7698 14.265 2.74162 14.265ZM14.7814 11.036C9.46851 11.036 6.13668 14.4939 6.13668 20.0241C6.13668 25.5542 9.46821 29 14.7815 29C20.0818 29 23.4136 25.5542 23.4136 20.0241C23.4136 14.4939 20.0821 11.036 14.7815 11.036H14.7814ZM14.7814 13.6867C18.0247 13.6867 20.0944 16.1445 20.0944 20.0239C20.0944 23.8914 18.0247 26.3493 14.7815 26.3493C11.5256 26.3493 9.46851 23.8915 9.46851 20.0239C9.46851 16.1445 11.5257 13.6867 14.7815 13.6867H14.7814ZM24.7393 23.8191C24.8781 27.024 27.6292 28.9997 31.819 28.9997C36.2235 28.9997 39 26.9275 39 23.6262C39 21.0359 37.4352 19.5781 33.7374 18.7709L31.6425 18.3132C29.4087 17.8072 28.4875 17.1325 28.4875 15.9759C28.4875 14.53 29.8757 13.5662 31.9327 13.5662C34.015 13.5662 35.4411 14.5422 35.5926 16.1686H38.697C38.6213 13.1084 35.9711 11.036 31.958 11.036C27.9953 11.036 25.1811 13.1203 25.1811 16.2047C25.1811 18.6866 26.7711 20.2287 30.1279 20.9638L32.4879 21.4938C34.7847 22.012 35.7186 22.7349 35.7186 23.9879C35.7186 25.4336 34.1915 26.4698 31.9958 26.4698C29.7748 26.4698 28.0964 25.4215 27.8945 23.8191H24.7393Z" fill="white"/>
</svg>
