<svg width="40" height="40" viewBox="0 0 40 40" fill="none" xmlns="http://www.w3.org/2000/svg">
<path d="M22.8868 0C25.0439 5.09138 15.152 8.21021 14.2319 12.4538C13.3902 16.3481 20.0926 20.9163 20.0987 20.9163C19.0755 19.3054 18.3308 17.9468 17.3092 15.4342C15.5782 11.1906 27.8566 7.36242 22.8868 0ZM29.426 7.06854C29.426 7.06854 20.7773 7.61476 20.3388 13.2708C20.1387 15.7896 22.6221 17.1113 22.6944 18.9453C22.756 20.4409 21.2035 21.6841 21.2035 21.6841C21.2035 21.6841 23.9869 21.181 24.8578 18.8961C25.8194 16.3604 22.9837 14.6294 23.2714 12.5969C23.5484 10.6567 29.426 7.06854 29.426 7.06854ZM31.5416 20.0978C30.6338 20.0562 29.6122 20.3932 28.7044 21.0594C30.4954 20.664 32.0232 21.7872 32.0232 23.0797C32.0232 25.977 27.8874 28.705 27.8874 28.705C27.8874 28.705 34.282 27.9895 34.282 23.2243C34.282 21.2579 33.051 20.1701 31.5416 20.0978ZM14.5688 20.147C12.3378 20.224 7.88496 20.5917 7.88496 22.3104C7.88496 24.703 18.2585 24.8891 25.6763 23.4166C25.6763 23.4166 27.695 22.0103 28.2243 21.4933C23.3622 22.5027 12.2609 22.6596 12.2609 21.7811C12.2609 20.9764 15.8182 20.147 15.8182 20.147C15.8182 20.147 15.3135 20.1224 14.5688 20.147ZM13.8949 24.5706C12.6748 24.5706 10.8653 25.52 10.8653 26.4447C10.8653 28.308 20.051 29.7389 26.8303 27.0217L24.4731 25.58C19.8756 27.0832 11.3823 26.5832 13.8949 24.5706ZM15.0489 28.7527C13.3841 28.7527 12.3086 29.8051 12.3086 30.5806C12.3086 32.9655 22.2559 33.2009 26.2041 30.7729L23.7038 29.1373C20.7588 30.4067 13.3487 30.5929 15.0489 28.7527ZM9.4713 30.9175C6.75559 30.8637 5 32.0946 5 33.127C5 38.6262 32.8403 38.363 32.8403 32.7424C32.8403 31.8115 31.7401 31.3668 31.3493 31.156C33.6219 36.529 8.60658 36.1089 8.60658 32.9347C8.60658 32.2146 10.4576 31.493 12.1639 31.83L10.7222 31.0114C10.3079 30.9511 9.88997 30.9192 9.4713 30.916V30.9175ZM35.7729 34.6195C31.5416 38.7123 20.8327 40.1786 10.0483 37.6491C20.8311 42.1573 35.7191 39.6494 35.7729 34.6195Z" fill="white"/>
</svg>
