<svg width="40" height="40" viewBox="0 0 40 40" fill="none" xmlns="http://www.w3.org/2000/svg">
<path d="M35 32.5H5C4.33696 32.5 3.70107 32.2366 3.23223 31.7678C2.76339 31.2989 2.5 30.663 2.5 30V12.5C2.5 11.837 2.76339 11.2011 3.23223 10.7322C3.70107 10.2634 4.33696 10 5 10H35C35.663 10 36.2989 10.2634 36.7678 10.7322C37.2366 11.2011 37.5 11.837 37.5 12.5V30C37.5 30.663 37.2366 31.2989 36.7678 31.7678C36.2989 32.2366 35.663 32.5 35 32.5ZM5 12.5V30H35V12.5H5Z" fill="white"/>
<path d="M12.5 25H26.25V27.5H12.5V25Z" fill="white"/>
<path d="M7.5 15H10V17.5H7.5V15Z" fill="white"/>
<path d="M12.5 15H15V17.5H12.5V15Z" fill="white"/>
<path d="M17.5 15H20V17.5H17.5V15Z" fill="white"/>
<path d="M22.5 15H25V17.5H22.5V15Z" fill="white"/>
<path d="M7.5 25H10V27.5H7.5V25Z" fill="white"/>
<path d="M7.5 20H10V22.5H7.5V20Z" fill="white"/>
<path d="M12.5 20H15V22.5H12.5V20Z" fill="white"/>
<path d="M17.5 20H20V22.5H17.5V20Z" fill="white"/>
<path d="M27.5 15H32.5V17.5H27.5V15Z" fill="white"/>
<path d="M27.5 20H32.5V22.5H27.5V20Z" fill="white"/>
<path d="M22.5 20H25V22.5H22.5V20Z" fill="white"/>
<path d="M28.75 25H32.5V27.5H28.75V25Z" fill="white"/>
</svg>
