<svg width="40" height="40" viewBox="0 0 40 40" fill="none" xmlns="http://www.w3.org/2000/svg">
<path d="M11.4667 28.5331H12.5333V27.4658H11.4667V28.5331ZM11.4667 34.9327H10.4C10.4 35.1309 10.4552 35.3252 10.5593 35.4938C10.6634 35.6624 10.8125 35.7987 10.9896 35.8873C11.1668 35.976 11.3652 36.0135 11.5625 35.9957C11.7598 35.9779 11.9482 35.9055 12.1067 35.7865L11.4667 34.9327ZM20 28.5331V27.4658H19.6437L19.36 27.6793L20 28.5331ZM13.6 12.5321H12.5333V14.6667H13.6V12.5321ZM26.4 14.6667H27.4667V12.5321H26.4V14.6667ZM13.6 18.9316H12.5333V21.0662H13.6V18.9316ZM22.1333 21.0662H23.2V18.9316H22.1333V21.0662ZM10.4 28.5331V34.9327H12.5333V28.5331H10.4ZM12.1067 35.7865L20.64 29.387L19.36 27.6793L10.8267 34.0788L12.1067 35.7865ZM20 29.6004H32.8V27.4658H20V29.6004ZM32.8 29.6004C34.5685 29.6004 36 28.1702 36 26.3985H33.8667C33.8667 26.9898 33.3909 27.4658 32.8 27.4658V29.6004ZM36 26.3985V7.20192H33.8667V26.4006H36V26.3985ZM36 7.20192C36 5.43019 34.5685 4 32.8 4V6.13461C33.3909 6.13461 33.8667 6.61063 33.8667 7.20192H36ZM32.8 4H7.2V6.13461H32.8V4ZM7.2 4C5.43147 4 4 5.43019 4 7.20192H6.13333C6.13333 6.61063 6.60907 6.13461 7.2 6.13461V4ZM4 7.20192V26.3985H6.13333V7.20192H4ZM4 26.3985C4 28.1702 5.43147 29.6004 7.2 29.6004V27.4658C7.05984 27.4661 6.92101 27.4387 6.79147 27.3851C6.66193 27.3316 6.54423 27.253 6.44513 27.1538C6.34602 27.0547 6.26746 26.9369 6.21396 26.8073C6.16045 26.6777 6.13305 26.5387 6.13333 26.3985H4ZM7.2 29.6004H11.4667V27.4658H7.2V29.6004ZM13.6 14.6667H26.4V12.5321H13.6V14.6667ZM13.6 21.0662H22.1333V18.9316H13.6V21.0662Z" fill="white"/>
</svg>
