<svg width="40" height="40" viewBox="0 0 40 40" fill="none" xmlns="http://www.w3.org/2000/svg">
<path d="M22.5 17.5C22.5 18.8261 21.9732 20.0979 21.0355 21.0355C20.0979 21.9732 18.8261 22.5 17.5 22.5C16.1739 22.5 14.9021 21.9732 13.9645 21.0355C13.0268 20.0979 12.5 18.8261 12.5 17.5C12.5 16.1739 13.0268 14.9021 13.9645 13.9645C14.9021 13.0268 16.1739 12.5 17.5 12.5C18.8261 12.5 20.0979 13.0268 21.0355 13.9645C21.9732 14.9021 22.5 16.1739 22.5 17.5ZM20 17.5C20 16.837 19.7366 16.2011 19.2678 15.7322C18.7989 15.2634 18.163 15 17.5 15C16.837 15 16.2011 15.2634 15.7322 15.7322C15.2634 16.2011 15 16.837 15 17.5C15 18.163 15.2634 18.7989 15.7322 19.2678C16.2011 19.7366 16.837 20 17.5 20C18.163 20 18.7989 19.7366 19.2678 19.2678C19.7366 18.7989 20 18.163 20 17.5Z" fill="white"/>
<path d="M2.5 10.625C2.5 8.9 3.9 7.5 5.625 7.5H29.375C31.1 7.5 32.5 8.9 32.5 10.625V24.375C32.5 26.1 31.1 27.5 29.375 27.5H5.625C3.9 27.5 2.5 26.1 2.5 24.375V10.625ZM5.625 10C5.45924 10 5.30027 10.0658 5.18306 10.1831C5.06585 10.3003 5 10.4592 5 10.625V12.5H6.25C6.58152 12.5 6.89946 12.3683 7.13388 12.1339C7.3683 11.8995 7.5 11.5815 7.5 11.25V10H5.625ZM5 24.375C5 24.72 5.28 25 5.625 25H7.5V23.75C7.5 23.4185 7.3683 23.1005 7.13388 22.8661C6.89946 22.6317 6.58152 22.5 6.25 22.5H5V24.375ZM10 23.75V25H25V23.75C25 22.7554 25.3951 21.8016 26.0983 21.0983C26.8016 20.3951 27.7554 20 28.75 20H30V15H28.75C27.7554 15 26.8016 14.6049 26.0983 13.9017C25.3951 13.1984 25 12.2446 25 11.25V10H10V11.25C10 12.2446 9.60491 13.1984 8.90165 13.9017C8.19839 14.6049 7.24456 15 6.25 15H5V20H6.25C7.24456 20 8.19839 20.3951 8.90165 21.0983C9.60491 21.8016 10 22.7554 10 23.75ZM27.5 25H29.375C29.5408 25 29.6997 24.9342 29.8169 24.8169C29.9342 24.6997 30 24.5408 30 24.375V22.5H28.75C28.4185 22.5 28.1005 22.6317 27.8661 22.8661C27.6317 23.1005 27.5 23.4185 27.5 23.75V25ZM30 12.5V10.625C30 10.4592 29.9342 10.3003 29.8169 10.1831C29.6997 10.0658 29.5408 10 29.375 10H27.5V11.25C27.5 11.5815 27.6317 11.8995 27.8661 12.1339C28.1005 12.3683 28.4185 12.5 28.75 12.5H30Z" fill="white"/>
<path d="M11.25 32.5C10.458 32.5003 9.68633 32.2499 9.04546 31.7846C8.40459 31.3193 7.92747 30.6631 7.6825 29.91C8.03 29.97 8.385 30 8.75 30H29.375C30.8668 30 32.2976 29.4074 33.3525 28.3525C34.4074 27.2976 35 25.8668 35 24.375V12.7125C35.7314 12.9711 36.3647 13.4502 36.8124 14.0838C37.2602 14.7173 37.5004 15.4742 37.5 16.25V24.375C37.5 25.442 37.2898 26.4985 36.8815 27.4843C36.4732 28.4701 35.8747 29.3658 35.1202 30.1202C34.3658 30.8747 33.4701 31.4732 32.4843 31.8815C31.4985 32.2898 30.442 32.5 29.375 32.5H11.25Z" fill="white"/>
</svg>
