<svg width="40" height="40" viewBox="0 0 40 40" fill="none" xmlns="http://www.w3.org/2000/svg">
<g clip-path="url(#clip0)">
<path d="M19.744 40C19.1931 40 18.6783 39.8518 18.1975 39.5954L13.3118 36.6948C12.5807 36.2881 12.9473 36.1399 13.1676 36.0658C14.1612 35.7353 14.3455 35.6632 15.3731 35.0782C15.4853 35.0041 15.6315 35.0382 15.7437 35.1123L19.4896 37.3558C19.6378 37.4279 19.8221 37.4279 19.9323 37.3558L34.5934 28.8684C34.7416 28.7963 34.8137 28.6481 34.8137 28.4638V11.5211C34.8137 11.3388 34.7416 11.1906 34.5934 11.1185L19.9323 2.66714C19.786 2.59302 19.6017 2.59302 19.4896 2.66714L4.82445 11.1165C4.67822 11.1886 4.60411 11.3749 4.60411 11.5191V28.4598C4.60411 28.606 4.67822 28.7923 4.82445 28.8644L8.83077 31.1821C10.9982 32.2798 12.3603 30.9918 12.3603 29.7098V12.9914C12.3603 12.7711 12.5426 12.5487 12.801 12.5487H14.676C14.8923 12.5487 15.1167 12.733 15.1167 12.9914V29.7118C15.1167 32.6144 13.5382 34.307 10.7818 34.307C9.93651 34.307 9.27547 34.307 7.40051 33.3856L3.54444 31.1841C3.07461 30.911 2.6847 30.5193 2.41368 30.0483C2.14265 29.5772 2.00001 29.0433 2 28.4999V11.5572C2 10.4554 2.58693 9.4258 3.54444 8.87493L18.1995 0.387547C18.6753 0.133116 19.2065 0 19.746 0C20.2855 0 20.8167 0.133116 21.2924 0.387547L35.9495 8.87493C36.909 9.42379 37.494 10.4554 37.494 11.5572V28.4999C37.494 29.5996 36.907 30.6292 35.9495 31.1841L21.2924 39.6695C20.8097 39.8898 20.2588 40 19.744 40ZM24.2631 28.3496C17.833 28.3496 16.5109 25.409 16.5109 22.9131C16.5109 22.6927 16.6952 22.4704 16.9516 22.4704H18.8626C19.0829 22.4704 19.2652 22.6166 19.2652 22.8389C19.5597 24.784 20.403 25.7415 24.3012 25.7415C27.386 25.7415 28.7121 25.0404 28.7121 23.3878C28.7121 22.4323 28.3415 21.7352 23.5299 21.2585C19.5256 20.8578 17.0277 19.9704 17.0277 16.7754C17.0277 13.8007 19.5256 12.0359 23.7162 12.0359C28.4176 12.0359 30.7333 13.6565 31.0258 17.18C31.0223 17.2989 30.9832 17.4141 30.9136 17.5105C30.8395 17.5827 30.7313 17.6568 30.6211 17.6568H28.7121C28.6177 17.6548 28.5267 17.6214 28.4535 17.5619C28.3802 17.5024 28.3288 17.4202 28.3075 17.3283C27.8648 15.3011 26.727 14.644 23.7162 14.644C20.3329 14.644 19.9283 15.8199 19.9283 16.7013C19.9283 17.7649 20.403 18.0955 24.9642 18.6844C29.4833 19.2713 31.6147 20.1166 31.6147 23.2796C31.5746 26.5147 28.9325 28.3496 24.2631 28.3496Z" fill="white"/>
</g>
<defs>
<clipPath id="clip0">
<rect width="40" height="40" fill="white"/>
</clipPath>
</defs>
</svg>
