<svg width="40" height="40" viewBox="0 0 40 40" fill="none" xmlns="http://www.w3.org/2000/svg">
<path d="M17.15 20.1833C17.305 20.3395 17.4893 20.4635 17.6924 20.5482C17.8955 20.6328 18.1134 20.6763 18.3334 20.6763C18.5534 20.6763 18.7712 20.6328 18.9743 20.5482C19.1774 20.4635 19.3618 20.3395 19.5167 20.1833L26.1834 13.5167C26.3388 13.3613 26.462 13.1768 26.5461 12.9737C26.6302 12.7707 26.6735 12.5531 26.6735 12.3333C26.6735 12.1136 26.6302 11.896 26.5461 11.6929C26.462 11.4899 26.3388 11.3054 26.1834 11.15C26.028 10.9946 25.8435 10.8713 25.6405 10.7872C25.4374 10.7031 25.2198 10.6598 25 10.6598C24.7803 10.6598 24.5627 10.7031 24.3596 10.7872C24.1566 10.8713 23.9721 10.9946 23.8167 11.15L18.3334 16.65L16.1834 14.4833C15.8695 14.1695 15.4439 13.9932 15 13.9932C14.5562 13.9932 14.1305 14.1695 13.8167 14.4833C13.5029 14.7972 13.3266 15.2228 13.3266 15.6667C13.3266 16.1105 13.5029 16.5362 13.8167 16.85L17.15 20.1833ZM36 25.5C36 24.6716 35.3285 24 34.5 24H33V7H34.5C35.3285 7 36 6.32843 36 5.5C36 4.67157 35.3285 4 34.5 4H5.5C4.67157 4 4 4.67157 4 5.5C4 6.32843 4.67157 7 5.5 7H7V24H5.5C4.67157 24 4 24.6716 4 25.5C4 26.3284 4.67157 27 5.5 27H18.3334V28.9167L10.75 33.9167C10.4389 34.1092 10.1998 34.3989 10.0697 34.7408C9.93947 35.0827 9.92543 35.458 10.0297 35.8088C10.134 36.1595 10.3507 36.4661 10.6466 36.6814C10.9424 36.8967 11.3009 37.0087 11.6667 37C11.9944 37.0037 12.315 36.9047 12.5834 36.7167L18.3334 32.9167V35.3333C18.3334 35.7754 18.509 36.1993 18.8215 36.5118C19.1341 36.8244 19.558 37 20 37C20.4421 37 20.866 36.8244 21.1786 36.5118C21.4911 36.1993 21.6667 35.7754 21.6667 35.3333V32.9167L27.4167 36.7167C27.6851 36.9047 28.0057 37.0037 28.3334 37C28.6895 36.9972 29.0353 36.8805 29.3202 36.6669C29.6051 36.4533 29.8142 36.1541 29.9166 35.8131C30.0191 35.4721 30.0097 35.1072 29.8898 34.7719C29.7698 34.4366 29.5456 34.1486 29.25 33.95L21.6667 28.95V27H34.5C35.3285 27 36 26.3284 36 25.5ZM30 24H10V7H30V24Z" fill="white"/>
</svg>
