<svg width="40" height="40" viewBox="0 0 40 40" fill="none" xmlns="http://www.w3.org/2000/svg">
<path fill-rule="evenodd" clip-rule="evenodd" d="M15.4286 5.25C15.1539 5.25 14.8904 5.35912 14.6962 5.55335C14.502 5.74759 14.3929 6.01103 14.3929 6.28571V11.8929H21.1429C21.8332 11.8929 22.3929 12.4525 22.3929 13.1429C22.3929 13.8332 21.8332 14.3929 21.1429 14.3929H6.28571C6.01103 14.3929 5.74759 14.502 5.55335 14.6962C5.35912 14.8904 5.25 15.1539 5.25 15.4286V26.8571C5.25 27.1318 5.35912 27.3953 5.55335 27.5895C5.74759 27.7837 6.01103 27.8929 6.28571 27.8929H11.8929V22.2857C11.8929 21.348 12.2654 20.4487 12.9284 19.7856C13.5915 19.1225 14.4908 18.75 15.4286 18.75H24.5714C24.8461 18.75 25.1096 18.6409 25.3038 18.4466C25.498 18.2524 25.6071 17.989 25.6071 17.7143V6.28571C25.6071 6.01103 25.498 5.74759 25.3038 5.55335C25.1096 5.35912 24.8461 5.25 24.5714 5.25H15.4286ZM28.1071 9.60714V6.28571C28.1071 5.34799 27.7346 4.44866 27.0716 3.78559C26.4085 3.12251 25.5092 2.75 24.5714 2.75H15.4286C14.4908 2.75 13.5915 3.12251 12.9284 3.78559C12.2654 4.44866 11.8929 5.34798 11.8929 6.28571V11.8929H6.28571C5.34798 11.8929 4.44866 12.2654 3.78559 12.9284C3.12251 13.5915 2.75 14.4908 2.75 15.4286V26.8571C2.75 27.7949 3.12251 28.6942 3.78559 29.3573C4.44866 30.0203 5.34798 30.3929 6.28571 30.3929H11.8929V33.7143C11.8929 34.652 12.2654 35.5513 12.9284 36.2144C13.5915 36.8775 14.4908 37.25 15.4286 37.25H24.5714C25.5092 37.25 26.4085 36.8775 27.0716 36.2144C27.7346 35.5513 28.1071 34.652 28.1071 33.7143V28.1071H33.7143C34.652 28.1071 35.5513 27.7346 36.2144 27.0716C36.8775 26.4085 37.25 25.5092 37.25 24.5714V13.1429C37.25 12.2051 36.8775 11.3058 36.2144 10.6427C35.5513 9.97965 34.652 9.60714 33.7143 9.60714H28.1071ZM28.1071 12.1071V17.7143C28.1071 18.652 27.7346 19.5513 27.0716 20.2144C26.4085 20.8775 25.5092 21.25 24.5714 21.25H15.4286C15.1539 21.25 14.8904 21.3591 14.6962 21.5534C14.502 21.7476 14.3929 22.011 14.3929 22.2857V33.7143C14.3929 33.989 14.502 34.2524 14.6962 34.4466C14.8904 34.6409 15.1539 34.75 15.4286 34.75H24.5714C24.8461 34.75 25.1096 34.6409 25.3038 34.4466C25.498 34.2524 25.6071 33.989 25.6071 33.7143V28.1071H18.8571C18.1668 28.1071 17.6071 27.5475 17.6071 26.8571C17.6071 26.1668 18.1668 25.6071 18.8571 25.6071H33.7143C33.989 25.6071 34.2524 25.498 34.4466 25.3038C34.6409 25.1096 34.75 24.8461 34.75 24.5714V13.1429C34.75 12.8682 34.6409 12.6047 34.4466 12.4105C34.2524 12.2163 33.989 12.1071 33.7143 12.1071H28.1071ZM15.75 8.57143C15.75 7.88107 16.3096 7.32143 17 7.32143H19C19.6904 7.32143 20.25 7.88107 20.25 8.57143C20.25 9.26178 19.6904 9.82143 19 9.82143H17C16.3096 9.82143 15.75 9.26178 15.75 8.57143ZM19.75 31.5C19.75 30.8096 20.3096 30.25 21 30.25H23C23.6904 30.25 24.25 30.8096 24.25 31.5C24.25 32.1904 23.6904 32.75 23 32.75H21C20.3096 32.75 19.75 32.1904 19.75 31.5Z" fill="white"/>
</svg>
