<svg width="40" height="40" viewBox="0 0 40 40" fill="none" xmlns="http://www.w3.org/2000/svg">
<path d="M23.7167 20.0067C23.7167 20.9948 23.3243 21.9424 22.6257 22.6413C21.9272 23.3401 20.9798 23.7329 19.9917 23.7334C19.0033 23.7334 18.0554 23.3407 17.3565 22.6419C16.6576 21.943 16.265 20.9951 16.265 20.0067C16.265 19.0186 16.6574 18.071 17.3559 17.3721C18.0545 16.6733 19.0019 16.2805 19.99 16.28C20.9784 16.28 21.9263 16.6727 22.6252 17.3716C23.324 18.0704 23.7167 19.0183 23.7167 20.0067ZM28.13 2.19004C25.8867 2.19004 22.9517 3.79004 19.9833 6.56004C17.0167 3.80504 14.08 2.22337 11.8383 2.22337C11.155 2.22337 10.5333 2.37837 9.995 2.6867C7.70333 4.00837 7.19 8.12671 8.37333 13.295C3.3 14.8617 0 17.3667 0 20.0067C0 22.6567 3.31667 25.1684 8.405 26.7234C7.23167 31.9117 7.755 36.0367 10.0517 37.3567C10.585 37.6684 11.2017 37.815 11.8883 37.815C14.13 37.815 17.0667 36.215 20.035 33.4417C23.0017 36.1984 25.9383 37.78 28.18 37.78C28.8633 37.78 29.485 37.63 30.0233 37.3217C32.3133 36.0017 32.8283 31.8834 31.645 26.7134C36.7 25.16 40 22.65 40 20.0067C40 17.3567 36.6833 14.845 31.595 13.2867C32.7683 8.10337 32.245 3.97504 29.9483 2.65337C29.3931 2.34114 28.7652 2.18129 28.1283 2.19004H28.13ZM28.1217 4.0067V4.01671C28.4967 4.01671 28.7983 4.09004 29.0517 4.22837C30.1617 4.86504 30.6433 7.28671 30.2683 10.4017C30.1783 11.1684 30.0317 11.9767 29.8517 12.8017C28.1474 12.3893 26.4174 12.092 24.6733 11.9117C23.6347 10.4784 22.5016 9.11592 21.2817 7.83337C23.935 5.3667 26.4267 4.01337 28.1233 4.00837L28.1217 4.0067ZM11.8383 4.04004C13.525 4.04004 16.0283 5.3867 18.6883 7.84004C17.545 9.04004 16.405 10.4017 15.3217 11.91C13.5735 12.0882 11.8399 12.3878 10.1333 12.8067C9.9544 12.0251 9.81312 11.2353 9.71 10.44C9.32667 7.3267 9.8 4.9067 10.9 4.2617C11.2167 4.1117 11.5667 4.05004 11.8383 4.0417V4.04004ZM19.975 9.12337C20.7333 9.90337 21.4917 10.7767 22.2417 11.73C21.5083 11.6967 20.7583 11.6734 20 11.6734C19.2333 11.6734 18.475 11.69 17.7333 11.73C18.4667 10.7767 19.225 9.90337 19.975 9.12171V9.12337ZM20 13.5C21.2333 13.5 22.4617 13.5567 23.67 13.655C24.3467 14.625 25.0067 15.66 25.6417 16.755C26.2617 17.8217 26.825 18.905 27.3383 19.9984C26.825 21.09 26.2617 22.1817 25.65 23.2484C25.0167 24.3484 24.3617 25.395 23.6833 26.365C21.237 26.5791 18.7768 26.5819 16.33 26.3734C15.6303 25.3677 14.9725 24.3335 14.3583 23.2734C13.7383 22.2067 13.175 21.1234 12.6617 20.03C13.1767 18.9204 13.74 17.8338 14.35 16.7734C14.9833 15.6734 15.6383 14.63 16.3167 13.66C17.5415 13.5518 18.7704 13.4973 20 13.4967V13.5ZM13.9417 13.9234C13.5417 14.5517 13.1417 15.195 12.7683 15.8567C12.3933 16.5067 12.0433 17.16 11.71 17.8134C11.2683 16.72 10.8933 15.63 10.5833 14.5684C11.65 14.3184 12.775 14.0967 13.9417 13.925V13.9234ZM26.0417 13.9234C27.2 14.095 28.3167 14.3067 29.385 14.5684C29.085 15.6217 28.71 16.705 28.285 17.79C27.6049 16.4634 26.8567 15.1728 26.0433 13.9234H26.0417ZM31.1467 15.0484C31.9533 15.2984 32.72 15.5767 33.4383 15.8784C36.325 17.1117 38.1917 18.725 38.1917 20.005C38.1833 21.285 36.3167 22.905 33.43 24.13C32.73 24.43 31.9633 24.7 31.1717 24.9517C30.6711 23.2574 30.0586 21.5982 29.3383 19.985C30.0883 18.29 30.6883 16.635 31.1467 15.045V15.0484ZM8.82167 15.055C9.285 16.655 9.89667 18.3167 10.655 20.0217C9.93993 21.6253 9.33519 23.2758 8.845 24.9617C8.03833 24.7117 7.27167 24.4317 6.56167 24.1284C3.675 22.9 1.80833 21.285 1.80833 20.005C1.80833 18.725 3.675 17.1017 6.56167 15.8784C7.26167 15.5784 8.02833 15.3084 8.82167 15.055ZM28.285 22.1884C28.7267 23.2834 29.1017 24.375 29.4117 25.435C28.345 25.6967 27.2183 25.9184 26.0517 26.085C26.864 24.826 27.61 23.5253 28.2867 22.1884H28.285ZM11.71 22.2217C12.0433 22.875 12.3933 23.5267 12.7767 24.18C13.16 24.83 13.5517 25.4667 13.9517 26.085C12.8279 25.9225 11.7122 25.7078 10.6083 25.4417C10.9083 24.3917 11.285 23.305 11.7083 22.22L11.71 22.2217ZM29.8667 27.2C30.0533 28.0217 30.2 28.8134 30.29 29.5717C30.6733 32.685 30.2 35.105 29.1 35.7517C28.855 35.9017 28.5367 35.965 28.1617 35.965C26.475 35.965 23.9717 34.62 21.3117 32.165C22.455 30.965 23.595 29.605 24.6783 28.0984C26.5233 27.9017 28.2683 27.5984 29.8667 27.1984V27.2ZM10.15 27.2167C11.75 27.6067 13.4933 27.9084 15.3283 28.1034C16.4283 29.6117 17.57 30.9817 18.72 32.18C16.0617 34.6517 13.5667 36.005 11.87 36.005C11.5495 36.0076 11.2332 35.9321 10.9483 35.785C9.83833 35.1517 9.35667 32.7284 9.73167 29.6134C9.82167 28.8467 9.96833 28.04 10.1483 27.2167H10.15ZM17.75 28.2834C18.4833 28.3167 19.2333 28.34 19.9917 28.34C20.7583 28.34 21.5167 28.3234 22.2583 28.2834C21.525 29.2367 20.7667 30.1084 20.0167 30.8917C19.2583 30.1084 18.5 29.2367 17.75 28.2834Z" fill="white"/>
</svg>
