<svg width="109" height="26" viewBox="0 0 109 26" fill="none" xmlns="http://www.w3.org/2000/svg">
<path fill-rule="evenodd" clip-rule="evenodd" d="M35.2022 10.4741L35.2161 20.9481L37.0168 20.9626L38.8174 20.9769V10.4885V0H37.0029H35.1883L35.2022 10.4741ZM79.2294 10.4877V20.9754H80.2466H81.2637V19.883C81.2637 19.2821 81.2792 18.7905 81.2983 18.7905C81.3172 18.7905 81.5737 19.0203 81.8683 19.3011C83.2704 20.6381 84.9441 21.3141 86.8444 21.3108C88.8718 21.3073 90.5461 20.6193 91.9631 19.2073C92.6222 18.5504 92.9851 18.0567 93.3739 17.2875C93.9106 16.2257 94.1704 15.2206 94.2222 14.0051C94.3438 11.1558 93.0693 8.5972 90.7911 7.1169C90.0194 6.61546 89.164 6.2798 88.1571 6.08332C87.4936 5.95386 86.1952 5.95386 85.5318 6.08332C83.9988 6.38243 82.6825 7.08156 81.7155 8.11023C81.503 8.33632 81.3144 8.52127 81.2964 8.52127C81.2785 8.52127 81.2637 6.60399 81.2637 4.26064V0H80.2466H79.2294V10.4877ZM0 11.3617V20.9754H1.8694H3.73879V17.6434V14.3114H6.01473H8.29071L10.3721 17.643L12.4535 20.9747L14.6633 20.9751C15.8786 20.9753 16.8856 20.9552 16.901 20.9304C16.9164 20.9057 15.8917 19.3396 14.6239 17.4502L12.3188 14.0149L12.7985 13.7671C13.4548 13.4281 13.748 13.2174 14.3048 12.6846C15.5521 11.491 16.1652 9.9948 16.1646 8.14541C16.1639 6.31017 15.5776 4.78721 14.4095 3.5868C13.4695 2.62095 12.4028 2.06078 11.0605 1.82825C10.6745 1.76134 9.71283 1.74795 5.29858 1.74795H0V11.3617ZM9.92429 5.40904C11.2474 5.59394 12.2021 6.74104 12.2052 8.14989C12.2083 9.52296 11.2876 10.7115 10.0178 10.9738C9.82637 11.0133 8.69978 11.034 6.73263 11.034H3.73879V8.19353V5.35311L6.6391 5.3542C8.23826 5.3548 9.71206 5.37938 9.92429 5.40904ZM24.3895 6.01012C23.0236 6.16547 21.7519 6.61895 20.6738 7.33518C20.143 7.68777 19.1196 8.70454 18.7647 9.23182C18.2043 10.0644 17.8069 11.0077 17.5842 12.0342C17.4065 12.8536 17.4075 14.4751 17.5862 15.2946C18.2646 18.4048 20.4901 20.5719 23.6554 21.205C24.5389 21.3817 26.087 21.3813 26.9813 21.2042C29.3649 20.732 31.2195 19.4176 32.2025 17.5037C32.356 17.205 32.4985 16.9053 32.5192 16.8377L32.5569 16.7148L30.615 16.7152L28.6732 16.7155L28.3642 17.0293C27.7902 17.6121 27.0044 17.9622 25.994 18.0854C23.9372 18.3361 22.0965 17.3762 21.383 15.6808C21.2999 15.4834 21.2148 15.2298 21.1939 15.1171L21.1559 14.9122H27.0687H32.9814L33.0248 14.5981C33.0487 14.4254 33.0656 13.9522 33.0625 13.5466C33.0397 10.5889 31.5159 8.07156 28.9805 6.80309C28.4315 6.52844 27.4097 6.19972 26.7763 6.09402C26.1262 5.98549 24.965 5.94468 24.3895 6.01012ZM46.9096 6.08763C44.7188 6.49977 42.844 7.97225 41.8381 10.0709C41.5245 10.7253 41.3334 11.2889 41.1704 12.0409C41.0067 12.7955 40.9948 14.4031 41.1468 15.2127C41.3726 16.4153 41.875 17.6104 42.5419 18.5312C42.9775 19.1327 43.857 19.9495 44.4816 20.3327C46.9645 21.856 50.2117 21.6361 52.4135 19.7955C52.6434 19.6033 52.8454 19.446 52.8623 19.446C52.8791 19.446 52.8929 19.7901 52.8929 20.2107V20.9754H54.5699H56.2468V13.6559V6.33633H54.5699H52.8929V7.10106C52.8929 7.62758 52.8738 7.86579 52.8315 7.86579C52.7978 7.86579 52.6261 7.73327 52.45 7.57132C51.8183 6.99029 50.8036 6.46819 49.7694 6.19202C49.3125 6.06999 49.0995 6.04705 48.2744 6.03082C47.6106 6.01777 47.1873 6.03541 46.9096 6.08763ZM93.4352 6.3489C93.478 6.44716 94.9899 9.63696 96.7951 13.4374L100.077 20.3473L98.6704 23.1469C97.8966 24.6866 97.2635 25.9587 97.2635 25.9737C97.2635 25.9886 97.777 26.0004 98.4044 26L99.5453 25.9992L104.026 16.2932C106.491 10.9549 108.549 6.49387 108.601 6.37981L108.694 6.17246L107.556 6.17301L106.418 6.1735L103.823 11.9221C102.317 15.2561 101.197 17.6707 101.156 17.6707C101.115 17.6707 99.9403 15.2172 98.409 11.9352L95.7331 6.19977L94.5453 6.18503L93.3575 6.17033L93.4352 6.3489ZM58.1441 6.48125C58.2269 6.60672 63.1119 13.2594 63.2336 13.4122C63.2608 13.4465 62.1873 14.9443 60.5326 17.1808C59.0221 19.2223 57.7863 20.9115 57.7863 20.9346C57.7863 20.9578 58.7572 20.9703 59.9439 20.9624L62.1015 20.9481L63.9236 18.3284C64.9258 16.8875 65.7691 15.7008 65.7976 15.6914C65.8262 15.6819 66.6375 16.867 67.6006 18.3248L69.3515 20.9754H71.5414C72.9013 20.9754 73.7312 20.9556 73.7312 20.9231C73.7312 20.8943 72.5173 19.221 71.0338 17.2047C69.5502 15.1885 68.344 13.5075 68.3534 13.4692C68.3628 13.4309 69.5456 11.834 70.982 9.92046C72.4185 8.00688 73.602 6.41767 73.612 6.38883C73.6236 6.35583 72.8453 6.33633 71.5201 6.33633H69.4098L67.653 8.80368C66.6868 10.1607 65.8715 11.2709 65.8412 11.2707C65.811 11.2705 65.0069 10.161 64.0543 8.8051L62.3223 6.33988L60.1855 6.33808L58.0486 6.33633L58.1441 6.48125ZM87.8891 8.02655C88.8114 8.27427 89.8883 8.9233 90.5038 9.60244C93.161 12.5347 92.3456 17.1798 88.8727 18.8941C86.185 20.2208 82.9941 19.0346 81.5256 16.1626L81.2912 15.7043L81.2755 13.7252C81.2577 11.479 81.2345 11.624 81.7537 10.7417C82.6211 9.2676 83.9736 8.2705 85.5482 7.9444C86.0899 7.83214 87.3269 7.87562 87.8891 8.02655ZM26.198 9.12989C27.535 9.36313 28.6419 10.3189 29.0809 11.6194C29.144 11.8063 29.1956 11.9968 29.1956 12.0427C29.1956 12.1171 28.7525 12.1264 25.2093 12.1264C21.7301 12.1264 21.2231 12.1162 21.2231 12.0457C21.2231 11.8796 21.5109 11.2135 21.7214 10.8923C22.6489 9.4773 24.3502 8.8075 26.198 9.12989ZM49.5665 9.34265C50.8875 9.52957 52.0839 10.3319 52.7475 11.4758L52.8929 11.7264L52.892 13.688L52.891 15.6496L52.7347 15.9134C52.3258 16.6034 51.7184 17.1528 50.941 17.536C50.2651 17.8692 49.8916 17.9695 49.1793 18.0094C48.315 18.0578 47.5044 17.8632 46.7988 17.438C45.7481 16.8047 45.0534 15.8964 44.744 14.7514C44.5937 14.195 44.5843 13.1857 44.7244 12.6454C45.2926 10.453 47.3751 9.03255 49.5665 9.34265ZM75.8973 18.4052C75.4254 18.5172 74.9535 18.9491 74.8333 19.3791C74.7334 19.7366 74.7638 20.2102 74.9063 20.5142C75.4369 21.6461 77.1922 21.6211 77.6886 20.4746C77.8635 20.0709 77.8302 19.4638 77.6132 19.0959C77.2871 18.5431 76.5561 18.2488 75.8973 18.4052ZM103.312 19.5279C103.312 19.5886 103.376 19.6099 103.559 19.6099H103.806V20.2927C103.806 20.939 103.812 20.9754 103.916 20.9754C104.02 20.9754 104.026 20.939 104.026 20.2927V19.6099H104.274C104.457 19.6099 104.521 19.5886 104.521 19.5279C104.521 19.4601 104.417 19.446 103.916 19.446C103.415 19.446 103.312 19.4601 103.312 19.5279ZM104.741 20.2073C104.741 20.9348 104.747 20.9754 104.849 20.9754C104.95 20.9754 104.959 20.9304 104.973 20.3609L104.989 19.7464L105.232 20.3631C105.408 20.8111 105.498 20.9754 105.559 20.9637C105.61 20.954 105.736 20.7096 105.877 20.347L106.111 19.7464L106.113 20.3609C106.116 20.9382 106.122 20.9754 106.226 20.9754C106.33 20.9754 106.336 20.939 106.336 20.2107V19.446H106.18C106.033 19.446 106.013 19.4767 105.814 20.0059C105.698 20.3138 105.587 20.585 105.567 20.6085C105.546 20.632 105.43 20.3862 105.309 20.0623C105.098 19.4948 105.083 19.4727 104.915 19.4562L104.741 19.439V20.2073Z" fill="#009FE3"/>
</svg>
