<svg width="39" height="38" viewBox="0 0 39 38" fill="none" xmlns="http://www.w3.org/2000/svg">
<path d="M3.98287 7.96385C3.45979 7.96537 2.94161 7.86324 2.4583 7.6633C1.9749 7.46344 1.53601 7.16975 1.16684 6.79923C0.985853 6.61781 0.82238 6.41973 0.678536 6.20769C0.327559 5.68562 0.104941 5.088 0.0291273 4.46355C-0.0467712 3.8391 0.0261651 3.2056 0.242015 2.61474C0.273068 2.52987 0.310298 2.43891 0.35582 2.33755C0.382727 2.27959 0.409634 2.22374 0.438572 2.1679C0.492386 2.07067 0.552378 1.95899 0.620661 1.86388C0.937878 1.36373 1.36179 0.939896 1.86211 0.622764C1.96136 0.560742 2.06899 0.502783 2.17036 0.449054C2.22621 0.420031 2.28002 0.393123 2.33587 0.368331C2.43935 0.320778 2.53039 0.283549 2.61517 0.252496C3.05263 0.0885148 3.51572 0.00373125 3.98287 0.0022082H13.9971C14.4637 0.00110822 14.9268 0.083013 15.3648 0.244202C15.4495 0.275255 15.5406 0.312485 15.642 0.358008L15.8117 0.440762C15.9172 0.494492 16.0186 0.554481 16.1179 0.614472C16.3693 0.773208 16.6024 0.959104 16.8131 1.16886C17.0224 1.3793 17.2077 1.61241 17.3655 1.86388C17.4297 1.96525 17.4876 2.07067 17.5414 2.17001C17.5704 2.22789 17.5972 2.2817 17.6221 2.33755C17.6696 2.44306 17.707 2.53199 17.7379 2.61677C17.9538 3.20737 18.0265 3.84079 17.9503 4.4649C17.8741 5.0891 17.651 5.6863 17.2993 6.20769C17.1553 6.41838 16.9925 6.6157 16.8131 6.7972C16.4438 7.16747 16.0049 7.46108 15.5216 7.66093C15.0382 7.86079 14.5202 7.96309 13.9971 7.96173L3.98287 7.96385Z" fill="white"/>
<path d="M3.98294 27.9886C6.18264 27.9886 7.96587 26.2058 7.96587 24.0067C7.96587 21.8076 6.18264 20.0249 3.98294 20.0249C1.78324 20.0249 0 21.8076 0 24.0067C0 26.2058 1.78324 27.9886 3.98294 27.9886Z" fill="white"/>
<path d="M13.9971 17.975C13.3723 17.9743 12.7565 17.8268 12.1992 17.5447C11.6418 17.2624 11.1585 16.8532 10.7883 16.3501C10.4181 15.847 10.1713 15.2639 10.0678 14.6479C9.96419 14.0319 10.0068 13.4003 10.1921 12.8038C10.2129 12.7417 10.2335 12.6797 10.2563 12.6197C10.3889 12.2571 10.5736 11.9156 10.8046 11.6061C11.1895 11.0924 11.6917 10.6782 12.2695 10.3982C12.3874 10.3423 12.5074 10.2927 12.6275 10.2492C13.066 10.0878 13.5298 10.0058 13.9971 10.0072H24.0528C25.6335 9.98908 27.1449 9.35524 28.2654 8.24046C29.386 7.12559 30.0273 5.61777 30.0531 4.03761V3.98379C30.0539 3.05998 30.374 2.16485 30.9593 1.44987L31.0917 1.29892C31.1372 1.24925 31.1807 1.20584 31.2241 1.16235C31.2676 1.11894 31.3152 1.07342 31.3607 1.03204L31.3731 1.02172C31.4187 0.980345 31.4621 0.943115 31.5056 0.907915L31.5242 0.893447L31.6545 0.79208L31.6794 0.77558C31.7249 0.742496 31.7663 0.711442 31.8097 0.682504L31.8407 0.663892L31.969 0.581137L32.0104 0.558378C32.0559 0.531471 32.0952 0.506677 32.1366 0.485947L32.1842 0.461155L32.3041 0.399133L32.3828 0.363935L32.4842 0.312237L32.5814 0.272892L32.6663 0.241921L32.8484 0.179816L33.0387 0.126086L33.2311 0.0825936L33.4256 0.0474808L33.6325 0.0205716L33.8395 0.00610352H34.036C35.0918 0.00720349 36.1041 0.427142 36.8504 1.17369C37.5968 1.92024 38.0163 2.93238 38.0168 3.98794V4.04582C38.0168 4.09963 38.0168 4.14718 38.0168 4.1927C38.0168 4.23823 38.0024 4.37056 38.0003 4.39959C37.9982 4.42852 37.9796 4.57127 37.9755 4.60638C37.9713 4.64158 37.9465 4.78018 37.9403 4.80294C37.9341 4.8257 37.8947 5.00973 37.8947 5.00973L37.843 5.19385C37.8327 5.22076 37.8224 5.25384 37.81 5.2849L37.7789 5.37797L37.7086 5.55786L37.6631 5.65923L37.6299 5.73369L37.541 5.90537L37.4747 6.02121L37.4479 6.06884L37.3713 6.18671L37.3527 6.21565C37.3195 6.26743 37.2886 6.31084 37.2554 6.35424L37.2389 6.37701C37.2058 6.4205 37.1726 6.46594 37.1375 6.50943C37.1023 6.55283 37.0485 6.61494 37.0093 6.65835L36.9947 6.67485L36.8768 6.80109C36.8251 6.85279 36.7816 6.89416 36.7361 6.93554C36.6906 6.97692 36.6409 7.02236 36.5933 7.0617C35.8769 7.65967 34.9735 7.98754 34.0402 7.98839H33.9987C32.4179 8.00599 30.9062 8.63966 29.7855 9.75453C28.6649 10.8695 28.0237 12.3776 27.9985 13.9581V14.0118C27.9987 14.9419 27.6746 15.8432 27.0819 16.5602L26.9495 16.7132C26.9039 16.7608 26.8626 16.8042 26.817 16.8477C26.7715 16.8911 26.724 16.9387 26.6805 16.978L26.5357 17.1021L26.5211 17.1145L26.3867 17.218L26.366 17.2324L26.2315 17.3297L26.2046 17.3441C26.157 17.3772 26.1136 17.4041 26.0701 17.431L26.0328 17.4538L25.9067 17.5241L25.8404 17.5592L25.7349 17.613L25.6811 17.6358C25.6253 17.6627 25.5922 17.6772 25.5591 17.6895L25.497 17.7144L25.379 17.7619L25.2859 17.793L25.1949 17.824L25.0066 17.8758L24.8163 17.9212L24.6218 17.9544L24.4148 17.9812L24.208 17.9957H13.9971V17.975Z" fill="white"/>
<path d="M24.0114 7.96368C23.2235 7.96402 22.4531 7.73082 21.7978 7.29345C21.1425 6.85609 20.6317 6.23417 20.3299 5.50658C20.0282 4.7789 19.9492 3.97812 20.1028 3.20551C20.2564 2.43291 20.6358 1.72325 21.1929 1.16624C21.7501 0.609225 22.46 0.229986 23.2328 0.0764126C24.0056 -0.0771613 24.8066 0.00186911 25.5344 0.303432C26.2624 0.60508 26.8844 1.11581 27.3219 1.77089C27.7594 2.42605 27.9926 3.19621 27.9922 3.98388C27.9911 5.03901 27.5713 6.05065 26.8251 6.79677C26.0788 7.5429 25.0669 7.96258 24.0114 7.96368Z" fill="white"/>
<path d="M24.0113 27.9865C22.9554 27.9859 21.943 27.5665 21.1962 26.8204C20.4494 26.0742 20.0294 25.0623 20.0283 24.0067C20.0283 23.9364 20.0283 23.8703 20.0283 23.7999V23.7027C20.0283 23.6655 20.0283 23.6303 20.0283 23.5972C20.0283 23.5972 20.049 23.4255 20.0531 23.3903C20.0573 23.3552 20.0842 23.2208 20.0883 23.1835C20.0925 23.1463 20.1255 23.0201 20.1317 22.9953L20.1877 22.7884L20.2497 22.6064L20.3201 22.4264C20.3201 22.4058 20.3987 22.2527 20.3987 22.2527L20.4566 22.143L20.4876 22.0789C20.5021 22.0561 20.5808 21.9176 20.5808 21.9176C20.6035 21.8803 20.6304 21.8369 20.6594 21.7955L20.6842 21.7563C20.709 21.7169 20.7401 21.6755 20.7711 21.6342L20.7897 21.6073L20.889 21.4791L20.9035 21.4605C20.9428 21.4149 20.978 21.3715 21.0153 21.3302L21.0359 21.3074L21.1497 21.1854L21.2904 21.0488L21.4373 20.9226C22.1536 20.3243 23.0572 19.9964 23.9905 19.996H24.0319C25.6127 19.9779 27.124 19.344 28.2446 18.2291C29.3651 17.1144 30.0064 15.6065 30.0322 14.0263V13.9726C30.0322 13.043 30.3564 12.1426 30.9488 11.4262L30.9633 11.4076L31.0812 11.2731C31.1268 11.2236 31.1702 11.178 31.2137 11.1367C31.2571 11.0953 31.3067 11.0456 31.3523 11.0042C31.3978 10.9629 31.4495 10.9195 31.495 10.8843L31.5136 10.8678L31.6419 10.7664L31.6709 10.7478L31.7992 10.6567L31.8323 10.6361L31.9585 10.5554L31.9999 10.5327L32.126 10.4603L32.1737 10.4355L32.2957 10.3734L32.3516 10.3486L32.4716 10.2947L32.5627 10.2575L32.6496 10.2244L32.8358 10.1624L33.0219 10.1086L33.2123 10.0652L33.4192 10.03H33.4916L33.6241 10.0135L33.831 9.99902H34.0276C35.0834 10 36.0956 10.42 36.842 11.1666C37.5884 11.9132 38.0079 12.9253 38.0084 13.9808V14.0387C38.0084 14.0925 38.0084 14.1401 38.0084 14.1856C38.0084 14.2311 37.9939 14.3635 37.9919 14.3924C37.9898 14.4214 37.9712 14.5662 37.967 14.589C37.9629 14.6117 37.9381 14.7627 37.9318 14.7958C37.9256 14.8289 37.8863 15.0027 37.8863 15.0027L37.8326 15.1888L37.7705 15.3729L37.7001 15.5529L37.6215 15.7286L37.5325 15.8983C37.5139 15.9335 37.4912 15.9749 37.4663 16.0162L37.4394 16.0638L37.3629 16.1838L37.3443 16.2106C37.3112 16.2624 37.2801 16.3058 37.2491 16.3472L37.2305 16.3741L37.1311 16.5002L37.1145 16.5209C37.0773 16.5664 37.0422 16.6078 37.0049 16.6492L36.9863 16.6719L36.8684 16.796L36.8518 16.8125C36.8187 16.8456 36.7752 16.8891 36.7297 16.9284C36.6842 16.9677 36.6325 17.0173 36.5828 17.0567C35.8672 17.6546 34.9643 17.9826 34.0317 17.9833H33.9903C32.4094 18.0009 30.8977 18.6346 29.7771 19.7496C28.6565 20.8644 28.0153 22.3726 27.99 23.953V23.9964C27.9903 24.9266 27.6661 25.8278 27.0734 26.5448L26.941 26.6979L26.8107 26.8323L26.7961 26.8468L26.672 26.9626L26.6576 26.975C26.6141 27.0143 26.5728 27.0516 26.5272 27.0868L26.5107 27.0991C26.4651 27.1363 26.4216 27.1715 26.3761 27.2046L26.3555 27.2191C26.31 27.2522 26.2686 27.2832 26.2231 27.3122L26.1941 27.3308L26.0637 27.4135L26.0224 27.4383L25.8982 27.5087L25.8506 27.5335L25.7265 27.5955L25.6706 27.6224L25.5506 27.6763L25.4596 27.7114L25.3727 27.7445L25.2651 27.7817L25.1885 27.8066L25.0748 27.8397L25.0023 27.8603L24.8078 27.9038L24.6134 27.9389L24.4064 27.9658L24.1995 27.9803C24.1478 27.9865 24.0795 27.9865 24.0113 27.9865Z" fill="white"/>
<path d="M34.0258 27.9886C36.2255 27.9886 38.0087 26.2058 38.0087 24.0067C38.0087 21.8076 36.2255 20.0249 34.0258 20.0249C31.8261 20.0249 30.0428 21.8076 30.0428 24.0067C30.0428 26.2058 31.8261 27.9886 34.0258 27.9886Z" fill="white"/>
<path d="M24.0115 37.9982C23.4809 38.0103 22.9533 37.9163 22.4597 37.7217C21.9659 37.527 21.5161 37.2358 21.1366 36.8649C20.7571 36.4941 20.4556 36.0511 20.2497 35.5621C20.0439 35.0731 19.9377 34.5479 19.9377 34.0174C19.9377 33.4869 20.0439 32.9617 20.2497 32.4727C20.4556 31.9837 20.7571 31.5408 21.1366 31.1699C21.5161 30.7991 21.9659 30.5078 22.4597 30.3132C22.9533 30.1186 23.4809 30.0246 24.0115 30.0367H34.0236C35.064 30.0604 36.0538 30.4901 36.7812 31.2341C37.5085 31.9781 37.9159 32.9771 37.9159 34.0174C37.9159 35.0577 37.5085 36.0568 36.7812 36.8008C36.0538 37.5447 35.064 37.9745 34.0236 37.9982H24.0115Z" fill="white"/>
<path d="M13.9976 38C16.1973 38 17.9805 36.2173 17.9805 34.0182C17.9805 31.8191 16.1973 30.0364 13.9976 30.0364C11.7979 30.0364 10.0146 31.8191 10.0146 34.0182C10.0146 36.2173 11.7979 38 13.9976 38Z" fill="white"/>
<path d="M3.98295 37.998C3.64661 37.9983 3.31162 37.9566 2.98561 37.8738C2.85945 37.8408 2.7332 37.8015 2.61322 37.758L2.43113 37.6857C2.19531 37.585 1.96948 37.4624 1.75659 37.3195L1.59938 37.2078C1.44581 37.0936 1.3012 36.9678 1.16692 36.8313C0.985339 36.6518 0.822457 36.4543 0.680729 36.2418C0.499233 35.9759 0.351919 35.6881 0.24209 35.3854C0.0808164 34.9477 -0.00108904 34.4847 1.09336e-05 34.0182C1.09336e-05 33.9478 1.09336e-05 33.8817 1.09336e-05 33.8114V33.7059C1.09336e-05 33.6707 1.09336e-05 33.6376 1.09336e-05 33.6066C1.09336e-05 33.6066 0.0206566 33.4349 0.0248027 33.4122C0.0289488 33.3894 0.0579711 33.2177 0.0579711 33.2177L0.10341 33.0253C0.10341 33.0005 0.159338 32.8288 0.159338 32.8288L0.22136 32.6447L0.291759 32.4647L0.372396 32.2889C0.386949 32.26 0.405566 32.2207 0.426212 32.1835L0.457265 32.1214L0.523432 32.0055L0.554485 31.9518L0.631061 31.8339L0.647646 31.807C0.68073 31.7574 0.711781 31.716 0.740719 31.6746L0.761449 31.6457C0.794533 31.6002 0.827619 31.5588 0.862819 31.5154L0.877287 31.4968L0.988977 31.3665L1.00759 31.3457C1.04076 31.3085 1.08002 31.2671 1.1214 31.2257L1.14213 31.2051C1.17521 31.172 1.2187 31.1285 1.26422 31.0871C1.99723 30.4118 2.95709 30.036 3.95392 30.0343H3.99538C5.57622 30.0167 7.08793 29.383 8.20855 28.2681C9.32918 27.1532 9.97038 25.645 9.9956 24.0646V23.9633C9.97749 22.3827 9.34314 20.8714 8.22759 19.7511C7.11205 18.6308 5.60322 17.99 4.02221 17.9647H3.99327C3.05888 17.9681 2.15275 17.6447 1.43176 17.0504C1.38209 17.0118 1.33454 16.9705 1.28902 16.9264L1.15245 16.796L1.02215 16.6575C0.98077 16.6098 0.943455 16.5685 0.906225 16.523L0.891755 16.5044L0.790388 16.374L0.763481 16.343C0.732428 16.2995 0.701376 16.2582 0.672438 16.2127L0.65179 16.1797C0.622768 16.1362 0.59586 16.0948 0.571068 16.0534L0.548309 16.0162L0.475878 15.888L0.43865 15.8156C0.413774 15.7762 0.413773 15.7452 0.388981 15.7225C0.388981 15.7225 0.322728 15.5777 0.310374 15.5467L0.239975 15.3688L0.177953 15.1847L0.12414 14.9861C0.12414 14.9654 0.0847941 14.8186 0.080648 14.7978C0.0765866 14.7772 0.0496787 14.6261 0.0455326 14.591C0.0413866 14.5558 0.0455326 14.5455 0.0455326 14.5227L0.0269175 14.3841C0.0269175 14.3635 0.0124494 14.1774 0.0124494 14.1774C0.0124494 14.1215 0.0124494 14.0532 0.0124494 13.9849C0.0118571 13.7814 0.0270871 13.578 0.0579711 13.3768C0.0786169 13.2485 0.105524 13.1162 0.138608 12.9879C0.155192 12.9259 0.171694 12.8618 0.192424 12.7997C0.344052 12.3072 0.591546 11.8496 0.920694 11.4531C0.96207 11.4035 1.00353 11.3559 1.04694 11.3084C1.42 10.901 1.87353 10.5756 2.37893 10.3527C2.88432 10.1299 3.43051 10.0143 3.98295 10.0134H4.18983H4.29534H4.39265L4.59953 10.0383L4.79397 10.0734L4.96574 10.1376L5.16229 10.1934L5.34641 10.2555L5.52435 10.3258L5.69815 10.4044L5.86992 10.4912L6.00022 10.5512L6.05201 10.5803C6.08924 10.6009 6.13061 10.6278 6.17199 10.6547L6.1989 10.6733C6.2506 10.7064 6.29197 10.7375 6.33335 10.7684L6.35611 10.7829L6.48853 10.8864L6.51129 10.905L6.63956 11.0146L6.65615 11.029C6.69752 11.0664 6.74102 11.1056 6.78239 11.147L6.91896 11.2876L7.04723 11.4345C7.64478 12.1509 7.97206 13.0542 7.97206 13.9871V14.0283C7.98915 15.609 8.62282 17.1206 9.7382 18.241C10.8535 19.3615 12.3624 20.0022 13.9433 20.0269H13.9951C14.9201 20.0262 15.8167 20.3464 16.5317 20.933L16.5917 20.9909L16.6166 21.0033L16.6994 21.0757C16.7469 21.1212 16.7904 21.1626 16.8338 21.2081L16.8483 21.2205C16.8856 21.2577 16.9249 21.3011 16.9642 21.3446V21.357C17.0056 21.4025 17.0428 21.4439 17.0759 21.4873L17.0925 21.508C17.1277 21.5514 17.1628 21.5949 17.1939 21.6383L17.2104 21.6611L17.3056 21.7934L17.3221 21.8225C17.3532 21.87 17.3801 21.9114 17.4049 21.9528L17.4298 21.9941L17.5022 22.1203L17.5373 22.1906C17.558 22.23 17.5725 22.2589 17.587 22.2899L17.6263 22.3726L17.6656 22.4637L17.7049 22.5609C17.7049 22.5898 17.7277 22.6167 17.738 22.6457L17.7732 22.7491C17.7732 22.776 17.7918 22.8029 17.798 22.8277L17.8518 23.0159C17.8518 23.0159 17.8912 23.1814 17.8973 23.2083C17.9036 23.2352 17.9264 23.3779 17.9304 23.4048C17.9346 23.4317 17.9573 23.6117 17.9573 23.6117L17.9718 23.8185C17.9718 23.8785 17.9718 23.9447 17.9718 24.0254C17.9718 24.106 17.9718 24.1618 17.9718 24.2322V24.3315C17.9718 24.3687 17.9718 24.4039 17.9718 24.439C17.9718 24.439 17.9511 24.6087 17.947 24.6315L17.9118 24.8383C17.9118 24.8507 17.8746 25.0017 17.8684 25.0265L17.8125 25.221C17.8125 25.2354 17.7504 25.4051 17.7504 25.4051L17.6801 25.585L17.5994 25.7608C17.587 25.7877 17.5145 25.9304 17.5145 25.9304L17.4504 26.0401L17.4194 26.0959L17.3429 26.2138L17.3242 26.2428C17.2911 26.2924 17.2621 26.3338 17.2311 26.3752L17.2125 26.4021C17.1794 26.4475 17.1442 26.491 17.1111 26.5324L17.0925 26.5551C17.0594 26.5986 17.0222 26.6399 16.9849 26.6833L16.9684 26.702L16.8504 26.8261L16.8318 26.8447L16.7077 26.9627C16.658 27.0081 16.6125 27.0495 16.5628 27.0908L16.5421 27.1074C15.8285 27.6926 14.9346 28.0135 14.0116 28.0155H13.9702C12.3893 28.033 10.8777 28.6668 9.75707 29.7816C8.63645 30.8966 7.99524 32.4047 7.97003 33.9851V34.0347C7.9614 34.9616 7.63081 35.8566 7.03479 36.5666L6.91067 36.7093C6.86514 36.761 6.82165 36.8045 6.78028 36.8458L6.64168 36.9762C6.59404 37.0196 6.55267 37.0568 6.50926 37.092L6.49267 37.1044L6.35822 37.2099L6.34164 37.2202L6.20507 37.3174L6.16996 37.3382L6.04371 37.4209L6.00234 37.4436L5.87821 37.514L5.82643 37.5408L5.70856 37.6008L5.6506 37.6277L5.53062 37.6794L5.35056 37.7518L5.16644 37.8138L4.9802 37.8655L4.78982 37.909L4.58294 37.9442L4.38638 37.969L4.17951 37.9855L3.98295 37.998Z" fill="white"/>
</svg>
