<svg width="57" height="56" viewBox="0 0 57 56" fill="none" xmlns="http://www.w3.org/2000/svg">
<path d="M5.86949 11.7361C5.09864 11.7384 4.33501 11.5879 3.62276 11.2932C2.91038 10.9987 2.2636 10.5659 1.71956 10.0198C1.45284 9.7525 1.21193 9.46059 0.999948 9.14811C0.482718 8.37875 0.15465 7.49804 0.0429245 6.5778C-0.0689259 5.65756 0.0385591 4.72398 0.356653 3.85324C0.402416 3.72817 0.457281 3.59412 0.524367 3.44474C0.564019 3.35933 0.603671 3.27703 0.646317 3.19473C0.725622 3.05146 0.814031 2.88686 0.914659 2.74671C1.38214 2.00964 2.00685 1.38505 2.74417 0.917693C2.89043 0.826292 3.04904 0.74088 3.19843 0.661699C3.28073 0.618929 3.36003 0.579275 3.44233 0.54274C3.59483 0.472662 3.729 0.417798 3.85394 0.372035C4.49861 0.130379 5.18106 0.00543443 5.86949 0.00318994H20.6273C21.3149 0.00156892 21.9974 0.122271 22.6428 0.359813C22.7678 0.405575 22.9019 0.460441 23.0513 0.527526L23.3014 0.64948C23.4569 0.728661 23.6063 0.817066 23.7527 0.905474C24.1232 1.1394 24.4667 1.41335 24.7772 1.72247C25.0857 2.03258 25.3588 2.37612 25.5913 2.74671C25.6858 2.89609 25.7711 3.05146 25.8504 3.19785C25.8932 3.28314 25.9327 3.36244 25.9694 3.44474C26.0395 3.60023 26.0945 3.73129 26.1401 3.85623C26.4582 4.72659 26.5654 5.66005 26.4531 6.57979C26.3407 7.49966 26.012 8.37975 25.4937 9.14811C25.2815 9.4586 25.0415 9.74939 24.7772 10.0169C24.233 10.5625 23.5861 10.9952 22.8739 11.2897C22.1616 11.5843 21.3981 11.735 20.6273 11.733L5.86949 11.7361Z" fill="white"/>
<path d="M5.86959 41.2464C9.11126 41.2464 11.7392 38.6193 11.7392 35.3785C11.7392 32.1377 9.11126 29.5105 5.86959 29.5105C2.62793 29.5105 0 32.1377 0 35.3785C0 38.6193 2.62793 41.2464 5.86959 41.2464Z" fill="white"/>
<path d="M20.6276 26.4895C19.7068 26.4885 18.7993 26.2712 17.978 25.8553C17.1566 25.4393 16.4444 24.8363 15.8988 24.0949C15.3533 23.3535 14.9896 22.4942 14.8369 21.5864C14.6843 20.6787 14.7472 19.7478 15.0202 18.8689C15.0508 18.7773 15.0812 18.6859 15.1147 18.5975C15.3101 18.0631 15.5824 17.5598 15.9228 17.1038C16.49 16.3467 17.2302 15.7363 18.0816 15.3237C18.2554 15.2414 18.4322 15.1682 18.6092 15.1041C19.2555 14.8663 19.9389 14.7455 20.6276 14.7475H35.4465C37.776 14.7208 40.0033 13.7867 41.6546 12.1439C43.3059 10.5009 44.251 8.27885 44.289 5.9502V5.87089C44.2902 4.50949 44.762 3.19035 45.6245 2.13668L45.8196 1.91423C45.8867 1.84103 45.9508 1.77707 46.0148 1.71298C46.0789 1.64901 46.1489 1.58192 46.216 1.52095L46.2344 1.50573C46.3014 1.44476 46.3654 1.38989 46.4295 1.33802L46.4569 1.3167L46.649 1.16731L46.6856 1.143C46.7527 1.09424 46.8137 1.04848 46.8776 1.00583L46.9234 0.978405L47.1124 0.856451L47.1734 0.822911C47.2405 0.783258 47.2985 0.746721 47.3595 0.716171L47.4295 0.679636L47.6064 0.588235L47.7223 0.536364L47.8717 0.460177L48.015 0.402195L48.14 0.356553L48.4084 0.265031L48.6888 0.185849L48.9724 0.121755L49.259 0.0700102L49.5639 0.0303546L49.8689 0.0090332H50.1586C51.7145 0.0106542 53.2062 0.629511 54.3062 1.72969C55.4061 2.82986 56.0243 4.32144 56.0251 5.877V5.96229C56.0251 6.0416 56.0251 6.11168 56.0251 6.17876C56.0251 6.24585 56.0037 6.44087 56.0007 6.48364C55.9976 6.52628 55.9702 6.73664 55.9641 6.78839C55.958 6.84026 55.9214 7.04451 55.9122 7.07805C55.9031 7.1116 55.8451 7.38281 55.8451 7.38281L55.7689 7.65414C55.7537 7.69379 55.7385 7.74255 55.7202 7.78831L55.6744 7.92547L55.5708 8.19057L55.5037 8.33995L55.4548 8.44969L55.3238 8.70269L55.2261 8.87339L55.1866 8.9436L55.0738 9.1173L55.0463 9.15994C54.9975 9.23625 54.9518 9.30022 54.9029 9.36419L54.8786 9.39773C54.8299 9.46183 54.781 9.52879 54.7292 9.59288C54.6774 9.65685 54.5981 9.74837 54.5402 9.81234L54.5188 9.83665L54.3451 10.0227C54.2687 10.0989 54.2048 10.1599 54.1377 10.2208C54.0706 10.2818 53.9974 10.3488 53.9272 10.4068C52.8714 11.288 51.5401 11.7712 50.1647 11.7724H50.1036C47.7739 11.7983 45.5462 12.7322 43.8947 14.3751C42.2433 16.0182 41.2983 18.2408 41.2612 20.5698V20.649C41.2616 22.0197 40.7839 23.3479 39.9104 24.4045L39.7152 24.6301C39.6481 24.7002 39.5872 24.7641 39.5201 24.8282C39.453 24.8922 39.3829 24.9623 39.3188 25.0203L39.1055 25.2032L39.084 25.2214L38.8859 25.3739L38.8553 25.3952L38.6572 25.5385L38.6175 25.5598C38.5475 25.6086 38.4834 25.6482 38.4194 25.6879L38.3644 25.7214L38.1785 25.825L38.0809 25.8768L37.9254 25.9561L37.8461 25.9896C37.7638 26.0293 37.715 26.0506 37.6663 26.0688L37.5747 26.1055L37.4009 26.1755L37.2637 26.2213L37.1296 26.2669L36.8521 26.3433L36.5716 26.4102L36.285 26.4591L35.98 26.4986L35.6751 26.5199H20.6276V26.4895Z" fill="white"/>
<path d="M35.3851 11.7359C34.224 11.7364 33.0888 11.3928 32.123 10.7482C31.1572 10.1037 30.4045 9.1872 29.9598 8.11496C29.5152 7.04259 29.3987 5.86249 29.6251 4.72391C29.8515 3.58533 30.4106 2.53953 31.2316 1.71867C32.0527 0.897806 33.0989 0.338927 34.2377 0.112608C35.3765 -0.113711 36.557 0.00275448 37.6296 0.447163C38.7024 0.891697 39.619 1.64435 40.2638 2.60973C40.9084 3.57523 41.2522 4.7102 41.2516 5.87097C41.25 7.42591 40.6314 8.91674 39.5316 10.0163C38.4318 11.1158 36.9406 11.7343 35.3851 11.7359Z" fill="white"/>
<path d="M35.385 41.2433C33.829 41.2424 32.337 40.6243 31.2365 39.5247C30.136 38.4251 29.517 36.9339 29.5154 35.3783C29.5154 35.2747 29.5154 35.1772 29.5154 35.0735V34.9303C29.5154 34.8754 29.5154 34.8235 29.5154 34.7748C29.5154 34.7748 29.5458 34.5218 29.5519 34.4699C29.558 34.4181 29.5977 34.22 29.6038 34.1651C29.6099 34.1103 29.6587 33.9242 29.6678 33.8877L29.7502 33.5828L29.8416 33.3146L29.9453 33.0494C29.9453 33.019 30.0612 32.7934 30.0612 32.7934L30.1465 32.6318L30.1922 32.5373C30.2135 32.5037 30.3295 32.2996 30.3295 32.2996C30.3631 32.2446 30.4027 32.1806 30.4453 32.1197L30.4819 32.0618C30.5185 32.0038 30.5643 31.9428 30.6099 31.8819L30.6374 31.8424L30.7838 31.6533L30.8051 31.6259C30.8631 31.5588 30.9149 31.4948 30.9698 31.4339L31.0002 31.4003L31.168 31.2205L31.3753 31.0192L31.5918 30.8333C32.6473 29.9516 33.9789 29.4683 35.3544 29.4677H35.4154C37.7449 29.441 39.9722 28.5069 41.6235 26.8639C43.2749 25.2211 44.2199 22.9991 44.2579 20.6703V20.5911C44.2579 19.2212 44.7356 17.8943 45.6087 16.8386L45.6301 16.8111L45.8039 16.613C45.871 16.5399 45.9349 16.4728 45.999 16.4119C46.063 16.3509 46.1362 16.2777 46.2033 16.2167C46.2704 16.1557 46.3466 16.0918 46.4136 16.0399L46.4411 16.0156L46.6301 15.8662L46.6729 15.8388L46.8619 15.7046L46.9107 15.6742L47.0967 15.5553L47.1577 15.5218L47.3436 15.4151L47.4138 15.3785L47.5936 15.287L47.676 15.2505L47.8529 15.1712L47.987 15.1163L48.1151 15.0675L48.3895 14.9761L48.6639 14.8968L48.9444 14.8329L49.2493 14.781H49.356L49.5512 14.7567L49.8562 14.7354H50.1459C51.7018 14.7368 53.1935 15.3557 54.2934 16.456C55.3934 17.5562 56.0116 19.0478 56.0123 20.6032V20.6886C56.0123 20.7679 56.0123 20.838 56.0123 20.9051C56.0123 20.972 55.991 21.1672 55.988 21.2098C55.9849 21.2525 55.9575 21.466 55.9514 21.4995C55.9452 21.533 55.9087 21.7555 55.8995 21.8042C55.8904 21.853 55.8324 22.1091 55.8324 22.1091L55.7532 22.3834L55.6617 22.6548L55.5581 22.92L55.4421 23.179L55.311 23.429C55.2836 23.4809 55.2501 23.5419 55.2134 23.6027L55.1739 23.6729L55.061 23.8497L55.0336 23.8893C54.9849 23.9656 54.9391 24.0295 54.8933 24.0905L54.8659 24.1302L54.7195 24.3161L54.6951 24.3465C54.6402 24.4136 54.5885 24.4746 54.5335 24.5355L54.506 24.5691L54.3323 24.752L54.3079 24.7763C54.2591 24.8251 54.195 24.8892 54.128 24.947C54.0609 25.005 53.9847 25.0781 53.9115 25.1361C52.8569 26.0173 51.5263 26.5006 50.152 26.5017H50.0909C47.7612 26.5276 45.5334 27.4615 43.882 29.1046C42.2305 30.7475 41.2856 32.9701 41.2485 35.2991V35.3631C41.2488 36.7338 40.7711 38.062 39.8976 39.1186L39.7025 39.3442L39.5105 39.5423L39.489 39.5636L39.3061 39.7343L39.2848 39.7525C39.2208 39.8105 39.1598 39.8654 39.0927 39.9173L39.0683 39.9355C39.0012 39.9903 38.9371 40.0422 38.87 40.091L38.8396 40.1123C38.7725 40.161 38.7116 40.2068 38.6445 40.2495L38.6018 40.2769L38.4097 40.3988L38.3487 40.4354L38.1658 40.5391L38.0956 40.5757L37.9126 40.6671L37.8303 40.7067L37.6535 40.786L37.5194 40.8378L37.3913 40.8865L37.2327 40.9414L37.1198 40.978L36.9523 41.0268L36.8455 41.0572L36.5588 41.1213L36.2723 41.1731L35.9673 41.2127L35.6624 41.234C35.5862 41.2433 35.4856 41.2433 35.385 41.2433Z" fill="white"/>
<path d="M50.143 41.2464C53.3847 41.2464 56.0126 38.6193 56.0126 35.3785C56.0126 32.1377 53.3847 29.5105 50.143 29.5105C46.9014 29.5105 44.2734 32.1377 44.2734 35.3785C44.2734 38.6193 46.9014 41.2464 50.143 41.2464Z" fill="white"/>
<path d="M35.3852 55.9973C34.6034 56.0151 33.8258 55.8766 33.0983 55.5898C32.3707 55.3029 31.7079 54.8737 31.1486 54.3271C30.5894 53.7806 30.145 53.1278 29.8416 52.4072C29.5382 51.6866 29.3818 50.9126 29.3818 50.1308C29.3818 49.349 29.5382 48.575 29.8416 47.8544C30.145 47.1338 30.5894 46.481 31.1486 45.9345C31.7079 45.3881 32.3707 44.9588 33.0983 44.672C33.8258 44.3852 34.6034 44.2466 35.3852 44.2645H50.14C51.6732 44.2994 53.1318 44.9327 54.2038 46.0291C55.2756 47.1254 55.8759 48.5977 55.8759 50.1308C55.8759 51.6639 55.2756 53.1362 54.2038 54.2326C53.1318 55.3289 51.6732 55.9624 50.14 55.9973H35.3852Z" fill="white"/>
<path d="M20.6281 56.0001C23.8698 56.0001 26.4977 53.3729 26.4977 50.1321C26.4977 46.8913 23.8698 44.2642 20.6281 44.2642C17.3865 44.2642 14.7585 46.8913 14.7585 50.1321C14.7585 53.3729 17.3865 56.0001 20.6281 56.0001Z" fill="white"/>
<path d="M5.86961 55.997C5.37395 55.9975 4.88029 55.936 4.39984 55.814C4.21392 55.7653 4.02788 55.7074 3.85106 55.6433L3.58272 55.5367C3.2352 55.3883 2.90239 55.2077 2.58866 54.9972L2.35698 54.8326C2.13066 54.6642 1.91756 54.4788 1.71967 54.2777C1.45208 54.0131 1.21204 53.7221 1.00318 53.4089C0.735712 53.017 0.518617 52.593 0.356764 52.1469C0.119098 51.5019 -0.00160491 50.8196 1.61127e-05 50.1321C1.61127e-05 50.0284 1.61127e-05 49.9309 1.61127e-05 49.8272V49.6717C1.61127e-05 49.62 1.61127e-05 49.5711 1.61127e-05 49.5255C1.61127e-05 49.5255 0.0304413 49.2725 0.0365513 49.2389C0.0426613 49.2054 0.0854311 48.9524 0.0854311 48.9524L0.152394 48.6688C0.152394 48.6323 0.234814 48.3793 0.234814 48.3793L0.326215 48.108L0.42996 47.8427L0.548794 47.5836C0.570241 47.541 0.597676 47.4831 0.628101 47.4283L0.673865 47.3367L0.771373 47.166L0.817136 47.0868L0.929984 46.913L0.954426 46.8735C1.00318 46.8003 1.04894 46.7393 1.09159 46.6783L1.12214 46.6357C1.17089 46.5686 1.21965 46.5076 1.27152 46.4437L1.29284 46.4162L1.45744 46.2242L1.48487 46.1937C1.53375 46.1388 1.59161 46.0778 1.65259 46.0168L1.68314 45.9864C1.73189 45.9377 1.79598 45.8736 1.86307 45.8126C2.94329 44.8173 4.35782 44.2635 5.82684 44.261H5.88793C8.21759 44.2351 10.4454 43.3013 12.0968 41.6582C13.7483 40.0152 14.6932 37.7927 14.7304 35.4636V35.3144C14.7037 32.985 13.7688 30.7578 12.1249 29.1069C10.4809 27.4559 8.25737 26.5115 5.92746 26.4743H5.88482C4.50782 26.4793 3.17248 26.0026 2.10996 25.1269C2.03677 25.07 1.96669 25.009 1.8996 24.9441L1.69835 24.7519L1.50632 24.5478C1.44534 24.4776 1.39036 24.4166 1.33549 24.3497L1.31416 24.3222L1.16478 24.1301L1.12513 24.0844C1.07937 24.0203 1.03361 23.9594 0.990961 23.8924L0.960533 23.8437C0.917763 23.7796 0.878109 23.7186 0.841574 23.6576L0.808034 23.6027L0.701294 23.4138L0.646432 23.3071C0.609772 23.2491 0.609771 23.2035 0.573236 23.1699C0.573236 23.1699 0.475598 22.9566 0.457393 22.9108L0.353648 22.6487L0.262247 22.3774L0.182943 22.0847C0.182943 22.0543 0.12496 21.8378 0.11885 21.8073C0.112864 21.7769 0.0732107 21.5543 0.0671007 21.5025C0.0609907 21.4507 0.0671007 21.4354 0.0671007 21.4019L0.0396679 21.1977C0.0396679 21.1672 0.0183465 20.8929 0.0183465 20.8929C0.0183465 20.8106 0.0183465 20.71 0.0183465 20.6093C0.0174736 20.3093 0.0399178 20.0097 0.0854311 19.7132C0.115856 19.5241 0.155509 19.3291 0.204265 19.1401C0.228705 19.0487 0.253022 18.9542 0.283572 18.8626C0.507024 18.1369 0.871752 17.4626 1.35681 16.8783C1.41779 16.8051 1.47889 16.735 1.54286 16.6649C2.09263 16.0646 2.76099 15.5851 3.50579 15.2566C4.25058 14.9282 5.05548 14.7578 5.86961 14.7566H6.17448H6.32998H6.47337L6.77825 14.7933L7.0648 14.845L7.31793 14.9395L7.60759 15.0218L7.87892 15.1133L8.14115 15.217L8.39728 15.3328L8.65041 15.4607L8.84243 15.5491L8.91874 15.5919C8.97361 15.6223 9.03458 15.662 9.09556 15.7016L9.13522 15.7291C9.2114 15.7778 9.27238 15.8236 9.33335 15.8692L9.3669 15.8906L9.56204 16.0431L9.59558 16.0705L9.78462 16.232L9.80906 16.2533C9.87004 16.3083 9.93413 16.3661 9.9951 16.4271L10.1964 16.6344L10.3854 16.8508C11.266 17.9066 11.7483 19.2377 11.7483 20.6125V20.6733C11.7735 23.0027 12.7073 25.2303 14.351 26.8814C15.9946 28.5326 18.2183 29.477 20.5481 29.5134H20.6244C21.9875 29.5122 23.3088 29.9841 24.3626 30.8486L24.451 30.9339L24.4876 30.9522L24.6096 31.0589C24.6797 31.1259 24.7438 31.1869 24.8077 31.254L24.8291 31.2723C24.884 31.3272 24.9419 31.3911 24.9999 31.4552V31.4734C25.0609 31.5405 25.1157 31.6015 25.1645 31.6655L25.1889 31.696C25.2408 31.76 25.2925 31.8241 25.3383 31.888L25.3627 31.9216L25.503 32.1166L25.5273 32.1594C25.5731 32.2294 25.6128 32.2904 25.6493 32.3514L25.686 32.4124L25.7927 32.5983L25.8444 32.7019C25.875 32.7599 25.8963 32.8025 25.9176 32.8483L25.9756 32.9701L26.0335 33.1043L26.0915 33.2476C26.0915 33.2902 26.125 33.3299 26.1402 33.3725L26.1921 33.525C26.1921 33.5645 26.2195 33.6042 26.2286 33.6409L26.3079 33.9182C26.3079 33.9182 26.3659 34.1621 26.375 34.2017C26.3842 34.2413 26.4178 34.4516 26.4238 34.4913C26.4299 34.5309 26.4634 34.7961 26.4634 34.7961L26.4847 35.1009C26.4847 35.1893 26.4847 35.2869 26.4847 35.4058C26.4847 35.5246 26.4847 35.6069 26.4847 35.7106V35.8569C26.4847 35.9118 26.4847 35.9637 26.4847 36.0154C26.4847 36.0154 26.4543 36.2654 26.4482 36.299L26.3963 36.6037C26.3963 36.622 26.3415 36.8446 26.3324 36.8811L26.2501 37.1677C26.2501 37.189 26.1585 37.439 26.1585 37.439L26.0549 37.7041L25.936 37.9632C25.9176 38.0029 25.8109 38.2133 25.8109 38.2133L25.7164 38.3749L25.6707 38.4572L25.5579 38.6309L25.5305 38.6735C25.4816 38.7467 25.4389 38.8077 25.3932 38.8686L25.3657 38.9083C25.317 38.9753 25.2651 39.0393 25.2164 39.1003L25.1889 39.1339C25.1402 39.1978 25.0853 39.2588 25.0303 39.3228L25.006 39.3502L24.8322 39.5331L24.8047 39.5606L24.6218 39.7344C24.5486 39.8014 24.4815 39.8623 24.4083 39.9233L24.3778 39.9477C23.3262 40.8101 22.0089 41.283 20.6487 41.286H20.5877C18.2579 41.3118 16.0303 42.2457 14.3788 43.8887C12.7274 45.5318 11.7825 47.7543 11.7453 50.0832V50.1564C11.7326 51.5223 11.2454 52.8412 10.3671 53.8875L10.1841 54.0979C10.1171 54.1741 10.053 54.2382 9.99199 54.299L9.78774 54.4912C9.71754 54.5551 9.65656 54.61 9.59259 54.6619L9.56815 54.6801L9.37001 54.8356L9.34557 54.8508L9.14432 54.9941L9.09257 55.0246L8.90652 55.1466L8.84555 55.18L8.66262 55.2837L8.58631 55.3232L8.41261 55.4117L8.3272 55.4513L8.15038 55.5275L7.88503 55.6342L7.6137 55.7256L7.33925 55.8018L7.05869 55.8659L6.75381 55.9177L6.46415 55.9543L6.15927 55.9786L5.86961 55.997Z" fill="white"/>
</svg>
