<svg width="25" height="25" viewBox="0 0 25 25" fill="none" xmlns="http://www.w3.org/2000/svg">
<path d="M6 15L5 8L7 6.5L10.5 4L15 4.5L18.5 7L20 11.5V14.5L16.5 17L12.5 18.5L9.5 17.5L6 15Z" fill="white"/>
<path fill-rule="evenodd" clip-rule="evenodd" d="M22 12.5C22 17.7464 17.7464 22 12.5 22C7.25363 22 3 17.7464 3 12.5C3 7.25363 7.25363 3 12.5 3C17.7464 3 22 7.25363 22 12.5ZM12.8404 10.0134C11.9165 10.3973 10.0696 11.193 7.30033 12.3995C6.85067 12.5784 6.61475 12.7533 6.59338 12.9243C6.55696 13.2141 6.91954 13.3281 7.41196 13.4825C7.47925 13.5038 7.54892 13.5252 7.62017 13.549C8.10546 13.7065 8.75779 13.891 9.09663 13.8981C9.40458 13.9044 9.74817 13.7778 10.1274 13.5181C12.7145 11.7709 14.0501 10.8882 14.134 10.8692C14.1934 10.8557 14.2757 10.8383 14.3311 10.8882C14.3865 10.9373 14.381 11.0307 14.3755 11.056C14.339 11.2088 12.9188 12.5301 12.1825 13.2141C11.953 13.427 11.7907 13.5783 11.7574 13.6131C11.683 13.6899 11.607 13.7635 11.5342 13.834C11.0829 14.2678 10.7457 14.594 11.5532 15.126C11.9411 15.3817 12.2514 15.593 12.561 15.8036C12.899 16.034 13.2363 16.2636 13.6733 16.5502C13.7841 16.623 13.8902 16.6982 13.9939 16.7718C14.3873 17.0529 14.7412 17.3046 15.1782 17.265C15.4315 17.2413 15.6944 17.003 15.8274 16.2913C16.1417 14.6082 16.7607 10.9634 16.904 9.46079C16.9128 9.33604 16.9075 9.2107 16.8882 9.08713C16.8767 8.98732 16.8281 8.89549 16.752 8.82983C16.6388 8.73721 16.4631 8.71742 16.3839 8.719C16.0269 8.72533 15.479 8.91613 12.8404 10.0134Z" fill="#31A4DF"/>
</svg>
