<svg width="25" height="25" viewBox="0 0 25 25" fill="none" xmlns="http://www.w3.org/2000/svg">
<path d="M6 15L5 8L7 6.5L10.5 4L15 4.5L18.5 7L20 11.5V14.5L16.5 17L12.5 18.5L9.5 17.5L6 15Z" fill="white"/>
<path d="M19.7407 17.6439C18.8889 18.3977 17.6543 18.9384 16.037 19.2659C14.4198 19.5933 12.7531 19.6891 11.037 19.5532L7.77778 22V18.9415C6.7037 18.6078 5.8642 18.1753 5.25926 17.6439C4.54321 17.0137 3.98765 16.1085 3.59259 14.9283C3.19753 13.7481 3 12.5433 3 11.3137C3 10.0841 3.19753 8.87919 3.59259 7.69902C3.98765 6.51886 4.5463 5.61057 5.26852 4.97415C5.99074 4.33772 7.02469 3.84959 8.37037 3.50976C9.71605 3.16992 11.0926 3 12.5 3C13.9074 3 15.284 3.16992 16.6296 3.50976C17.9753 3.84959 19.0093 4.33772 19.7315 4.97415C20.4537 5.61057 21.0123 6.51886 21.4074 7.69902C21.8025 8.87919 22 10.0841 22 11.3137C22 12.5433 21.8025 13.7481 21.4074 14.9283C21.0123 16.1085 20.4568 17.0137 19.7407 17.6439ZM14.8333 13.1024L16.037 13.3063C15.9383 11.8234 15.3673 10.5567 14.3241 9.50634C13.2809 8.45593 12.0185 7.8813 10.537 7.78244L10.7407 8.98732C11.8025 9.12325 12.716 9.57431 13.4815 10.3405C14.2469 11.1067 14.6975 12.0273 14.8333 13.1024ZM10.9444 10.2293L11.1667 11.5639C11.6605 11.8111 12.0247 12.1756 12.2593 12.6576L13.5926 12.88C13.4444 12.225 13.1296 11.6597 12.6481 11.1839C12.1667 10.7081 11.5988 10.3899 10.9444 10.2293ZM8.96296 11.3229V10.1366C8.96296 9.9265 8.8858 9.71642 8.73148 9.50634C8.57716 9.29626 8.41358 9.14488 8.24074 9.05219C8.0679 8.95951 7.93827 8.95024 7.85185 9.02439L7 9.89561C6.51852 10.3776 6.44753 11.1283 6.78704 12.1478C7.12654 13.1673 7.77469 14.1559 8.73148 15.1137C9.68827 16.0714 10.6759 16.7202 11.6944 17.06C12.713 17.3998 13.4568 17.3288 13.9259 16.8468L14.7963 15.9756C14.8827 15.9015 14.8796 15.7748 14.787 15.5956C14.6944 15.4164 14.5432 15.2527 14.3333 15.1044C14.1235 14.9561 13.9136 14.882 13.7037 14.882H12.5185L11.8333 15.4751C11.2901 15.3268 10.6142 14.848 9.80556 14.0385C8.99691 13.2291 8.51852 12.5463 8.37037 11.9902L8.96296 11.3229ZM10.1481 5.39122L10.3333 6.5961C11.5679 6.62081 12.7099 6.9452 13.7593 7.56927C14.8086 8.19333 15.642 9.02748 16.2593 10.0717C16.8765 11.1159 17.2037 12.2559 17.2407 13.4917L18.4444 13.6956C18.4444 12.5711 18.2253 11.4959 17.787 10.4702C17.3488 9.44455 16.7593 8.56098 16.0185 7.81951C15.2778 7.07805 14.3951 6.48797 13.3704 6.04927C12.3457 5.61057 11.2716 5.39122 10.1481 5.39122Z" fill="#A158E6"/>
</svg>
