<svg width="25" height="25" viewBox="0 0 25 25" fill="none" xmlns="http://www.w3.org/2000/svg">
<path d="M6 15L5 8L7 6.5L10.5 4L15 4.5L18.5 7L20 11.5V16.5L16.5 19L12.5 19.5L9.5 17.5L6 15Z" fill="white"/>
<path d="M21 7.12509C18 2.50009 11.875 1.12509 7.12497 4.00009C2.49997 6.87509 0.999969 13.1251 3.99997 17.7501L4.24997 18.1251L3.24997 21.8751L6.99997 20.8751L7.37497 21.1251C8.99997 22.0001 10.75 22.5001 12.5 22.5001C14.375 22.5001 16.25 22.0001 17.875 21.0001C22.5 18.0001 23.875 11.8751 21 7.12509ZM18.375 16.7501C17.875 17.5001 17.25 18.0001 16.375 18.1251C15.875 18.1251 15.25 18.3751 12.75 17.3751C10.625 16.3751 8.87497 14.7501 7.62497 12.8751C6.87497 12.0001 6.49997 10.8751 6.37497 9.75009C6.37497 8.75009 6.74997 7.87509 7.37497 7.25009C7.78273 6.84233 8.21722 6.87509 8.74997 6.87509C8.99997 6.87509 9.24997 6.87509 9.37497 7.37509C9.62497 8.00009 10.25 9.50009 10.25 9.62509C10.4527 9.82781 10.3115 10.5636 10.125 10.7501C9.88201 10.9931 9.3233 11.5218 9.49997 11.8751C9.99997 12.6251 10.625 13.3751 11.25 14.0001C12 14.6251 12.75 15.1251 13.625 15.5001C13.875 15.6251 14.125 15.6251 14.25 15.3751C14.375 15.1251 15 14.5001 15.25 14.2501C15.5 14.0001 15.625 14.0001 15.875 14.1251L17.875 15.1251C18.125 15.2501 18.375 15.3751 18.5 15.5001C18.625 15.8751 18.625 16.3751 18.375 16.7501Z" fill="#33BD50"/>
</svg>
